<?xml version="1.0" encoding="utf-8"?>
<!-- Generator: Adobe Illustrator 19.0.1, SVG Export Plug-In . SVG Version: 6.00 Build 0)  -->
<!DOCTYPE svg PUBLIC "-//W3C//DTD SVG 1.1//EN" "http://www.w3.org/Graphics/SVG/1.1/DTD/svg11.dtd" [
	<!ENTITY st0 "fill:#3B5998;">
	<!ENTITY st1 "fill:#FFFFFF;">
]>
<svg version="1.1" id="Blue" xmlns="http://www.w3.org/2000/svg" xmlns:xlink="http://www.w3.org/1999/xlink" x="0px" y="0px"
	 viewBox="-441 259 44 44" style="enable-background:new -441 259 44 44;" xml:space="preserve">
<g>
	<path id="Blue_1_" style="&st0;" d="M-399.4,303c1.3,0,2.4-1.1,2.4-2.4v-39.2c0-1.3-1.1-2.4-2.4-2.4h-39.2c-1.3,0-2.4,1.1-2.4,2.4
		v39.2c0,1.3,1.1,2.4,2.4,2.4H-399.4z"/>
	<path id="f" style="&st1;" d="M-410.6,303v-17h5.7l0.9-6.7h-6.6v-4.3c0-1.9,0.5-3.2,3.3-3.2h3.5v-5.9c-0.6-0.1-2.7-0.3-5.1-0.3
		c-5.1,0.1-8.6,3.2-8.6,8.8v4.9h-5.7v6.7h5.7v17H-410.6z"/>
</g>
</svg>
