<?xml version="1.0" encoding="utf-8"?>
<!-- Generator: Adobe Illustrator 19.0.1, SVG Export Plug-In . SVG Version: 6.00 Build 0)  -->
<!DOCTYPE svg PUBLIC "-//W3C//DTD SVG 1.1//EN" "http://www.w3.org/Graphics/SVG/1.1/DTD/svg11.dtd" [
	<!ENTITY st0 "fill:#55ACEE;">
]>
<svg version="1.1" id="Layer_1" xmlns="http://www.w3.org/2000/svg" xmlns:xlink="http://www.w3.org/1999/xlink" x="0px" y="0px"
	 viewBox="-441 259 44 44" style="enable-background:new -441 259 44 44;" xml:space="preserve">
<path style="&st0;" d="M-397,267.3c-1.6,0.7-3.4,1.2-5.2,1.4c1.8-1.1,3.3-2.9,4-5c-1.8,1-3.7,1.8-5.7,2.2c-1.6-1.8-4-2.9-6.6-2.9
	c-5,0-9,4-9,9c0,0.7,0.1,1.4,0.2,2.1c-7.5-0.4-14.2-4-18.6-9.4c-0.8,1.3-1.2,2.9-1.2,4.5c0,3.2,1.6,5.9,4,7.5
	c-1.5-0.1-2.9-0.4-4.1-1.1c0,0.1,0,0.1,0,0.1c0,4.4,3.1,8,7.3,8.9c-0.7,0.2-1.5,0.3-2.3,0.3c-0.6,0-1.2-0.1-1.7-0.1
	c1.2,3.6,4.5,6.2,8.4,6.2c-3.2,2.4-7,3.8-11.3,3.8c-0.7,0-1.5-0.1-2.1-0.1c4,2.6,8.7,4,13.9,4c16.6,0,25.7-13.8,25.7-25.7
	c0-0.4,0-0.8,0-1.2C-399.7,270.7-398.2,269.2-397,267.3z"/>
</svg>
