<?xml version="1.0" encoding="utf-8"?>
<!-- Generator: Adobe Illustrator 19.0.1, SVG Export Plug-In . SVG Version: 6.00 Build 0)  -->
<!DOCTYPE svg PUBLIC "-//W3C//DTD SVG 1.1//EN" "http://www.w3.org/Graphics/SVG/1.1/DTD/svg11.dtd">
<svg version="1.1" id="レイヤー_1" xmlns="http://www.w3.org/2000/svg" xmlns:xlink="http://www.w3.org/1999/xlink" x="0px"
	 y="0px" viewBox="0 0 100 44" style="enable-background:new 0 0 100 44;" xml:space="preserve">
<style type="text/css">
	.st0{fill:url(#lozenge_1_);}
	.st1{fill:#FFFFFF;}
</style>
<g>
	<linearGradient id="lozenge_1_" gradientUnits="userSpaceOnUse" x1="69.3626" y1="2" x2="69.3626" y2="42">
		<stop  offset="0" style="stop-color:#E32E28"/>
		<stop  offset="1" style="stop-color:#BE2126"/>
	</linearGradient>
	<path id="lozenge_2_" class="st0" d="M97.4,10.6c0,0-0.6-3.9-2.3-5.6c-2.2-2.3-4.6-2.3-5.7-2.4c-8-0.6-20-0.6-20-0.6h0
		c0,0-12,0-20,0.6c-1.1,0.1-3.6,0.1-5.7,2.4c-1.7,1.7-2.3,5.6-2.3,5.6s-0.6,4.6-0.6,9.2v4.3c0,4.6,0.6,9.2,0.6,9.2s0.6,3.9,2.3,5.6
		c2.2,2.3,5,2.2,6.3,2.4c4.6,0.4,19.4,0.6,19.4,0.6s12,0,20-0.6c1.1-0.1,3.6-0.1,5.7-2.4c1.7-1.7,2.3-5.6,2.3-5.6s0.6-4.6,0.6-9.2
		v-4.3C97.9,15.2,97.4,10.6,97.4,10.6z"/>
	<path id="u_2_" d="M37.8,34.4h-3.6v-2.1c-1.4,1.6-2.5,2.4-3.8,2.4c-1.1,0-1.9-0.5-2.3-1.5c-0.2-0.6-0.4-1.5-0.4-2.8V15h3.6v14.3
		c0,0.8,0,1.1,0,1.3c0.1,0.5,0.3,0.7,0.8,0.7c0.7,0,1.3-0.6,2.1-1.7V15h3.6V34.4z"/>
	<path id="o_2_" d="M25,21.4c0-2.1-0.4-3.6-1.1-4.6c-1-1.3-2.5-1.9-4-1.9c-1.7,0-3.1,0.5-4,1.9c-0.7,1-1.1,2.5-1.1,4.6l0,6.9
		c0,2.1,0.4,3.5,1.1,4.4c1,1.3,2.5,2,4.1,2s3.1-0.7,4.1-2c0.7-1,1.1-2.4,1.1-4.4V21.4z M21.4,28.6c0.2,1.9-0.4,2.9-1.5,2.9
		c-1.1,0-1.7-0.9-1.5-2.9V21c-0.2-1.9,0.4-2.8,1.5-2.8c1.1,0,1.7,0.9,1.5,2.8L21.4,28.6z"/>
	<path id="y_2_" d="M10.7,23.8v10.5H6.9V23.8c0,0-4-12.9-4.8-15.3h4l2.7,10.1l2.7-10.1h4L10.7,23.8z"/>
	<path id="e_1_" class="st1" d="M93.1,25.4l0-3.9c0-2-0.4-3.5-1.1-4.5c-1-1.3-2.3-2-4.1-2c-1.8,0-3.1,0.7-4.1,2
		c-0.7,1-1.2,2.5-1.2,4.6v6.7c0,2,0.5,3.5,1.2,4.4c1,1.3,2.4,2,4.2,2c1.8,0,3.2-0.7,4.2-2.1c0.4-0.6,0.7-1.3,0.8-2.1
		c0-0.3,0.1-1.1,0.1-2.3v-0.5h-3.6c0,1.4,0,2.2,0,2.4c-0.2,0.9-0.7,1.4-1.5,1.4c-1.2,0-1.7-0.9-1.7-2.7v-3.4H93.1z M86.3,20.4
		c0-1.8,0.5-2.3,1.6-2.3c1.1,0,1.6,0.5,1.6,2.3v2.1l-3.3,0V20.4z"/>
	<path id="b_1_" class="st1" d="M77.1,14.9c-1.3,0-2.5,0.8-3.7,2.2l0-8.4H70v25.6h3.4l0-1.9c1.2,1.4,2.4,2.2,3.7,2.2
		c1.4,0,2.4-0.7,2.8-2.2c0.2-0.8,0.4-2.1,0.4-3.8V21c0-1.8-0.2-3-0.5-3.8C79.4,15.7,78.5,14.9,77.1,14.9z M76.7,28.8
		c0,1.9-0.5,2.6-1.4,2.6c-0.6,0-1.2-0.3-1.8-0.9l0-11.6c0.6-0.6,1.2-0.9,1.8-0.9c1,0,1.4,0.6,1.4,2.5V28.8z"/>
	<path id="u_1_" class="st1" d="M67.1,34.4h-3.6v-2.1c-1.4,1.6-2.5,2.4-3.8,2.4c-1.1,0-1.9-0.5-2.3-1.5c-0.2-0.6-0.4-1.5-0.4-2.8
		V15.2h3.6v14.2c0,0.8,0,1.1,0,1.3c0.1,0.5,0.3,0.7,0.8,0.7c0.7,0,1.3-0.6,2.1-1.7V15.2h3.6V34.4z"/>
	<polygon id="T" class="st1" points="53.3,34.4 49.5,34.4 49.5,12.4 45.5,12.4 45.5,8.7 57.6,8.7 57.6,12.4 53.3,12.4 	"/>
</g>
</svg>
