<?xml version="1.0" encoding="utf-8"?>
<!-- Generator: Adobe Illustrator 18.1.1, SVG Export Plug-In . SVG Version: 6.00 Build 0)  -->
<!DOCTYPE svg PUBLIC "-//W3C//DTD SVG 1.1//EN" "http://www.w3.org/Graphics/SVG/1.1/DTD/svg11.dtd">
<svg version="1.1" xmlns="http://www.w3.org/2000/svg" xmlns:xlink="http://www.w3.org/1999/xlink" x="0px" y="0px"
	 viewBox="0 0 480 107" style="enable-background:new 0 0 480 107;" xml:space="preserve">
<g id="picture">
	<g>
		<defs>
			<rect id="SVGID_1_" x="250" y="4.2" width="100" height="66.7"/>
		</defs>
		<clipPath id="SVGID_2_">
			<use xlink:href="#SVGID_1_"  style="overflow:visible;"/>
		</clipPath>
		<g style="clip-path:url(#SVGID_2_);">
			
				<image style="overflow:visible;" width="480" height="360" xlink:href="../../../img_sample/設置店/わが家/main.jpg"  transform="matrix(0.2083 0 0 0.2083 250 4.2385)">
			</image>
		</g>
	</g>
	
		<image style="overflow:visible;" width="1024" height="683" xlink:href="../installationStore/01.jpg"  transform="matrix(9.765625e-02 0 0 9.760908e-02 10 4.2385)">
	</image>
	
		<image style="overflow:visible;" width="480" height="320" xlink:href="../../../img_sample/設置店/爽快館/main.jpg"  transform="matrix(0.2083 0 0 0.2083 130 4.2385)">
	</image>
	
		<image style="overflow:visible;" width="480" height="320" xlink:href="../../../img_sample/設置店/守山こうしん/main.jpg"  transform="matrix(0.2083 0 0 0.2083 370 4.2385)">
	</image>
</g>
<g id="レイヤー_1">
	<g>
		<path d="M184.6,84.3h-6.9v-1.8h6.9V84.3z M184.2,95.1h-3.9v0.7h-2.2v-5.9h6.1V95.1z M184.1,81.8h-5.8v-1.6h5.8V81.8z M184.1,86.6
			h-5.7v-1.5h5.7V86.6z M184.1,89h-5.7v-1.5h5.7V89z M182,93.5v-2.1h-1.7v2.1H182z M194.4,83v1.9c0,0.3-0.1,0.6-0.3,0.8
			s-0.4,0.4-0.7,0.5s-0.7,0.1-1.3,0.1c-0.4,0-0.9,0-1.3-0.1s-0.7-0.2-1-0.4s-0.3-0.5-0.3-0.9v-3.1h-1.7V82v0.1v0.2
			c0,0.8-0.2,1.7-0.6,2.5s-0.9,1.5-1.5,2l-1.4-1.2c0.4-0.4,0.7-0.9,1-1.4s0.4-1.3,0.4-2.2v-1.8h6.1v4.1c0,0.2,0.1,0.3,0.2,0.3h0.3
			c0.1,0,0.2,0,0.2-0.1s0.1-0.1,0.1-0.1s0-0.3,0-0.6s0-0.7,0-1.1L194.4,83z M193.9,87c0,2.2-0.8,4.1-2.2,5.6c0.6,0.3,1.6,0.6,2.9,1
			l-1.2,2.1c-1.4-0.4-2.7-0.9-3.7-1.6c-1.4,0.9-2.9,1.4-4.4,1.7l-0.8-1.9c1.4-0.3,2.6-0.7,3.5-1.2c-1.1-1.1-1.9-2.4-2.2-3.8h-0.9V87
			H193.9z M189.7,91.4c0.7-0.8,1.2-1.6,1.5-2.5H188C188.3,89.8,188.9,90.7,189.7,91.4z"/>
		<path d="M203.8,93.2v-6.5h2.7v-0.8h-7.2v-1.4h7.2v-0.8h-6.7v-3.2h15.6v3.2H209v0.8h6.8v1.4H209v0.8h5.7v6.5H203.8z M202.5,95.8
			H200v-8.6h2.5v6.8h13.3v1.4h-13.3V95.8z M204.6,82.6v-1h-2.5v1H204.6z M212.3,88.6v-0.7h-6.1v0.7H212.3z M206.2,90.3h6.1v-0.8
			h-6.1V90.3z M206.2,92.1h6.1v-0.9h-6.1V92.1z M206.6,81.6v1h2.3v-1H206.6z M213.2,82.6v-1h-2.3v1H213.2z"/>
		<path d="M234.2,95.1h-6.8v0.7h-2.4v-6.8h4.2v-5.1h-4.7v2.1c0,2.2-0.2,4.2-0.6,5.9s-1,3.1-1.7,4l-1.8-1.2c0.5-0.7,0.8-1.9,1.2-3.4
			s0.5-3.2,0.5-5v-4.5h6.6V80h2.5v1.8h6.6v2h-6v1.6h5.7v1.9h-5.7v1.6h5v6.8h-2.4V95.1z M227.3,93.2h6.8v-2.5h-6.8V93.2z"/>
		<path d="M256.6,91.9h-1.3v3.6h-2.1v-3.6h-1.2v3.7h-2V84.5h3.3v-1h-3.5V83l-0.9,1.3c-0.9-0.5-1.7-1.4-2.4-2.6c-0.5,1-1.3,2-2.3,2.9
			h1.1v-1.1h2.1v1.1h1.6v1.6h-1.6v1.2h2.3v1.7h-6.9v-1.7h2.5v-1.2h-1.7v-1.1l-0.5,0.4l-1-1.5c0.5-0.4,1.1-1,1.8-1.8s1.1-1.6,1.4-2.3
			c0.8,0,1.3,0,1.7,0c0.4,0,0.5,0,0.5,0c0.5,0.9,1.3,1.8,2.3,2.7v-1h3.5v-1.8h2.2v1.8h1l-0.6-1.2l1.7-0.7c0.3,0.5,0.7,1.1,1.1,1.9
			h0.8v1.8h-4v1h3.4v9.6c0,0.5-0.2,0.8-0.5,1.1s-0.7,0.4-1.3,0.4h-1.2l-0.3-1.9h0.7c0.3,0,0.4-0.1,0.4-0.4V91.9z M249.2,95.5h-2.1
			V95H245v0.6h-2.1v-5.7h6.3V95.5z M247.1,93.5v-1.9h-2v1.9H247.1z M253.2,86.2h-1.2v1.2h1.2V86.2z M251.9,90.3h1.2v-1.4h-1.2V90.3z
			 M256.6,87.4v-1.2h-1.3v1.2H256.6z M255.3,90.3h1.3v-1.4h-1.3V90.3z"/>
		<path d="M280.3,87.9h-15.9v-2.3h15.9V87.9z"/>
		<path d="M292.8,92.9c-0.4,0.9-1.1,1.6-2.1,2.1s-2.7,0.8-5,0.9l-0.4-1.7c2.6-0.1,4.2-0.5,4.8-1.2h-3v-6.4h13.8v6.4h-3.9v0.6
			c0,0.3,0.1,0.4,0.4,0.5s0.7,0.1,1.3,0.1c0.2,0,0.6,0,1.1,0s0.8-0.1,0.9-0.1s0.2-0.2,0.3-0.3s0.1-0.6,0.1-1.3l1.9,0.2v1.7
			c0,0.5-0.1,0.9-0.4,1.1s-0.8,0.4-1.6,0.4s-1.6,0-2.3,0c-0.5,0-1.1,0-1.9,0s-1.3-0.2-1.6-0.4s-0.4-0.6-0.4-1v-1.3H292.8z
			 M291.8,84.2v0.8h2.8v0.9h-8.3v-5.7h8.2v0.9h-2.7v0.7h2.5v2.4H291.8z M290,81.1h-1.8v0.7h1.8V81.1z M288.2,82.6v0.8h4.2v-0.8
			H288.2z M290,84.9v-0.8h-1.8v0.8H290z M298.3,88.3v-0.8h-8.7v0.8H298.3z M289.6,90h8.7v-0.8h-8.7V90z M298.3,91h-8.7v0.9h8.7V91z
			 M298.7,80.1c-0.1,0.2-0.2,0.5-0.4,0.8h4.1v1.7h-5.2c-0.5,0.6-0.9,1-1.3,1.3l-1.6-1c0.4-0.4,0.9-0.9,1.3-1.5s0.8-1.1,0.9-1.6
			L298.7,80.1z M301.8,85.7h-6V84h6V85.7z"/>
	</g>
	<g>
		<g>
			<path style="fill:#F15A24;" d="M132.8,87l-7.9,12.1h-8.1l7.9-12.1l-7.9-11h8.1L132.8,87z"/>
		</g>
		<g>
			<path d="M150.4,87l-7.9,12.1h-8.1l7.9-12.1l-7.9-11h8.1L150.4,87z"/>
		</g>
		<g>
			<path d="M168,87l-7.9,12.1h-8.1L160,87l-7.9-11h8.1L168,87z"/>
		</g>
	</g>
	<g>
		<g>
			<path style="fill:#F15A24;" d="M348.1,88.1l7.9-12.1h8.1l-7.9,12.1l7.9,11h-8.1L348.1,88.1z"/>
		</g>
		<g>
			<path d="M330.5,88.1l7.9-12.1h8.1l-7.9,12.1l7.9,11h-8.1L330.5,88.1z"/>
		</g>
		<g>
			<path d="M312.8,88.1l7.9-12.1h8.1l-7.9,12.1l7.9,11h-8.1L312.8,88.1z"/>
		</g>
	</g>
	<g>
	</g>
	<g>
	</g>
	<g>
	</g>
	<g>
	</g>
	<g>
	</g>
	<g>
	</g>
	<g>
	</g>
	<g>
	</g>
	<g>
	</g>
	<g>
	</g>
	<g>
	</g>
	<g>
	</g>
	<g>
	</g>
	<g>
	</g>
	<g>
	</g>
</g>
</svg>
