<?xml version="1.0" encoding="utf-8"?>
<!-- Generator: Adobe Illustrator 18.1.1, SVG Export Plug-In . SVG Version: 6.00 Build 0)  -->
<!DOCTYPE svg PUBLIC "-//W3C//DTD SVG 1.1//EN" "http://www.w3.org/Graphics/SVG/1.1/DTD/svg11.dtd" [
	<!ENTITY st0 "fill:#E50012;">
	<!ENTITY st1 "fill:#FFF000;">
	<!ENTITY st2 "fill:#FFFFFF;">
	<!ENTITY st3 "fill:#231815;">
	<!ENTITY st4 "fill:none;stroke:#E50012;stroke-width:2.211;">
	<!ENTITY st5 "fill:#FFE100;">
]>
<svg version="1.1" xmlns="http://www.w3.org/2000/svg" xmlns:xlink="http://www.w3.org/1999/xlink" x="0px" y="0px"
	 viewBox="0 0 960 252.4" style="enable-background:new 0 0 960 252.4;" xml:space="preserve">
<g id="レイヤー_2">
</g>
<g id="レイヤー_1">
	<g>
		<g>
			<g>
				<path style="&st0;" d="M132.7,68l0-9.4c0-1-1-1.8-2.3-1.8l-62.3-0.1c-1.3,0-2.3,0.8-2.3,1.8l0,9.4l-42.6-0.1
					c0,0-0.2,101.5-0.3,109.4c0,7.9,10.5,53.7,76,73.2c65.6-19.2,76.3-65,76.4-72.9c0-7.9,0.3-109.4,0.3-109.4L132.7,68z
					 M126.9,61.2c1.4,0,2.5,0.9,2.5,2c0,1.1-1.1,2-2.5,2c-1.4,0-2.5-0.9-2.5-2C124.4,62.1,125.5,61.2,126.9,61.2z M115.9,61.2
					c1.4,0,2.5,0.9,2.5,2c0,1.1-1.1,2-2.5,2c-1.4,0-2.5-0.9-2.5-2C113.3,62.1,114.5,61.2,115.9,61.2z M102.3,63.1c0-1.1,1.1-2,2.5-2
					c1.4,0,2.5,0.9,2.5,2c0,1.1-1.1,2-2.5,2C103.4,65.1,102.3,64.3,102.3,63.1L102.3,63.1z M91.2,63.1c0-1.1,1.1-2,2.5-2
					c1.4,0,2.5,0.9,2.5,2c0,1.1-1.1,2-2.5,2C92.3,65.1,91.2,64.2,91.2,63.1L91.2,63.1z M82.7,61.1c1.4,0,2.5,0.9,2.5,2
					c0,1.1-1.1,2-2.5,2c-1.4,0-2.5-0.9-2.5-2C80.1,62,81.3,61.1,82.7,61.1z M71.6,61.1c1.4,0,2.5,0.9,2.5,2c0,1.1-1.1,2-2.5,2
					c-1.4,0-2.5-0.9-2.5-2C69.1,62,70.2,61.1,71.6,61.1z"/>
				<path style="&st0;" d="M56.7,24.9c0.4,0,0.7,0,1-0.1c-0.5,0.5-0.6,1.3-0.1,2.1c0.4,0.7,1.2,1.1,2.2,1.2c0.7,0.1,0.9-0.2,1.2,0.3
					c0.8,1.7,1.5,3.3,2.3,5c1.7,3.7,3.3,7.3,5,11c0.6,1.3,1.2,2.5,1.7,3.8c0.1,0.1,0.4,1.2,0.6,1.2c5.9,0,11.8,0,17.7,0
					c3.1,0,6.3,0,9.4,0c0.5,0,1.1,0,1.6,0c0,0,0-0.1,0-0.2c0,0.1,0,0.2,0,0.2c0.5,0,1.1,0,1.6,0c3.1,0,6.3,0,9.4,0
					c5.9,0,11.8,0,17.7,0c0.2,0,0.5-1,0.6-1.2c0.6-1.3,1.2-2.5,1.7-3.8c1.7-3.7,3.4-7.3,5.1-11c0.8-1.6,1.5-3.3,2.3-4.9
					c0.2-0.5,0.5-0.3,1.2-0.3c0.9-0.1,1.8-0.5,2.2-1.2c0.5-0.8,0.4-1.6-0.1-2.1c0.3,0.1,0.7,0.1,1,0.1c1.9,0,3.4-1.2,3.4-2.7
					c0-1.5-1.5-2.7-3.4-2.7c-1.9,0-3.4,1.2-3.4,2.7c0,0.6,0.3,1.2,0.7,1.7c-1.4-0.3-3.1,0.1-3.4,1.6c-0.1,0.6,0,1.2,0.5,1.7
					c0.4,0.4-0.3,0.8-0.7,1.1c-1.7,1.6-3.4,3.1-5.2,4.7c-2.6,2.3-5.2,4.7-7.8,7c0,0-0.1,0.1-0.1,0.1c-0.5-6.2-1-12.5-1.5-18.7
					c0-0.3,1-0.5,1.3-0.7c0.6-0.4,1-1.1,0.9-1.8c0-0.6-0.3-1.1-0.8-1.4c0.1,0,0.1,0,0.2,0c2.3,0,4.2-1.5,4.2-3.3
					c0-1.8-1.9-3.3-4.2-3.3c-2.3,0-4.2,1.5-4.2,3.3c0,1.1,0.7,2,1.7,2.6c-1.5,0.1-2.7,1.2-2.5,2.5c0.1,0.6,0.5,1,1,1.4
					c0.3,0.2-0.8,1.4-1,1.6c-3.3,4.7-6.6,9.4-9.9,14.1c-2.7-8.8-5.4-17.7-8.1-26.5c1.3-0.2,2.3-1.1,2.3-2.1c0-0.8-0.5-1.4-1.2-1.8
					c1.5-0.5,2.6-1.6,2.6-3c0-1.8-1.8-3.2-4.1-3.2c-2.3,0-4.1,1.4-4.1,3.2c0,1.4,1.1,2.5,2.6,3c-0.7,0.4-1.2,1.1-1.2,1.8
					c0,1.1,1,2,2.3,2.1c-2.7,8.8-5.5,17.6-8.2,26.4c-3.3-4.7-6.5-9.4-9.8-14.1c-0.2-0.2-1.2-1.4-1-1.6c0.5-0.4,0.9-0.8,1-1.4
					c0.3-1.3-0.9-2.4-2.5-2.5c1-0.6,1.7-1.5,1.7-2.6c0-1.8-1.9-3.3-4.2-3.3c-2.3,0-4.2,1.5-4.2,3.3c0,1.8,1.9,3.3,4.2,3.3
					c0.1,0,0.1,0,0.2,0c-0.5,0.4-0.8,0.9-0.8,1.4c0,0.7,0.3,1.3,0.9,1.8c0.3,0.2,1.3,0.4,1.3,0.7c-0.5,6.2-1,12.5-1.6,18.7
					c0,0-0.1-0.1-0.1-0.1c-2.6-2.4-5.2-4.7-7.7-7.1c-1.7-1.6-3.4-3.1-5.1-4.7c-0.4-0.4-1.1-0.7-0.7-1.1c0.4-0.5,0.6-1.1,0.5-1.7
					c-0.4-1.5-2-2-3.4-1.6c0.5-0.5,0.7-1,0.7-1.6c0-1.5-1.5-2.7-3.4-2.7c-1.9,0-3.4,1.2-3.4,2.7C53.3,23.7,54.8,24.9,56.7,24.9z"/>
				<path style="&st0;" d="M68.7,51.6c-0.8,0-1.5,0.6-1.5,1.4c0,0.8,0.7,1.4,1.5,1.4l61.2,0.1c0.8,0,1.5-0.6,1.5-1.4
					c0-0.8-0.7-1.4-1.5-1.4L68.7,51.6z"/>
			</g>
			<g>
				<g>
					<g>
						<path style="&st0;" d="M36,173.4L36,173.4c-6.4,0-12.4-1.4-17.9-4.1c-6.3-2.9-11.5-7.4-15.4-13.3L0,152l12.2-7.8l0-11.4
							l9.2-8.1l-1.3,0c-1.9,0-4.2,1.1-6.8,3.2l-3,2.4l-10.2-8.5l20.3-27.1l9.4,0l0.7,2.6l34.1,0.1l0,12.5L50,123.3
							c3.9,2,7.3,4.7,10.3,8.1c3.1,3.7,4.7,8.1,4.7,13.1c-0.3,8-3.3,14.9-8.9,20.4C50.7,170.3,44,173.1,36,173.4L36,173.4z
							 M39.9,152.2c1.5,0.3,2.9,0.3,4.4,0.1c-3.4-2.6-7-4.5-10.8-5.8c-1.6-0.5-3.3-0.9-4.9-1.2C31.7,148.7,35.4,151,39.9,152.2z"/>
					</g>
				</g>
				<g>
					<g>
						<path style="&st1;" d="M16.9,135l16.9-14.9l-13.6,0c-3,0-6.3,1.4-9.7,4.2L6.6,121l16.2-21.7l3.6,0c0.4,1.5,1.5,2.4,3.2,2.6
							l30.5,0.1l0,5.8L41.2,125c6.3,1.5,11.4,4.7,15.5,9.4c2.4,2.8,3.5,6.2,3.5,10.1c-0.2,6.7-2.7,12.4-7.5,17.1
							c-4.5,4.5-10.2,6.9-16.9,7.1c-5.6,0-10.9-1.2-15.9-3.6c-5.6-2.6-10.1-6.5-13.6-11.7l15.2-9.7c4.1,6.7,9.8,11,17.1,13
							c3.2,0.7,6.5,0.5,9.7-0.6c2.4-1.3,2.8-3,1.3-5.2c-4.5-4.1-9.5-7-14.9-8.8c-6-2-12.1-2.5-18.1-1.7L16.9,135z"/>
						<path style="&st0;" d="M36,173.4L36,173.4c-6.4,0-12.4-1.4-17.9-4.1c-6.3-2.9-11.5-7.4-15.4-13.3L0,152l12.2-7.8l0-11.4
							l9.2-8.1l-1.3,0c-1.9,0-4.2,1.1-6.8,3.2l-3,2.4l-10.2-8.5l20.3-27.1l9.4,0l0.7,2.6l34.1,0.1l0,12.5L50,123.3
							c3.9,2,7.3,4.7,10.3,8.1c3.1,3.7,4.7,8.1,4.7,13.1c-0.3,8-3.3,14.9-8.9,20.4C50.7,170.3,44,173.1,36,173.4L36,173.4z
							 M39.9,152.2c1.5,0.3,2.9,0.3,4.4,0.1c-3.4-2.6-7-4.5-10.8-5.8c-1.6-0.5-3.3-0.9-4.9-1.2C31.7,148.7,35.4,151,39.9,152.2z"/>
					</g>
				</g>
			</g>
			<g>
				<g>
					<g>
						<g>
							<path style="&st0;" d="M127.4,250.6c-2.2,0-5.2-0.3-7.4-0.5c-1-0.1-1.9-0.2-2.4-0.2c-0.1,0-7.8-0.6-9.7-2.7
								c-1.8-2-0.5-4.6,0.4-6.4c0.1-0.3,0.3-0.6,0.4-0.8c0.1-0.3,0.4-0.9,0.7-1.7c-1.1,0.2-2.1,0.2-2.7,0.2c-0.3,0-0.6,0-0.9,0
								c-2.1-0.1-3.7-0.9-4.8-1.8c-0.5-0.1-1.1-0.3-1.9-0.5c-0.8-0.3-3.5-0.7-5.8-1.1l-5.3,0c-0.4,0.2-1,0.4-1.7,0.6
								c-0.5,0.1-1,0.2-1.5,0.2c-1.1,0-1.9-0.4-2.4-0.7c-0.1,0-0.2-0.1-0.3-0.1c-0.2,0.1-0.4,0.2-0.6,0.3c-0.6,0.3-1.4,0.7-2.4,1.1
								c-1,0.4-2,0.9-2.9,1.4c-1.3,0.7-2.4,1.3-3.7,1.6c-1.6,0.5-3.3,0.1-4.4-1c-1.6-1.7-1.5-4.2-1.4-6.3c0.2-3.8,4.7-6.8,8.4-8.6
								c1.2-0.6,2.1-1.8,2.9-3c0.2-0.3,0.5-0.6,0.7-0.9c1.9-2.4,5.8-3.8,7.9-3.9l0.3,0c2.6,0,4.6,2.2,6,6.8c0,0.1,0,0.1,0.1,0.2
								c1.2-0.1,2.9-0.5,3.4-0.8c1.1-0.9,2.5-1.2,5.2-1.2c0.5,0,1,0,1.5,0c0.1-0.3,0.1-0.7,0.2-1c-1.2-0.4-2.2-0.7-3-1.6
								c-1-1.1-1.4-2.3-1.2-3.5c0.2-1.3,1-2.2,1.7-2.8c0.3-0.4,0.6-1.4,0.6-1.8c0-0.8,0.3-1.6,0.6-2.2c0,0,0,0,0-0.1
								c0,0-0.1-0.1-0.1-0.1c-0.9-0.5-2.7-1.7-2.7-3.8c-0.1-0.2-0.2-0.7-0.4-1.2c-0.5-1.3-1.2-3.3-2-6.5c-1.6-6.1,2.8-10.8,4.4-12.6
								c0.1-0.1,0.2-0.2,0.2-0.2c0.6-1.4,1.8-2.7,2.6-3.6c0-0.2-0.1-0.4-0.1-0.6c-0.1-0.6-0.2-1.2-0.1-1.8c0.1-2.7,0.4-4.3,0.8-5.3
								c-0.2-0.4-0.4-1-0.6-1.4l-0.4-0.8l0-0.8c0-0.5,0-2.9,0-4.8c0-2.7,0-4.5,0.1-5c0,0,0.3-4.6,2.2-6.8c0.1-0.7,0-2.2,0-2.8l0-0.1
								c-0.1-2.2,1.1-7.1,2.2-9.1c0.6-1,3.5-8,4.5-10.3l0.5-1.2c0.7-1.7,1.2-4.6,1.3-5.6c0.1-2,1.9-5.8,3-6.8c0.7-0.6,1.6-1,2.6-1
								c1,0,1.9,0.4,2.3,0.7l2,1.1l0.3,1.4c1,4.3,2,9.8,1.3,12.1c-0.6,2-2.1,3.4-3.1,4.4c-0.2,0.2-0.5,0.5-0.7,0.7
								c-0.4,1.2-0.8,5.6-0.9,7.3c0,0.1,0,0.2,0,0.4c0.6-0.1,1.2-0.2,1.7-0.2c3.4,0.2,5.8,2.9,6.8,5.5c0.5,1.2,0.5,3,0.2,5.5
								c0.4,1,0.3,2.1-0.1,3c0,0.2,0,0.4,0,0.6c0,0.5-0.1,0.9-0.3,1.3c0.5,0.1,0.8,0.1,1,0.2c1.5,0.2,2.9,1,3.8,1.6
								c0.5,0,1,0.1,1.6,0.2c0.1-0.6,0.2-1,0.2-1.2c0-0.8,0.3-1.5,0.6-2.1l-0.3-0.1l0.4-0.2c0.1-0.2,0.2-0.3,0.3-0.4
								c0-0.4,0.1-0.9,0.3-1.3c0-0.7,0.1-1.5,0.4-2.2c-0.2-0.8-0.3-1.7-0.3-2.3c-0.2-0.3-0.5-0.7-0.6-0.9c-0.9-1-1.2-2.6-0.6-3.9
								c0.2-0.4,0.5-0.8,0.8-1.2c-0.1-0.3-0.1-0.7-0.1-1.1c0-0.7,0.3-1.4,0.6-2c0-0.6,0.2-1.2,0.6-1.8c0.4-0.6,1.2-1.4,2.7-1.6
								l0.5,0c0.3,0,0.6,0,0.9,0.1c0.1,0,0.1,0,0.2,0l0.2,0c2.7,0.1,3.8,3.6,4,4.2c0,0.1,0,0.1,0.1,0.2c1.3-0.3,2.9,0.1,3.8,1.2
								c1.6,1.8,0.7,4.4-0.6,5.7c-0.2,0.3-0.5,1-0.6,1.4c0,0.2-0.1,0.3-0.1,0.5c-0.2,0.8-0.4,2.2-1.4,3.3c0,0,0,0,0,0
								c0.5,0.7,0.6,1.5,0.6,1.8c0,0.2,0,0.4,0,0.5c0.6,2,0.6,4.7,0.3,8.2l0,0.2c0,0.8-0.4,1.6-0.8,2.2c-0.1,0.7-0.3,1.7-0.6,2.5
								c-0.8,1.9-2.8,3.9-5.2,3.9l0,0l-0.2,0c-0.1,0-0.2,0-0.3,0c-0.4,0-1.1,0-2.5,0.4c-0.5,0.1-1.1,0.2-1.8,0.2
								c-1,0-2.1-0.1-3.1-0.3c0,0.8,0,1.8,0,2.4c0,0.8,0,1.6,0,2.2c-0.1,2.7-1.5,6.3-2.8,8.6c-0.2,0.4-0.4,0.7-0.5,1
								c0.9,0.9,1.6,2,1.9,3.1c0.1,0.6,0.5,1.8-1,4.3c1.1,1.5,2.4,3.4,2.8,4.6c1,2.8-1.6,7.8-3.9,11.6c-0.3,0.5-0.8,1.2-0.9,1.5
								c-0.1,1.2-0.5,4-1.5,6.2c-0.5,1.2-1.9,4.5-2.7,6.5c0.1,0.3,0.1,0.6,0.1,0.8c0,0.3-0.1,2.7-0.1,4.2c0.4,0.8,0.5,1.7,0.6,2.2
								c0.1,0.4,0.2,0.9,0.3,1.4c0.1,0.6,1,1.5,1.9,1.8c1.5,0.6,4.4,1.8,5.8,4.5c2.2,4.2-1.5,6.4-2.6,7.2
								C130.9,250.4,129.6,250.6,127.4,250.6z M114.3,243.1c1.2,0.3,2.6,0.5,3.6,0.5c0.6,0,1.5,0.1,2.6,0.2c1.9,0.2,4.5,0.4,6.4,0.4
								c-0.3-0.1-0.5-0.2-0.7-0.3c-2.2-0.9-5-3.1-5.7-6.3c-0.1-0.3-0.1-0.7-0.2-1l-0.9,0l0.1-3.1c0-0.6,0-1.6,0.1-2.5l-0.8,0
								c-0.2,4-0.9,4.7-1.5,5.3c-0.6,1.6-2.1,5.3-2.7,6.4C114.5,242.9,114.4,243,114.3,243.1z M105.1,231.9c0.2,0.1,0.5,0.3,1.1,0.3
								c1,0,1.9,0,2.3-0.1l0.3-0.1c0.9-0.4,2-1.1,2.4-1.5c0.6-1.4,1.6-3.8,1.6-3.8l6.1,1.3c0,0.1,0,0.2,0,0.3l0.6-1.5
								c0.1-0.3,2.6-6.5,3.4-8.3c0.6-1.2,0.9-3.2,0.9-4c0.1-1.8,1-3.2,1.9-4.6c1.2-1.9,2.8-5.1,3.2-6.3c-0.5-0.9-1.8-2.8-3.1-4.4
								l-1.6-2l1.6-2c0.2-0.3,0.4-0.6,0.6-0.8l-2.5-0.1l0.5-3.4c0-0.3,0.4-2.5,1.9-5.2c1.2-2.1,1.9-4.6,2-5.8c0-0.5,0-1.2,0-1.9
								c0-3.5,0-5.4,1.2-6.7c0,0,0,0,0,0l0.7-3.2l3.2,0.8c1.1,0.3,3.2,0.7,4.4,0.7c0.2,0,0.3,0,0.3,0c1.2-0.3,2.2-0.4,3-0.5l-3-0.7
								c-1-0.2-2.9-0.6-3.7-0.6l-1.5,0.5l-1.4-1.3c-0.4-0.4-1.1-0.8-1.4-0.9l-0.2,0l-0.3-0.1c0,0-1.3-0.3-2.6-0.3
								c-0.7,0-1,0.1-1,0.1l-0.7,0.3l-0.8-0.1c-0.9-0.1-2-0.7-2.7-1.8l0,0l0,0c-0.1-0.1-0.1-0.2-0.2-0.4c-0.2-0.5-0.7-1.9,0.3-3.6
								c0.1-0.3,0.2-1.2,0.1-1.8l-0.1-3.8l1.6,0.3l0-0.1c0.2-1.3,0.4-2.8,0.4-3.4c-0.4-0.8-1-1.3-1.2-1.4c-0.9,0.1-3,1.5-3.5,2.3
								l0,0l0,0c0,0,0,0,0,0c0,0,0,0,0,0l-6.2-1.3c0-0.2,0.1-0.5,0.2-0.7c1.1-4,1.7-6.7,1.8-7.2c0,0,0-0.8,0.1-2
								c-0.7,1.5-1.1,2.5-1.4,3c-0.5,0.9-1.4,4.4-1.3,5.4l0,0.1c0.1,2.3,0.3,5.4-1.5,7.2c-0.3,0.6-0.7,2.3-0.8,3c0,0.5,0,2.9,0,4.8
								c0,1.9,0,3.3,0,4.2c1,2,1.7,4.4,0.4,6.1c-0.1,0.5-0.3,1.7-0.3,3c0,0.1,0.1,0.4,0.1,0.6c0.2,1.4,0.5,3.9-1.3,5.5
								c-0.6,0.5-1.4,1.4-1.7,1.9c-0.2,0.9-0.8,1.5-1.5,2.2c-1.3,1.4-3.7,4-3,6.7c0.8,2.9,1.4,4.8,1.9,6c0.3,0.7,0.5,1.3,0.6,1.8
								c0.6,0.4,1.3,0.9,2,1.6c2,2.2,1,4.9,0.5,6.1c-0.1,0.2-0.1,0.3-0.2,0.4c-0.1,1-0.4,2.4-1,3.7c1.6,0.6,3.3,1.7,3.2,4.1
								c0,0.7-0.2,2.3-0.6,3.9c-0.3,1.4-1.1,5-4.4,5l-0.2,0c-0.1,0-0.3,0-0.5,0c-0.7,0-1.6-0.1-2.6-0.1c-0.8,0-1.3,0-1.5,0.1
								c-1.3,0.9-3.3,1.4-5,1.7c2.1,0.3,4.7,0.8,5.9,1.2c0.9,0.3,1.4,0.4,1.6,0.5l1.9-0.1L105.1,231.9z M86.3,222.5
								c-0.9,0.3-1.9,0.8-2.2,1.2c-0.2,0.2-0.4,0.5-0.6,0.8c-1.1,1.6-2.7,3.7-5.3,5c-1.9,0.9-3.3,1.9-4.2,2.6c0.9-0.5,1.9-1,3-1.4
								c0.6-0.2,1.2-0.5,1.7-0.8c1-0.5,2.2-1.2,3.7-1.2c0.7,0,1.4,0.1,2,0.4c0.3,0.1,0.6,0.3,0.8,0.4c0.5-0.2,0.9-0.4,0.9-0.4
								l0.6-0.3l2.2,0l0-0.1l-1.3-0.2l-0.2-2.5c0-0.2-0.1-0.8-0.3-1.4C86.8,223.7,86.5,223,86.3,222.5z M101.3,184.3
								c0,0.1,0,0.3-0.1,0.4C101.3,184.6,101.3,184.4,101.3,184.3z M142.7,161c-0.1,1.5-0.7,4-0.8,4.8l-0.6,3.1c0.2,0,0.3,0,0.5,0
								c0,0,0,0,0-0.1c0.1-0.2,0.1-0.8,0.1-1.2l0-1.2l0.8-0.8C142.9,163.1,142.8,161.7,142.7,161L142.7,161z"/>
							<path style="&st0;" d="M127.4,252.4c-2.3,0-5.3-0.3-7.5-0.5c-1.1-0.1-1.9-0.2-2.3-0.2c-0.1,0-8.4-0.5-10.9-3.2
								c-2.5-2.8-0.9-6.2,0-8.2c-0.3,0-0.6,0-0.9,0c-2-0.1-3.9-0.8-5.5-1.9c-0.5-0.1-1-0.3-1.6-0.5c-0.5-0.2-2.3-0.5-5.4-1l-4.9,0
								c-0.4,0.2-0.9,0.3-1.5,0.5c-2,0.6-3.6,0.1-4.6-0.3c-0.6,0.3-1.4,0.7-2.3,1.1c-0.9,0.4-1.9,0.8-2.8,1.3
								c-1.3,0.7-2.6,1.3-4,1.8c-2.2,0.7-4.6,0.1-6.1-1.5c-2.1-2.2-1.9-5.3-1.8-7.6c0.2-3.7,3.3-7.1,9.4-10.1
								c0.8-0.4,1.5-1.4,2.3-2.4c0.2-0.3,0.5-0.7,0.7-0.9c2.2-2.9,6.7-4.4,9.1-4.6l0.3,0c0,0,0,0,0,0c4.3,0,6.4,4.3,7.3,6.8
								c0.6-0.1,1.1-0.3,1.3-0.4c0.8-0.6,1.9-1,3.2-1.2c-1.2-1.4-1.7-3.1-1.5-4.8c0.3-1.7,1.2-2.9,2-3.6c0.1-0.2,0.2-0.7,0.3-0.9
								c0-0.5,0.1-1,0.2-1.5c-1-0.8-2.3-2.2-2.5-4.3c-0.1-0.2-0.2-0.5-0.3-0.8c-0.5-1.4-1.2-3.5-2.1-6.7c-1.9-7,3.2-12.5,4.8-14.3
								l0,0c0.5-1,1.2-2.1,2.3-3.2c-0.1-0.6-0.1-1.2-0.1-1.8c0.1-2.2,0.3-3.9,0.7-5.2c-0.1-0.2-0.2-0.4-0.3-0.6l-0.4-0.8
								c-0.1-0.3-0.2-0.6-0.2-0.9l0-0.8c0-0.4,0-2.5,0-4.3l0-0.4c0-2.8,0-4.5,0.1-5.1c0,0,0.3-4.6,2.3-7.4c0-0.4,0-1-0.1-2
								c-0.2-2.7,1.1-7.9,2.4-10.1c0.2-0.3,1.1-2.1,4.4-10.1l0.5-1.2c0.6-1.5,1.1-4.1,1.1-5c0.1-2.3,2.1-6.7,3.6-8.1
								c1-0.9,2.4-1.4,3.8-1.4c1.5,0,2.6,0.6,3.2,0.9l2,1.1c0.4,0.2,0.7,0.7,0.8,1.1l0.3,1.4c2.2,9.8,1.5,12.2,1.2,13
								c-0.8,2.5-2.4,4.1-3.6,5.1c-0.1,0.1-0.2,0.2-0.3,0.3c-0.2,1-0.5,3.2-0.6,4.9c4.2,0.2,7,3.5,8.3,6.5c0.6,1.4,0.7,3.4,0.3,6.1
								c0.3,1.2,0.3,2.4-0.2,3.6c0,0,0,0.1,0,0.1c1.1,0.2,2.1,0.7,2.9,1.2c0.1-0.3,0.1-0.6,0.2-0.9c0-0.1,0-0.3,0-0.4
								c0-0.6,0.3-1.1,0.8-1.4c0-0.3,0.1-0.5,0.2-0.7c0-0.7,0.1-1.4,0.3-2c-0.1-0.5-0.2-1-0.2-1.6c-0.1-0.1-0.2-0.3-0.3-0.4
								c-1.4-1.5-1.7-3.8-0.8-5.7c0.2-0.3,0.3-0.7,0.6-1c0-0.2,0-0.4,0-0.6c0-0.9,0.3-1.7,0.7-2.4c0.1-0.8,0.4-1.5,0.8-2.2
								c0.9-1.3,2.2-2.1,3.9-2.3l0.6,0c0.5,0,0.8,0,1.2,0.1c0,0,0,0,0,0l0.3,0c2.6,0.1,4.3,2.2,5.2,4.4c1.5,0.1,2.9,0.8,3.9,1.8
								c2.2,2.4,1.4,5.9-0.5,8c-0.1,0.2-0.3,0.6-0.4,0.8c0,0.1,0,0.1,0,0.2c-0.2,0.8-0.4,2.1-1.1,3.3c0.3,0.7,0.3,1.3,0.3,1.7
								c0,0.1,0,0.3,0,0.4c0.5,1.9,0.6,4.5,0.3,8.5l0,0.2c0,0.9-0.3,1.8-0.9,2.7c-0.1,1-0.4,1.8-0.7,2.6c-1.1,2.4-3.6,4.9-6.8,4.9
								l-0.4,0c-0.3,0-0.8,0-2.1,0.3c-1,0.2-2.1,0.3-3.6,0.1c0,0.2,0,0.3,0,0.5c0,0.9,0,1.7,0,2.2c-0.2,3.2-1.7,6.9-2.9,9.2
								c0.7,0.9,1.2,1.9,1.5,2.9c0.2,0.6,0.5,2.1-0.7,4.6c1.2,1.7,2,3.1,2.4,4.2c1,2.8-0.3,7.1-4.1,13.1c-0.1,0.2-0.5,0.7-0.6,1
								c-0.1,1.5-0.6,4.3-1.6,6.5c-0.4,0.8-1.2,2.9-2.5,6c0,0.2,0,0.5,0,0.7c0,0.3-0.1,2.3-0.1,3.8c0.3,0.9,0.5,1.7,0.6,2.3
								c0.1,0.4,0.1,0.8,0.3,1.3c0,0,0.4,0.4,0.9,0.6c1.6,0.6,5,2,6.7,5.3c1.1,2.1,2.1,6.1-3.3,9.5
								C131.3,252.2,129.6,252.4,127.4,252.4z M109.5,236.6c0.5,0,1,0.2,1.4,0.7c0.4,0.5,0.5,1.2,0.2,1.8c-0.3,0.8-0.6,1.4-0.8,1.8
								c-0.1,0.3-0.3,0.6-0.4,0.9c-1.1,2.3-1.5,3.5-0.7,4.5c0.9,1,5.6,1.9,8.5,2.1c0.5,0,1.3,0.1,2.3,0.2c2.1,0.2,5.2,0.5,7.3,0.5
								c1.8,0,2.9-0.2,3.5-0.5c2.5-1.5,3-2.9,2-4.9c-1.1-2.2-3.5-3.1-4.9-3.7c-1.2-0.5-2.7-1.7-3-3.1c-0.1-0.5-0.2-1-0.3-1.4
								c-0.1-0.6-0.2-1.3-0.5-1.9c-0.1-0.2-0.2-0.5-0.2-0.7c0-1.5,0.1-3.9,0.1-4.2c0-0.1,0-0.3,0-0.4c-0.1-0.3,0-0.7,0.1-1
								c0.9-2.4,2.2-5.5,2.7-6.6c0.9-2,1.2-4.5,1.3-5.6c0-0.1,0-0.3,0.1-0.4c0.1-0.4,0.5-1,1.1-2c4.4-6.9,4-9.4,3.8-10
								c-0.2-0.5-0.8-1.7-2.6-4.2c-0.4-0.6-0.5-1.3-0.1-1.9c1.1-1.9,0.9-2.7,0.8-3c-0.2-0.8-0.7-1.6-1.4-2.2c-0.5-0.5-0.7-1.3-0.4-2
								c0.2-0.4,0.3-0.8,0.6-1.2c1.2-2.1,2.4-5.4,2.6-7.8c0-0.6,0-1.3,0-2.1c0-0.7,0-1.7,0-2.5c0-0.5,0.3-1,0.6-1.3
								c0.4-0.3,0.9-0.4,1.4-0.4c1.9,0.3,3.2,0.4,4.2,0.2c1.6-0.4,2.4-0.4,2.9-0.4l0.5,0c1.5,0,2.9-1.5,3.5-2.8
								c0.2-0.5,0.4-1.2,0.5-2c0-0.3,0.1-0.5,0.3-0.8c0.3-0.5,0.5-0.9,0.5-1.3l0-0.3c0.2-2.5,0.4-5.6-0.3-7.5
								c-0.1-0.2-0.1-0.5-0.1-0.8c0-0.1,0-0.2,0-0.3c0-0.1,0-0.5-0.3-0.9c-0.2-0.3-0.3-0.6-0.3-1c0-0.4,0.1-0.8,0.4-1.1
								c0.6-0.8,0.8-1.8,1-2.5c0.1-0.3,0.1-0.5,0.1-0.7c0.2-0.6,0.6-1.5,0.8-1.8c0.1-0.1,0.1-0.2,0.2-0.3c0.7-0.8,1.4-2.3,0.5-3.3
								c-0.5-0.5-1.4-0.8-2.1-0.6c-0.9,0.2-1.9-0.3-2.1-1.3l0-0.2c-0.3-1-1.1-2.9-2.4-3l-0.2,0c-0.2,0-0.4,0-0.6-0.1
								c-0.1,0-0.3-0.1-0.4-0.1l-0.4,0c-0.5,0.1-1,0.3-1.3,0.8c-0.2,0.2-0.3,0.5-0.3,0.9c0,0.3-0.1,0.7-0.3,0.9
								c-0.2,0.3-0.3,0.7-0.3,1.1c0,0.2,0,0.4,0.1,0.6c0.1,0.6,0,1.2-0.5,1.6c-0.2,0.2-0.3,0.4-0.4,0.6c-0.3,0.7-0.2,1.5,0.2,2
								c0.2,0.3,0.6,0.8,0.8,1.1c0.2,0.3,0.3,0.6,0.3,0.9c0,0.7,0.1,1.4,0.3,1.8c0.1,0.4,0.1,0.8-0.1,1.2c-0.2,0.4-0.3,0.9-0.2,1.5
								c0,0.2,0,0.5-0.1,0.7c-0.1,0.2-0.2,0.5-0.2,0.7c0,0.3-0.1,0.6-0.3,0.9c-0.1,0.1-0.1,0.2-0.2,0.3c0,0,0,0.1-0.1,0.1
								c0,0,0,0.1,0,0.1c-0.2,0.4-0.4,0.9-0.4,1.4c0,0.2-0.1,0.8-0.2,1.4c-0.2,0.9-1,1.6-2,1.4c-0.5-0.1-1-0.1-1.4-0.1
								c-0.3,0-0.7-0.1-0.9-0.3c-0.8-0.5-1.9-1.2-3-1.3c-0.1,0-0.1,0-0.2,0c-0.2,0-0.5-0.1-1-0.2c-0.5-0.1-1-0.4-1.3-0.9
								c-0.3-0.5-0.3-1-0.1-1.5c0.1-0.2,0.1-0.5,0.2-0.7c0-0.2,0-0.3,0-0.5c0-0.3,0.1-0.5,0.2-0.8c0.2-0.5,0.3-1.1,0-1.7
								c-0.1-0.3-0.1-0.6-0.1-0.9c0.4-2.9,0.2-4.1,0-4.6c-0.9-2.1-2.7-4.3-5.3-4.4c-0.5,0-0.9,0-1.2,0.1c-0.6,0.1-1.1,0-1.6-0.4
								c-0.4-0.4-0.6-0.9-0.6-1.5c0-0.1,0-0.2,0-0.3c0.1-1.5,0.5-6.1,1-7.7c0.1-0.3,0.2-0.5,0.4-0.7c0.2-0.2,0.5-0.5,0.7-0.7
								c1-0.9,2.2-2.1,2.7-3.7c0.2-0.5,0.6-3-1.3-11.2l-0.1-0.6l-1.3-0.7c-0.2-0.1-0.8-0.4-1.4-0.4c-0.5,0-1,0.2-1.4,0.5
								c-0.7,0.7-2.4,4.1-2.5,5.6c-0.1,1.2-0.6,4.2-1.4,6.2l-0.5,1.2c-3.5,8.3-4.3,10-4.6,10.5c-0.9,1.6-2.1,6.2-1.9,8.1
								c0.1,1.2,0.1,2.5,0,3.2c-0.1,0.3-0.2,0.6-0.4,0.8c-1.3,1.5-1.8,4.8-1.8,5.8c0,0.5,0,2.4,0,4.9l0,0.4c0,1.9,0,4,0,4.4l0,0.4
								l0.2,0.3c0.2,0.5,0.5,1.1,0.7,1.6c0.2,0.4,0.1,0.8,0,1.2c-0.4,0.9-0.6,2.5-0.7,4.7c0,0.4,0,0.9,0.1,1.4l0.1,0.6
								c0.1,0.5-0.1,1.1-0.5,1.4c-1.1,1.1-1.9,2.2-2.3,3c0,0.1-0.1,0.2-0.1,0.3c0,0.1,0,0.2,0,0.2c0,0.1,0,0.1,0,0.2
								c-0.1,0.9-0.8,1.6-1.7,1.6c-1.7,2.2-3.7,5.5-2.7,9.4c0.8,3.1,1.5,5.1,2,6.4c0.2,0.6,0.4,1,0.4,1.3c0,0.1,0.1,0.3,0.1,0.4
								c0,1.1,0.9,1.8,1.9,2.4c0.7,0.5,1.1,1.5,0.8,2.2c-0.2,0.6-0.4,1.1-0.4,1.7c0,0.7-0.5,2.1-0.9,2.8c-0.1,0.1-0.1,0.2-0.2,0.3
								c-0.7,0.7-1.1,1.2-1.1,1.8c-0.1,0.5-0.1,1.2,0.8,2.1c0.5,0.5,1.2,0.8,2.3,1.1c0.8,0.3,1.3,1.1,1.2,2
								c-0.1,0.4-0.1,0.7-0.2,1.1c-0.2,0.8-0.9,1.4-1.8,1.4c-0.4,0-0.9,0-1.4,0c-2.7,0-3.6,0.4-4,0.8c-0.1,0.1-0.2,0.2-0.3,0.2
								c-0.8,0.4-2.7,0.9-4.1,1c-0.8,0-1.5-0.5-1.8-1.2l-0.1-0.2c-1.2-3.7-2.7-5.6-4.4-5.6l-0.2,0c-1.7,0.1-5.1,1.3-6.5,3.2
								c-0.2,0.3-0.4,0.6-0.6,0.9c-0.9,1.3-2,2.8-3.6,3.5c-4.7,2.3-7.3,4.8-7.4,7.1c-0.1,1.8-0.2,3.9,0.9,5c0.6,0.7,1.6,0.9,2.6,0.6
								c1.1-0.3,2.2-0.9,3.4-1.5c1-0.5,2-1.1,3.1-1.5c0.9-0.3,1.6-0.7,2.2-1c0.2-0.1,0.5-0.2,0.7-0.3c0.5-0.2,1.1-0.2,1.5,0l0.3,0.1
								c0.8,0.4,1.4,0.7,2.6,0.4c0.6-0.2,1.1-0.4,1.5-0.5c0.2-0.1,0.4-0.1,0.6-0.1l5.3,0c0.1,0,0.2,0,0.3,0c1.8,0.3,5,0.8,6.1,1.1
								c0.7,0.2,1.2,0.4,1.7,0.5c0.2,0.1,0.5,0.2,0.7,0.3c0.6,0.5,1.9,1.3,3.8,1.4c0.3,0,0.5,0,0.8,0c0.6,0,1.5,0,2.4-0.2
								C109.3,236.6,109.4,236.6,109.5,236.6z M127,246C127,246,127,246,127,246c-2,0-4.6-0.3-6.5-0.4c-1.1-0.1-2-0.2-2.6-0.2
								c-1.4-0.1-3.2-0.4-3.9-0.6c-0.5-0.1-1-0.5-1.2-0.9c-0.2-0.5-0.2-1,0-1.5l0.2-0.4c0.4-0.8,1.3-3.1,2.6-6.3
								c0.1-0.2,0.3-0.5,0.4-0.6c0.3-0.3,0.7-0.7,0.9-4.1c0-0.5,0.3-1,0.7-1.3c0,0-0.1-0.1-0.1-0.1l-3.8-0.8c-0.3,0.8-0.7,1.7-1,2.4
								c-0.1,0.2-0.2,0.4-0.4,0.6c-0.6,0.6-1.9,1.4-2.9,1.8l-0.3,0.1c-0.1,0.1-0.3,0.1-0.4,0.1c-0.3,0.1-1.3,0.2-2.7,0.1
								c-1,0-1.7-0.4-2-0.7c-0.3-0.2-0.5-0.5-0.6-0.9l-0.5,0c-0.2,0-0.3,0-0.5,0c-0.2,0-0.8-0.2-1.8-0.5c-0.5-0.2-1.9-0.5-5.6-1.1
								c-0.8-0.1-1.5-0.9-1.5-1.7c0-0.9,0.6-1.6,1.5-1.7c1.8-0.3,3.4-0.8,4.3-1.4c0.2-0.1,0.5-0.2,0.7-0.3c1-0.1,3.2-0.1,4.5,0
								l0.7,0c1.2,0,2-1.1,2.6-3.7c0.3-1.4,0.5-3,0.5-3.6c0-0.8-0.2-1.6-2.1-2.4c-0.4-0.2-0.8-0.5-1-1c-0.2-0.4-0.2-0.9,0-1.4
								c0.5-1.2,0.8-2.4,0.9-3.1c0-0.1,0-0.3,0.1-0.4c0-0.1,0.1-0.3,0.1-0.4c0.6-1.6,1-3.2-0.1-4.4c-0.5-0.6-1.1-1-1.7-1.3
								c-0.4-0.2-0.7-0.6-0.8-1.1c-0.1-0.5-0.3-1-0.5-1.7c-0.4-1.2-1.1-3.1-1.9-6.2c-1-3.6,2-6.8,3.4-8.3c0.6-0.6,1-1,1.1-1.5
								c0.1-0.2,0.1-0.4,0.2-0.5c0.4-0.5,1.2-1.6,1.9-2.2c1.1-1,1-2.4,0.7-4c0-0.2-0.1-0.6-0.1-0.7c0-0.1,0-0.2,0-0.2
								c0.1-1.3,0.2-2.6,0.4-3.3c0.1-0.2,0.1-0.4,0.3-0.6c0.6-0.8,0.4-2.2-0.6-4.3c-0.1-0.2-0.2-0.5-0.2-0.8c0-0.8,0-2,0-3.7l0-0.5
								c0-1.9,0-4.4,0-4.8c0-0.9,0.5-2.9,0.9-3.7c0.1-0.2,0.2-0.3,0.3-0.4c1.3-1.3,1.1-4,1-5.9c-0.1-1.5,0.9-5.4,1.5-6.5
								c0.2-0.4,0.7-1.4,1.3-2.8c0.3-0.8,1.2-1.2,2-1c0.8,0.2,1.4,1,1.3,1.8c-0.1,1.1-0.1,1.9-0.1,1.9c-0.1,0.9-0.8,3.9-1.5,6.5
								l3.4,0.7c1.1-1,2.8-2,3.8-2.2c0.3,0,0.5,0,0.8,0.1c1.3,0.4,2.2,2.1,2.2,2.3c0.1,0.2,0.2,0.4,0.2,0.7c0.1,0.9-0.2,2.6-0.4,3.8
								c-0.2,0.8-0.8,1.4-1.6,1.5l0,1.8c0,0.7-0.1,1.7-0.2,2.2c0,0.2-0.1,0.3-0.2,0.5c-0.5,0.9-0.4,1.6-0.2,2c0,0.1,0.1,0.1,0.1,0.2
								c0,0,0,0,0,0c0.3,0.6,1,0.9,1.4,0.9l0.4,0l0.3-0.1c0.2-0.1,0.7-0.2,1.6-0.2c1.3,0,2.8,0.3,3.1,0.4l0,0c0.2,0,0.3,0,0.5,0.1
								c0.7,0.2,1.6,0.9,2,1.3l0.6,0.6l0.5-0.2c0.2-0.1,0.4-0.1,0.7-0.1c1.1,0,3.3,0.5,4,0.7l1.4,0.3l0.3-1.4
								c0.3-1.5,0.7-3.5,0.8-4.7c0.1-0.6,0.4-1,0.8-1.3c0.5-0.3,1.2-0.3,1.7-0.1c0.5,0.3,0.9,0.8,1,1.3c0.1,1.2,0.1,2.9,0,5
								c0,0.4-0.2,0.8-0.5,1.1l-0.3,0.3l0,0.6c0,0.3-0.1,1.2-0.2,1.7c0,0.1,0,0.1-0.1,0.2c0,0.1-0.1,0.2-0.2,0.3
								c-0.3,0.5-0.8,0.8-1.4,0.8c-0.1,0-0.3,0-0.4,0c0,0-0.1,0-0.1,0c0,0-0.1,0-0.1,0c-0.8,0.1-1.6,0.2-2.8,0.5c-0.1,0-0.1,0-0.2,0
								c0,0-0.2,0-0.6,0c-1.5,0-4-0.6-4.8-0.8l-1.4-0.4l-0.3,1.5h0c0,0.1-0.1,0.2-0.1,0.3c-0.1,0.2-0.2,0.4-0.3,0.5
								c-0.7,0.7-0.7,2.2-0.8,5.5c0,0.8,0,1.5,0,2c-0.1,1.7-1,4.4-2.2,6.6c-1.4,2.4-1.7,4.5-1.7,4.6l-0.2,1.5l0.6,0
								c0.6,0,1.2,0.4,1.5,1c0.3,0.6,0.2,1.2-0.1,1.8c-0.2,0.3-0.5,0.7-0.7,0.9l-0.7,0.9l0.7,0.9c1.3,1.7,2.7,3.6,3.3,4.6
								c0.2,0.4,0.3,0.9,0.2,1.3c-0.4,1.6-2.1,4.9-3.4,6.8c-0.8,1.2-1.5,2.4-1.6,3.7c0,0.8-0.4,3.1-1.1,4.6
								c-0.8,1.8-3.3,8.2-3.3,8.3l-0.6,1.5c-0.1,0.2-0.2,0.3-0.3,0.5c0.7,0.3,1.1,0.9,1.1,1.7l-0.1,4.1c0.4,0.2,0.8,0.7,0.9,1.2
								c0.1,0.3,0.1,0.6,0.2,0.9c0.6,2.4,2.8,4.3,4.7,5.1c0.2,0.1,0.5,0.2,0.7,0.3c0.8,0.3,1.2,1.2,1,2
								C128.5,245.5,127.8,246,127,246z M116.8,241.8c0.5,0.1,0.9,0.1,1.2,0.1c0.6,0,1.5,0.1,2.7,0.2c0.1,0,0.1,0,0.2,0
								c-0.9-1.1-1.6-2.4-2-3.8c-0.2-0.1-0.4-0.2-0.5-0.3C117.9,239.2,117.3,240.7,116.8,241.8z M106.5,230.5c0.7,0,1.2,0,1.5-0.1
								l0,0c0.7-0.3,1.3-0.7,1.7-1c0.6-1.4,1.4-3.4,1.4-3.4c0.3-0.8,1.2-1.2,2-1l4.7,1c0.4-1.1,2.6-6.5,3.3-8.2
								c0.4-1,0.7-2.7,0.7-3.4c0.1-2.2,1.2-3.9,2.1-5.4c1-1.5,2.2-3.9,2.7-5.2c-0.6-0.9-1.5-2.2-2.6-3.5l-1.6-2
								c-0.5-0.6-0.5-1.6,0-2.2l0.3-0.3c-0.2-0.1-0.4-0.2-0.5-0.4c-0.3-0.4-0.5-0.9-0.4-1.4l0.5-3.4c0.1-0.5,0.5-2.9,2.1-5.8
								c1.1-1.9,1.7-4.1,1.8-5c0-0.5,0-1.1,0-1.8c0-3.6,0-5.8,1.4-7.5l0.6-2.8c0,0,0-0.1,0-0.1c-0.6-0.1-1.7-0.1-1.9-0.1l-0.7,0.2
								c-0.3,0.1-0.6,0.1-0.8,0.1l-0.8-0.1c-1.5-0.2-2.9-1.1-3.8-2.4c-0.1-0.1-0.2-0.2-0.2-0.4c-0.1-0.1-0.1-0.3-0.2-0.4
								c-0.3-0.7-0.9-2.7,0.2-4.9c0-0.3,0.1-0.7,0.1-1.2l-0.1-3.8c0-0.5,0.2-1,0.6-1.4c0.4-0.3,0.8-0.5,1.3-0.4
								c0-0.3,0.1-0.5,0.1-0.8c-0.6,0.4-1.2,0.8-1.4,1.1c0,0,0,0,0,0c-0.5,0.7-1.3,1-2.1,0.7l-4.4-1c-0.1,1.7-0.6,3.4-1.8,4.7
								c-0.2,0.5-0.5,1.7-0.5,2.1c0,0.5,0,2.8,0,4.7l0,0.5c0,1.4,0,2.5,0,3.3c0.7,1.4,1.9,4.6,0.3,7.1c-0.1,0.5-0.2,1.3-0.2,2.3
								c0,0.1,0,0.3,0.1,0.4c0.2,1.6,0.7,4.8-1.9,7.1c-0.4,0.4-1,1-1.3,1.4c-0.4,1.1-1.1,1.9-1.8,2.6c-1.1,1.1-3,3.3-2.6,5
								c0.8,2.9,1.4,4.7,1.8,5.9c0.2,0.5,0.3,0.9,0.4,1.3c0.5,0.4,1.2,0.9,1.8,1.5c2.7,3,1.3,6.7,0.9,7.9c0,0-0.1,0.2-0.1,0.2l0,0
								c-0.1,0.8-0.3,1.7-0.5,2.5c2.3,1.5,2.8,3.5,2.7,5c0,0.9-0.3,2.6-0.6,4.2c-0.9,4-2.7,6.1-5.4,6.4c0.3,0.2,0.5,0.5,0.6,0.9
								L106.5,230.5z M74,233.8c-0.6,0-1.1-0.3-1.4-0.8c-0.5-0.7-0.4-1.7,0.3-2.3c1.1-1,2.8-2,4.5-2.9c2.2-1.1,3.6-2.9,4.6-4.4
								c0.2-0.3,0.4-0.6,0.6-0.8c0.8-1,2.7-1.7,3.1-1.8c0.8-0.3,1.7,0.1,2.1,0.9c0.2,0.5,0.6,1.3,1,2.4c0.3,0.8,0.3,1.7,0.3,1.8
								l0.1,1.2c0.9,0.2,1.5,0.9,1.4,1.8c0,0.9-0.8,1.8-1.7,1.8l-1.8,0l-0.3,0.1c-0.1,0-0.5,0.2-1.1,0.4c-0.4,0.1-0.9,0.1-1.3-0.1
								c-0.2-0.1-0.4-0.2-0.7-0.3c-0.4-0.2-0.9-0.3-1.3-0.3c-1,0-1.9,0.5-2.8,1c-0.5,0.3-1.1,0.6-1.9,0.9c-1,0.4-2,0.9-2.8,1.3
								C74.6,233.8,74.3,233.8,74,233.8z M83.7,227.1c0.5,0.1,1,0.2,1.4,0.5c0.1,0,0.1,0.1,0.2,0.1c0.1,0,0.1,0,0.1-0.1l0.4-0.2
								l-0.1-1.3c0-0.1-0.1-0.6-0.2-0.9c0-0.1-0.1-0.3-0.1-0.4c0,0,0,0,0,0c-0.1,0.1-0.2,0.3-0.4,0.5
								C84.6,225.9,84.2,226.5,83.7,227.1z"/>
						</g>
					</g>
					<g>
						<g>
							<path style="&st0;" d="M127.4,136.8c-0.2,0-0.4,0-0.5,0c-3.2-0.1-6.1-1.5-8.2-3.9c-2.1-2.3-3.2-5.4-3.1-8.5
								c0.3-6.5,5.8-11.5,12.4-11.2c3.2,0.2,6.1,1.5,8.2,3.9c2.1,2.3,3.2,5.4,3.1,8.5C138.9,131.9,133.8,136.8,127.4,136.8z
								 M127.5,119.5c-2.9,0-5.3,2.3-5.5,5.2c-0.1,1.5,0.4,2.9,1.4,3.9c1,1.1,2.3,1.7,3.8,1.8c3.1,0.1,5.6-2.2,5.7-5.2
								c0.1-1.5-0.4-2.9-1.4-3.9c-1-1.1-2.3-1.7-3.8-1.8C127.6,119.5,127.5,119.5,127.5,119.5z"/>
							<path style="&st0;" d="M127.4,138.6c-0.2,0-0.4,0-0.6,0c-3.6-0.2-6.9-1.7-9.4-4.4c-2.4-2.7-3.7-6.1-3.5-9.8
								c0.4-7.5,6.6-13.3,14.2-12.9c3.6,0.2,6.9,1.7,9.4,4.4c2.4,2.7,3.7,6.1,3.5,9.8C140.6,132.9,134.7,138.6,127.4,138.6z
								 M127.5,114.9c-5.4,0-9.8,4.2-10,9.6c-0.1,2.7,0.8,5.3,2.6,7.3c1.8,2,4.3,3.2,7,3.3c0.2,0,0.3,0,0.5,0
								c5.4,0,9.8-4.2,10.1-9.6c0.1-2.7-0.8-5.3-2.6-7.3c-1.8-2-4.3-3.2-7-3.3C127.8,114.9,127.6,114.9,127.5,114.9z M127.4,132.2
								L127.4,132.2l-0.3,0c-1.9-0.1-3.7-0.9-5-2.4c-1.3-1.4-2-3.3-1.9-5.2c0.2-3.9,3.4-6.9,7.2-6.9l0.3,0c1.9,0.1,3.7,0.9,5,2.4
								c1.3,1.4,2,3.3,1.9,5.2C134.5,129.2,131.3,132.2,127.4,132.2z M127.5,121.3c-2,0-3.6,1.6-3.7,3.5c0,1,0.3,1.9,1,2.7
								c0.7,0.7,1.6,1.2,2.6,1.2l0.2,0c2,0,3.6-1.6,3.7-3.5c0-1-0.3-1.9-1-2.7c-0.7-0.7-1.6-1.2-2.6-1.2L127.5,121.3z"/>
						</g>
					</g>
					<g>
						<g>
							<g>
								<path style="&st0;" d="M81.1,234.1c-0.9,0-3.9-0.3-4.4-4l0-0.1c-0.4-1.7,0.7-3.2,2.7-5.4c0.9-1,1.6-1.6,2.2-2.1
									c0.1-0.9,0.3-2.2,0.3-2.8c-0.1-0.5,0-0.9,0-1.4c-0.7-1.6-1.1-3.8-1.4-5.1l-0.3-1.5c-1.6-3.4-4.7-10.3-5.2-11.3
									c-0.1-0.3-0.6-0.9-1-1.4c-0.8-1.1-1.9-2.5-2.7-4.2c-1.2-2.6-0.7-6.5-0.3-8.8c-0.2-0.7-0.3-1.4-0.1-2.1
									c-0.1-0.2-0.3-0.4-0.6-0.7c-1.8-2.1-3.3-7.2-3.9-9.6c-0.6-0.1-1.3-0.3-2-0.8c-1.6-1-2.8-3.3-4.3-6.4c-0.3-0.5-0.5-1-0.7-1.3
									c-0.7-1.3-0.8-2.5-0.8-3.2c0-0.4,0-0.4-0.1-0.5c-0.8-1.6-0.8-4-0.6-8.6c0-1.7,0.1-3.5,0.1-4.9c-0.1-3.8,1.2-7.4,1.9-9
									c-0.1-0.9-0.5-2.7-0.7-3.4c-0.1-0.3-0.1-0.6-0.2-0.8c-0.3-0.7-1.6-2.7-2.3-3.6c-2-2.3-2.1-6.6-2.1-6.7c0-0.5-0.4-2-0.7-3.4
									c-0.1-0.6-0.2-1.1-0.4-1.8c-0.5-2.5-0.3-6.5,0-9.6l0-0.4c0-0.3-0.1-0.9-0.2-1.6c-0.7-0.5-1.3-1.3-1.6-2.7l0-0.1
									c-0.2-1,0-2.1,0.7-2.9c0-0.1,0.1-0.1,0.1-0.2c-0.2-0.6-0.2-1.2-0.1-1.8c0.3-1.5,1.6-2.8,3.1-3.2c0.6-0.1,1.2-0.1,1.8,0.1
									c0.9-0.1,1.9,0.1,2.6,0.6c0.8,0.5,1.5,1,2.6,6c0.4-1.6,0.8-2.9,0.9-3.5c-0.1-1.2,0.4-2,0.8-2.4c0.6-0.8,1.6-1.2,2.7-1.2
									c1,0,1.9,0.4,2.3,0.7c0.7,0.5,1.2,0.9,2.9,4.7c0.9,2,0.5,4.5,0.2,6.5c-0.1,0.4-0.1,0.7-0.1,1c0.3,1.2,2.3,4.7,3.1,6.2
									c0.3,0.6,0.6,1.1,0.8,1.5c1.2,2.3,3.6,7.9,3.8,9.2c0.1,0.5,0.6,1.6,1.1,2c2,1.3,3,4.3,3.5,6.2c1.4,1.4,2.5,3.5,2.9,5.7
									c0.5,2.5-0.7,5-1.6,6.4c0.1,3.9,0.2,6.3,0.1,7.2c0.6,0.7,1.4,2.1,3.2,6.4L90,162l-0.2,0.3c0.7,1.5,1.3,4.3,2.1,9.7
									c0.1,0.4,0.1,0.6,0.1,0.8c0.3,1.3-0.3,2.3-0.9,3.5c-0.2,0.4-0.6,1.2-0.9,1.7c1.3,2.5,2.3,7,2.3,7l0.6,2.8l-0.1,0.1
									c0.7,1.1,2,2.7,2.6,3.4c0.4,0.1,1,0.2,1.5,0.3c2,0.4,4.2,0.9,5.8,1.9c1.2,0.8,3.8,2.7,5.6,4l4,1.5c0.7-0.3,1.6-0.6,2.1-0.9
									c0.7-0.3,1.7-0.7,2.8-0.7c1,0,2.5,0.3,3.8,1.8c1.9,2.1,2,5.9,1.5,7.9c0,0.2,0.2,0.9,0.3,1.3c0.1,0.4,0.2,0.9,0.3,1.3
									c0.3,1.3,0.1,9.3-1,11c-0.7,1-1.8,1.7-3.1,1.7c-1.8,0-3.5-1.3-4-3c-0.2-0.4-0.8-1.5-1.2-2.3c-0.4-0.8-0.8-1.6-1.2-2.2
									c-0.6-1.2-2.8-3.6-3.3-4.1c-0.3-0.2-0.6-0.5-0.8-0.8c-0.9-0.3-2.1-0.8-3.9-1.6l-1.4-0.7l-0.1-0.4
									c-3.2-1.1-10.7-3.6-13.6-4.6c0.5,2.2,0.9,4.8,1.3,7l0.3,0.5c0.5,0.9,0.9,2.5,1.3,4.8c0.1,0.1,0.1,0.2,0.2,0.4
									c0.1,0.1,0.3,0.3,0.4,0.4c1.3,0.8,3.4,3.4,4.3,4.8c0.8,1.3,1,2.8,0.4,4.2c-0.8,2-2.9,3.1-4.6,3.4c-0.2,0.1-0.9,0.7-1.3,1.1
									c-0.4,0.4-0.9,0.8-1.5,1.3c-1.9,1.5-4.8,2.8-7.7,3.4C82.1,234.1,81.6,234.1,81.1,234.1z M88.2,220.3c0,1.2-0.2,2.9-0.5,4.2
									c0.9-0.8,1.9-1.7,3.1-2.2c-0.5-0.6-1-1.1-1.2-1.3c-0.2-0.1-0.6-0.5-1.1-0.9l-0.2,0.1L88.2,220.3z M114.1,206.4
									c0.8,0.7,1.8,1.8,2.7,3c-0.3-1.1-0.5-2.4-0.1-3.8c0.1-0.3,0.1-0.9,0-1.3c-0.5,0.2-1.2,0.5-1.6,0.7L114.1,206.4z M81.5,199.5
									c0.5,1.1,1.2,2.7,2,4.4c-0.3-1.1-0.5-2-0.7-2.3c-0.2-0.4-0.6-1-1.1-1.6C81.7,199.7,81.6,199.6,81.5,199.5z M84.4,189.5
									c0.3,0.4,3.2,3.8,4.1,5.1c0.9,1.3,1.6,1.7,1.8,1.8c0.1,0,6,1.9,11,3.6c-0.7-0.5-1.2-0.9-1.6-1.1c-0.5-0.3-2.6-0.7-3.5-0.9
									c-1.7-0.3-2.8-0.6-3.7-1.2c-1.3-0.9-5.3-6-5.7-7.8c-0.2-0.7-0.1-1.4,0-1.9l-0.2-0.8c-0.2-1.2-1.3-4.7-1.8-5.5
									c-1.7-2.6,0-5.7,1-7.6c0-0.1,0.1-0.1,0.1-0.2c0,0,0,0,0,0c-0.9-6-1.4-7.6-1.6-8.1c-0.6-1.1-1.2-2.1-1.1-3.2
									c-0.6-1.4-1.3-2.8-1.6-3.4c-1.2-1.2-1.7-3.2-1.5-4.7c0-0.7-0.1-4.4-0.2-7.5l0-1.2l0.7-0.9c0.5-0.7,1.1-1.8,1-2.2
									c-0.3-1.5-1.1-2.5-1.4-2.7l-1.1-0.7l-0.2-1.3c-0.2-1.3-0.8-2.8-1.1-3.3c-2.3-1.6-3.4-4.3-3.7-5.8c-0.1-0.4-0.6-1.5-1.1-2.8
									l-2.5,0.7c-0.4,0.1-0.9,0.3-1.2,0.5c0,0.1-0.1,0.1-0.1,0.2c-0.1,0.1-0.1,0.2-0.2,0.3c0,0.4,0,0.8,0,0.9l-0.2,4.2l-4-1.3
									c-0.4-0.1-0.9-0.4-1.5-0.9c0.9,1.3,1.8,2.9,2,4c0,0.2,0.1,0.4,0.2,0.7c0.7,3,1,4.7,0.8,6l-0.1,0.5l-0.2,0.4
									c0,0-1.7,3.5-1.6,6.7c0,1.6,0,3.4-0.1,5.2c-0.1,2-0.1,4.9,0,5.8c0.6,1.2,0.6,2.2,0.7,2.8c0,0.1,0,0.3,0,0.4
									c0.2,0.4,0.5,1,0.8,1.6c0.4,0.9,1.4,2.9,2,3.7c3.1,0.2,4.2,2.1,4.5,3.7c0.5,2.2,2.1,7.1,2.8,8c0.7,0.8,2.3,2.6,2.3,4.7
									l0.5,0.3l-0.5,2.2c-0.6,2.3-0.7,5.1-0.4,5.9c0.5,1.1,1.2,2,1.9,2.9c-0.4-1-0.5-1.8-0.3-2.7c0.1-0.3,0.1-0.5,0.1-0.5
									c0,0.1,0,0.2,0,0.2L84.4,189.5z M64.5,115.8c0.5,2.4,0.8,4.1,0.8,5c0,0.1,0,0.1,0,0.2c0.1-0.1,0.2-0.2,0.4-0.2
									c-0.2-1-0.5-2-0.5-2.3C65,117.3,64.7,116.4,64.5,115.8z"/>
								<path style="&st0;" d="M81.1,235.9c-2.5,0-5.6-1.5-6.1-5.5c-0.6-2.7,1.2-4.8,3.1-6.9c0.7-0.7,1.3-1.3,1.8-1.8
									c0.1-0.7,0.1-1.4,0.2-1.8c0-0.4,0-0.8,0-1.2c-0.6-1.6-1.1-3.6-1.3-5l-0.2-1.3c-1.6-3.5-4.6-10.1-5.1-11.1
									c-0.1-0.2-0.6-0.8-0.8-1.1c-0.9-1.2-2-2.6-2.9-4.5c-1.3-2.8-1-6.6-0.5-9.4c-0.1-0.6-0.2-1.1-0.1-1.7c0,0,0,0,0-0.1
									c-1.7-2-3.1-6-4-9.3c-0.6-0.2-1.1-0.4-1.6-0.8c-1.9-1.3-3.3-3.7-4.9-7.1l-0.1-0.2c-0.2-0.4-0.4-0.8-0.5-1.1
									c-0.9-1.7-1-3.1-1.1-3.9l0,0c-0.9-1.9-0.8-4.4-0.7-9.2c0-1.7,0.1-3.5,0.1-4.8c-0.1-3.8,1-7.3,1.8-9.3
									c-0.2-0.9-0.5-2.3-0.6-2.7l-0.1-0.6c-0.3-0.6-1.4-2.3-2-3c-2.2-2.6-2.5-7-2.6-7.8c0-0.4-0.4-2.1-0.6-3.1l-0.4-1.8
									c-0.6-2.7-0.3-6.9,0-10.1l0-0.4c0,0,0-0.1-0.1-0.5c-0.8-0.8-1.4-1.9-1.7-3.3c-0.3-1.4,0-2.8,0.7-4c-0.1-0.6-0.1-1.1,0-1.7
									c0.4-2.3,2.2-4.1,4.4-4.6c0.8-0.2,1.6-0.1,2.3,0c1.2-0.1,2.5,0.3,3.4,0.9c0.5,0.4,1,0.7,1.4,1.3c0.2-0.4,0.4-0.6,0.6-0.8
									c1-1.2,2.5-1.9,4-1.9c1.5,0,2.7,0.6,3.2,1c1.2,0.8,1.8,1.6,3.6,5.4c1.1,2.5,0.7,5.3,0.4,7.4c0,0.2-0.1,0.4-0.1,0.5
									c0.3,0.9,1.3,2.7,2.9,5.6c0.3,0.6,0.6,1.1,0.9,1.6c1.2,2.3,3.7,8.1,4,9.6c0.1,0.2,0.3,0.8,0.5,0.9c2.2,1.4,3.4,4.4,4,6.7
									c1.5,1.6,2.6,3.9,3.1,6.2c0.6,2.9-0.6,5.6-1.5,7.2c0.1,3,0.1,5,0.1,6.1c0.6,0.9,1.5,2.6,3,6.2l0.7,1.6
									c0.1,0.3,0.2,0.7,0.1,1c0.6,1.7,1.2,4.4,1.9,9.4c0.1,0.4,0.1,0.6,0.1,0.7c0.4,1.9-0.4,3.3-1.1,4.6c-0.1,0.2-0.3,0.5-0.5,0.9
									c1.2,2.8,2.1,6.7,2.1,6.7l0.6,2.8c0.6,0.8,1.3,1.8,1.8,2.4c0.3,0.1,0.6,0.1,0.9,0.2c2.1,0.4,4.6,0.9,6.4,2.1
									c1.1,0.7,3.6,2.5,5.5,3.9l3.1,1.2c0.5-0.2,1-0.4,1.4-0.6c0.8-0.4,2.1-0.9,3.5-0.9c1.4,0,3.4,0.4,5.1,2.4
									c2.3,2.6,2.5,6.8,2,9.2c0.1,0.2,0.1,0.5,0.2,0.7c0.1,0.5,0.3,0.9,0.4,1.4c0.2,1.2,0.3,9.9-1.2,12.4c-1,1.5-2.7,2.5-4.6,2.4
									c-2.6,0-4.9-1.7-5.6-4.1c-0.2-0.4-0.8-1.6-1.1-2.1c-0.4-0.8-0.9-1.6-1.2-2.3c-0.5-0.9-2.3-3-2.9-3.5
									c-0.3-0.2-0.5-0.4-0.7-0.6c-1-0.4-2.2-0.9-3.6-1.5l-1.4-0.7c-0.3-0.1-0.5-0.3-0.7-0.6c-2.5-0.9-6.8-2.3-10-3.4
									c0.2,1.2,0.4,2.4,0.6,3.8l0.1,0.2c0.6,1,1.1,2.7,1.4,5c1.5,1,3.8,3.9,4.7,5.2c1.1,1.8,1.3,3.9,0.5,5.8
									c-1,2.5-3.5,3.8-5.5,4.4c-0.3,0.2-0.7,0.6-0.9,0.8c-0.5,0.4-1,0.9-1.6,1.4c-2.1,1.7-5.3,3.1-8.4,3.8
									C82.4,235.8,81.7,235.9,81.1,235.9z M56.4,98.8c-0.1,0-0.3,0-0.4,0c-0.8,0.2-1.6,0.9-1.7,1.8c-0.1,0.3,0,0.6,0.1,0.9
									c0.2,0.6,0,1.3-0.4,1.7c-0.4,0.5-0.5,1-0.4,1.6c0.2,0.9,0.5,1.4,0.9,1.7c0.4,0.3,0.6,0.7,0.7,1.1c0.2,0.9,0.2,1.6,0.2,2
									l0,0.4c-0.3,2.8-0.6,6.8-0.1,9.1l0.4,1.7c0.4,1.9,0.7,3.1,0.7,3.7c0.1,1.3,0.5,4.2,1.7,5.7c0.8,1,2.3,3.1,2.6,4
									c0,0.1,0.1,0.2,0.1,0.3l0.2,0.7c0.3,1.1,0.6,2.7,0.7,3.6c0,0.3,0,0.6-0.1,0.9c-0.6,1.3-1.9,4.7-1.8,8.2c0,1.4,0,3.2,0,4.9
									c-0.1,4.1-0.1,6.7,0.4,7.8c0.2,0.4,0.2,0.7,0.3,1.2c0,0.6,0.1,1.4,0.6,2.4c0.2,0.3,0.4,0.7,0.6,1.2l0.1,0.2
									c1.3,2.8,2.5,4.9,3.7,5.7c0.4,0.3,0.9,0.4,1.4,0.5c0.7,0.1,1.2,0.6,1.4,1.3c1.1,4.3,2.5,7.6,3.6,8.9
									c0.3,0.3,0.5,0.6,0.7,0.8c0.3,0.4,0.4,0.9,0.3,1.4c-0.1,0.4-0.1,0.8,0.1,1.1c0.1,0.3,0.1,0.6,0.1,0.9
									c-0.6,3.3-0.6,6.1,0.2,7.7c0.7,1.6,1.7,2.8,2.5,3.9c0.6,0.8,1,1.3,1.2,1.7c0.5,1,3.6,7.9,5.2,11.3c0.1,0.1,0.1,0.3,0.1,0.4
									l0.3,1.5c0.2,1.1,0.7,3.3,1.3,4.8c0.1,0.3,0.2,0.6,0.1,0.9c0,0.3-0.1,0.6,0,0.9c0,0.1,0,0.1,0,0.2c0,0.7-0.1,2.1-0.3,3.1
									c-0.1,0.4-0.3,0.8-0.6,1.1c-0.5,0.4-1.2,1.1-2,1.9c-2.1,2.2-2.4,3.1-2.2,3.8c0,0,0,0.2,0,0.2c0.2,1.7,1.1,2.5,2.7,2.5
									c0.4,0,0.8,0,1.2-0.1c2.5-0.5,5.2-1.7,6.9-3.1c0.5-0.4,1-0.8,1.4-1.2c1-1,1.5-1.3,1.9-1.5c0.1,0,0.2-0.1,0.3-0.1
									c1.2-0.2,2.8-1,3.4-2.4c0.4-0.8,0.3-1.7-0.3-2.5c-0.9-1.3-2.9-3.7-3.8-4.3c-0.3-0.2-0.6-0.5-0.7-0.6
									c-0.1-0.1-0.2-0.3-0.3-0.4c0-0.1-0.1-0.1-0.1-0.2c-0.1-0.2-0.2-0.5-0.3-0.7c-0.4-2.7-0.8-3.8-1-4.2l-0.3-0.5
									c-0.1-0.2-0.2-0.4-0.2-0.6c-0.4-2.7-0.8-5-1.2-6.8c-0.1-0.6,0.1-1.2,0.5-1.7c0.5-0.4,1.1-0.6,1.7-0.4
									c3,0.9,10.6,3.5,13.7,4.6c0.4,0.1,0.7,0.4,0.9,0.8l0.7,0.3c1.5,0.7,2.7,1.2,3.7,1.5c0.3,0.1,0.6,0.3,0.8,0.6
									c0.1,0.2,0.3,0.3,0.5,0.5c0.1,0,0.1,0.1,0.1,0.1c0.7,0.6,2.9,3.1,3.7,4.6c0.4,0.7,0.8,1.5,1.2,2.2c0.6,1,1.1,2,1.3,2.4
									c0,0.1,0.1,0.2,0.1,0.2c0.3,1,1.3,1.7,2.3,1.7c0.7,0,1.3-0.3,1.7-0.9c0.7-1.2,1-8.4,0.8-9.7c-0.1-0.4-0.2-0.8-0.3-1.2
									c-0.3-1-0.4-1.5-0.3-1.9c0-0.1,0-0.2,0-0.3c0.4-1.6,0.3-4.7-1.1-6.3c-0.7-0.8-1.6-1.2-2.5-1.2c-0.8,0-1.5,0.3-2.1,0.5
									c-0.6,0.3-1.5,0.6-2.2,0.9c-0.4,0.2-0.8,0.2-1.2,0l-4-1.5c-0.1-0.1-0.3-0.1-0.4-0.2c-2.7-2-4.6-3.4-5.5-3.9
									c-1.3-0.8-3.3-1.2-5.1-1.6c-0.5-0.1-1.2-0.2-1.6-0.4c-0.3-0.1-0.6-0.3-0.8-0.5c-0.7-0.8-2-2.5-2.8-3.7
									c-0.2-0.4-0.3-0.8-0.3-1.2l-0.5-2.4c-0.2-1.1-1.2-4.7-2.2-6.6c-0.2-0.4-0.3-1-0.1-1.4c0.2-0.6,0.6-1.3,0.9-1.9
									c0.6-1.1,0.9-1.6,0.7-2.3c0-0.1-0.1-0.4-0.1-0.7c-0.8-5.4-1.4-8.1-2-9.4c-0.1-0.3-0.2-0.7-0.1-1l-0.4-0.9
									c-0.9-2.2-2.2-5.1-2.9-5.9c-0.3-0.3-0.5-0.8-0.4-1.3c0-0.5,0-2.2-0.1-7c0-0.4,0.1-0.7,0.3-1c0.7-1.1,1.7-3.1,1.3-5.1
									c-0.4-1.9-1.3-3.7-2.5-4.9c-0.2-0.2-0.4-0.5-0.5-0.8c-0.6-2.5-1.6-4.4-2.8-5.2c-1.2-0.8-1.8-2.6-1.9-3.1
									c-0.2-1-2.5-6.5-3.7-8.7c-0.2-0.4-0.5-0.9-0.8-1.5c-1.5-2.7-2.9-5.4-3.3-6.6c-0.1-0.2-0.1-0.5-0.1-0.7
									c0-0.2,0.1-0.5,0.1-0.9c0.3-1.9,0.6-4.1-0.1-5.6c-1.6-3.5-2-3.8-2.3-4c-0.2-0.1-0.7-0.4-1.3-0.4c-0.5,0-1,0.2-1.3,0.6
									c-0.2,0.2-0.4,0.6-0.4,1.2c0,0.1,0,0.3,0,0.4c-0.1,0.8-0.6,2.4-0.9,3.6c-0.2,0.8-0.9,1.3-1.7,1.3c0,0,0,0,0,0
									c-0.8,0-1.5-0.6-1.7-1.3c-1-4.4-1.5-4.7-1.9-5c-0.4-0.3-1-0.4-1.5-0.3c-0.2,0-0.5,0-0.7-0.1C56.8,98.9,56.6,98.8,56.4,98.8z
									 M87.6,226.3c-0.3,0-0.6-0.1-0.9-0.2c-0.7-0.4-1-1.2-0.8-1.9c0.3-1.2,0.4-2.8,0.5-3.9c0-0.3,0.1-0.6,0.2-0.8
									c0.2-0.5,0.7-0.9,1.2-1l0.2,0c0.6-0.1,1.1,0.1,1.6,0.5c0.4,0.4,0.8,0.7,0.9,0.7c0.6,0.4,1.3,1.3,1.5,1.6
									c0.4,0.4,0.5,1,0.4,1.5c-0.1,0.5-0.5,1-1,1.2c-0.9,0.4-1.7,1.1-2.6,1.9C88.5,226.1,88.1,226.3,87.6,226.3z M116.8,211.1
									c-0.5,0-1-0.2-1.4-0.7c-0.8-1-1.8-2.1-2.5-2.8c-0.6-0.6-0.7-1.5-0.3-2.2l1-1.5c0.2-0.3,0.5-0.6,0.8-0.7
									c0.5-0.2,1.1-0.4,1.6-0.6c0.5-0.2,1.1-0.2,1.6,0.1c0.5,0.3,0.8,0.8,0.9,1.3c0,0.4,0.1,1.3-0.1,2c-0.3,1.1-0.1,2.1,0.1,2.9
									c0.2,0.8-0.2,1.6-0.9,2C117.3,211,117.1,211.1,116.8,211.1z M83.5,205.6c-0.7,0-1.3-0.4-1.6-1l-2-4.4
									c-0.4-0.8-0.1-1.8,0.7-2.2c0.8-0.4,1.8-0.2,2.3,0.5l0.3,0.4c0.5,0.7,0.9,1.3,1.1,1.7c0.2,0.5,0.5,1.1,0.9,2.9
									c0.2,0.9-0.3,1.7-1.1,2C83.9,205.6,83.7,205.6,83.5,205.6z M101.2,201.7c-0.2,0-0.4,0-0.6-0.1c-4.8-1.6-10.6-3.4-10.9-3.5
									c-0.8-0.3-1.8-1.1-2.7-2.4c-0.5-0.6-1.6-2.1-3.2-3.9l-3.5,1.7c0,0.4,0.1,0.7,0.3,1.2c0.3,0.8,0,1.7-0.8,2.2
									c-0.8,0.4-1.7,0.2-2.2-0.5c-0.7-0.9-1.5-2-2.1-3.3c-0.8-1.7,0-5.7,0.3-7l0.3-1.1c-0.2-0.3-0.3-0.6-0.3-0.9
									c0-1.4-1.3-2.9-1.9-3.6c-1.2-1.4-2.8-6.8-3.2-8.8c-0.3-1.5-1.2-2.2-2.9-2.3c-0.5,0-1-0.3-1.3-0.7c-0.6-0.8-1.4-2.4-2.2-4
									c-0.3-0.6-0.6-1.2-0.8-1.5c-0.1-0.2-0.1-0.3-0.2-0.5c0-0.1,0-0.3-0.1-0.6c0-0.6-0.1-1.3-0.5-2.3c-0.1-0.1-0.1-0.3-0.1-0.4
									c-0.2-1-0.2-3.3-0.1-6.1c0.1-1.8,0.1-3.6,0.1-5.1c-0.1-3.7,1.7-7.5,1.8-7.5l0.1-0.4c0.1-1-0.2-2.7-0.8-5.3l-0.2-0.8
									c-0.1-0.2-0.3-1.2-1.8-3.4c-0.5-0.7-0.4-1.7,0.3-2.3c0.7-0.6,1.7-0.6,2.3,0c0.3,0.3,0.6,0.4,0.9,0.5l1.8,0.6l0.1-1.9
									c0-0.1,0-0.4,0-0.7c0-0.4,0.1-0.8,0.3-1.1l0.3-0.4c0.2-0.2,0.4-0.4,0.6-0.6c0.4-0.2,1.1-0.5,1.6-0.6l2.5-0.7
									c0.8-0.2,1.7,0.2,2.1,1c0.4,1,1,2.4,1.2,3c0.3,1.2,1.2,3.6,3,4.9c0.2,0.1,0.3,0.2,0.4,0.4c0.7,0.9,1.2,2.9,1.4,4l0.1,0.6
									l0.5,0.3c0.7,0.5,1.7,1.9,2.1,3.8c0,0.1,0,0.1,0,0.2c0.1,1.2-1,2.9-1.4,3.4l-0.3,0.4l0,0.5c0.1,2.5,0.2,6.8,0.2,7.7
									c-0.1,1.1,0.2,2.6,1,3.4c0.1,0.1,0.2,0.2,0.3,0.4c0.5,0.9,1.4,2.9,1.7,3.5c0.1,0.3,0.2,0.6,0.1,0.9
									c-0.1,0.6,0.4,1.3,0.8,2.2c0.2,0.5,0.7,1.5,1.8,8.7c0.1,0.4,0,0.8-0.2,1.1l-0.1,0.2c-1.1,2.1-2.1,4.2-1.1,5.8
									c0.8,1.2,1.9,5.2,2.1,6.2l0.2,0.8c0,0.2,0,0.4,0,0.7c-0.1,0.4-0.1,0.8,0,1.2c0.3,1.3,3.9,6,5,6.7c0.6,0.4,1.6,0.6,3.1,0.9
									c2.5,0.5,3.5,0.8,4.1,1.2c0.4,0.3,1,0.7,1.7,1.2c0.7,0.5,0.9,1.4,0.5,2.2C102.5,201.3,101.8,201.7,101.2,201.7z M79.2,182.9
									c0.5,0.4,0.7,1.1,0.6,1.7l-0.5,2.2c-0.3,1.3-0.5,2.5-0.5,3.5c0,0,0.1,0,0.1,0l4.8-2.3c0.4-0.2,0.8-0.2,1.2-0.1
									c0-0.3,0-0.5,0-0.8l-0.1-0.5c-0.3-1.3-1.2-4.4-1.6-4.9c-2.2-3.3-0.4-6.9,0.7-9c-0.9-5.9-1.3-7-1.4-7.1
									c-0.5-1-1.2-2.2-1.2-3.6c-0.5-1.2-1-2.2-1.2-2.7c-1.4-1.5-2.1-3.8-1.9-5.9c0-0.5-0.1-3.9-0.2-7.3l0-1.2
									c0-0.4,0.1-0.8,0.4-1.1l0.7-0.9c0.3-0.3,0.5-0.8,0.6-1.1c-0.2-0.7-0.5-1.1-0.7-1.3l-1-0.6c-0.4-0.3-0.7-0.7-0.8-1.2
									l-0.2-1.3c-0.2-1-0.5-2-0.7-2.4c-2.3-1.8-3.7-4.6-4.1-6.6c0-0.1-0.2-0.5-0.4-1.1l-1,0.3c-0.1,0-0.1,0-0.2,0.1
									c0,0.1,0,0.1,0,0.2l-0.2,4.2c0,0.5-0.3,1.1-0.7,1.4c-0.4,0.3-1,0.4-1.5,0.2l-1.3-0.4c0,0.1,0,0.1,0,0.2l0.2,0.7
									c0.8,3.3,1.1,5.1,0.9,6.6l-0.1,0.5c0,0.2-0.1,0.4-0.2,0.5l-0.2,0.4c0,0-1.5,3.1-1.4,5.9c0.1,1.6,0,3.5-0.1,5.3
									c0,1.4-0.1,4.3,0,5.3c0.6,1.4,0.7,2.6,0.7,3.2c0.2,0.4,0.4,0.8,0.7,1.4c0.3,0.6,1,2,1.5,2.9c2.7,0.5,4.6,2.2,5.2,5
									c0.5,2.4,2,6.6,2.5,7.3C77.2,178.9,78.8,180.7,79.2,182.9z M65.4,122.8c-0.2,0-0.4,0-0.6-0.1c-0.5-0.2-0.9-0.6-1.1-1.2
									c-0.1-0.2-0.1-0.4-0.1-0.5c0-0.6-0.2-1.9-0.8-4.8c-0.2-0.9,0.4-1.8,1.3-2c0.9-0.2,1.8,0.3,2.1,1.1c0.3,0.8,0.5,1.8,0.8,2.9
									c0.1,0.3,0.3,1.3,0.5,2.3c0.2,0.7-0.1,1.5-0.8,1.9c-0.1,0.1-0.2,0.1-0.3,0.2C66.1,122.7,65.8,122.8,65.4,122.8z"/>
							</g>
						</g>
						<g>
							<g>
								<path style="&st0;" d="M94.1,132.8l-6-2.1c-0.1,0.3,0.1,0.9,0.4,1.1c-0.2-0.1-1.1-0.4-2.6-0.5c-0.6,0-1,0-1.1,0.1
									c-0.3,0.1-0.7,0.1-1,0.1c0,0,0,0,0,0c-2.2,0-3.9-1.3-5.3-2.4c-0.4-0.3-0.8-0.6-1.2-0.9c-0.6,0.3-1.2,0.4-1.8,0.4
									c-1.9,0-3.3-1.2-4-2.3l-1.1-1.8l2.5-3.3c0.1-0.1,0.3-0.4,0.4-0.6c0.8-1.3,2.3-3.8,5.4-3.8c0.2,0,0.3,0,0.5,0
									c3,0.3,4.2,2.8,4.8,4.2c0.1,0.3,0.3,0.7,0.4,0.8c0.6,0.4,1.8,0.7,2.8,1c2.4,0.6,5.3,1.4,6.7,4.1
									C94.8,128.6,94.9,130.6,94.1,132.8z"/>
								<path style="&st0;" d="M94.1,134.6c-0.2,0-0.4,0-0.6-0.1l-3.8-1.4c-0.6,0.5-1.4,0.6-2,0.2c-0.2-0.1-0.8-0.2-1.8-0.2
									c-0.4,0-0.7,0-0.8,0c-0.4,0.1-0.9,0.1-1.3,0.1c-2.8,0-4.8-1.6-6.4-2.8c-0.1-0.1-0.3-0.2-0.4-0.3c-0.5,0.1-1,0.2-1.5,0.2
									c-2.6,0-4.6-1.6-5.5-3.1l-1.1-1.8c-0.4-0.6-0.3-1.4,0.1-2l2.5-3.3c0.1-0.1,0.2-0.3,0.3-0.5c0.9-1.5,3.1-5.1,7.5-4.6
									c4,0.4,5.6,3.8,6.2,5.2c0,0.1,0.1,0.2,0.1,0.3c0.5,0.2,1.5,0.5,2,0.6c2.6,0.7,6,1.6,7.8,5c1.1,2.1,1.2,4.6,0.2,7.3
									C95.5,134.1,94.8,134.6,94.1,134.6z M88.1,129c0.2,0,0.4,0,0.6,0.1l4.2,1.5c0.1-1.1,0-2-0.4-2.8c-1-2-3.5-2.6-5.6-3.2
									c-1.5-0.4-2.6-0.7-3.4-1.2c-0.2-0.1-0.4-0.3-0.5-0.5c-0.1-0.2-0.4-0.7-0.5-1c-0.8-1.6-1.6-3-3.4-3.2c-0.1,0-0.2,0-0.3,0
									c-1.9,0-2.9,1.5-3.9,3c-0.2,0.3-0.4,0.6-0.5,0.8l-1.8,2.4l0.5,0.8c0.1,0.2,0.9,1.4,2.5,1.4c0.4,0,0.8-0.1,1.1-0.2
									c0.5-0.2,1.1-0.2,1.6,0.1c0.4,0.2,0.9,0.7,1.3,1c1.2,0.9,2.6,2,4.2,2c0.2,0,0.4,0,0.7-0.1c0.5-0.1,1.5-0.1,2.2-0.1
									c0.2-0.2,0.4-0.4,0.6-0.5C87.5,129,87.8,129,88.1,129z"/>
							</g>
						</g>
					</g>
					<g>
						<g>
							<path style="&st0;" d="M61.9,113.8c-4.5,0-8.4-3.2-9.4-7.6c-1.1-5.2,2.2-10.3,7.4-11.4c0.7-0.1,1.3-0.2,2-0.2
								c4.5,0,8.4,3.2,9.4,7.6c0.5,2.5,0,5.1-1.4,7.2c-1.4,2.1-3.6,3.6-6.1,4.1C63.2,113.7,62.6,113.8,61.9,113.8z M61.9,100.9
								c-0.2,0-0.5,0-0.7,0.1c-1.8,0.4-2.9,2.1-2.5,3.9c0.4,1.7,2.1,2.9,3.8,2.5c0.9-0.2,1.6-0.7,2.1-1.4c0.5-0.7,0.6-1.6,0.5-2.4
								C64.8,102,63.5,100.9,61.9,100.9z"/>
							<path style="&st0;" d="M61.9,115.5c-5.3,0-10-3.8-11.1-9c-1.3-6.1,2.7-12.1,8.8-13.4c0.8-0.2,1.6-0.2,2.4-0.2
								c5.3,0,10,3.8,11.1,9c0.6,3,0,6-1.6,8.5c-1.7,2.5-4.2,4.3-7.2,4.9C63.5,115.4,62.7,115.5,61.9,115.5z M62,96.3
								c-0.5,0-1.1,0.1-1.6,0.2c-4.2,0.9-7,5.1-6.1,9.3c0.8,3.6,4,6.2,7.7,6.2c0.5,0,1.1-0.1,1.6-0.2c2.1-0.4,3.8-1.6,5-3.4
								c1.1-1.8,1.5-3.9,1.1-5.9C68.9,99,65.6,96.3,62,96.3z M61.9,109.2L61.9,109.2c-2.4,0-4.4-1.7-4.9-4c-0.3-1.3,0-2.6,0.7-3.8
								c0.7-1.1,1.9-1.9,3.2-2.2c2.6-0.6,5.4,1.2,5.9,3.9c0.3,1.3,0,2.6-0.7,3.8c-0.7,1.1-1.9,1.9-3.2,2.2
								C62.6,109.1,62.3,109.2,61.9,109.2z M61.9,102.7c-0.1,0-0.2,0-0.3,0c-0.4,0.1-0.7,0.3-1,0.6c-0.2,0.3-0.3,0.7-0.2,1.1
								c0.2,0.8,1,1.3,1.8,1.2c0.4-0.1,0.7-0.3,1-0.7c0.2-0.3,0.3-0.7,0.2-1.1C63.3,103.2,62.6,102.7,61.9,102.7z"/>
						</g>
					</g>
				</g>
				<g>
					<g>
						<g>
							<path style="&st2;" d="M145.3,154.3c1-0.6,0.9-2,1.2-3c0.3-1,1-2.3,1.4-2.7c0.4-0.3,0.7-1.2,0.6-1.4
								c-0.2-0.2-0.8-0.5-1.3,0.2c-0.5,0.7-1.1,1.9-1.4,1.9c-0.3,0-0.7,0.1-0.7-0.5c0-0.5-0.4-1.5-0.6-1.8c-0.2-0.2-0.4-1.6-0.7-2.6
								c-0.3-1-0.9-1.9-1.1-1.9c-0.2,0-0.5,0.1-0.5,0.3c0,0-0.3-0.5-0.6-0.5c-0.4,0-0.5,0.2-0.5,0.4c0.1,0.2,0.6,1.5,0.7,2.2
								c0,0-0.5-0.7-0.9-0.7c-0.3,0-0.5,0.1-0.5,0.5c0,0.3,0.5,1.4,0.6,1.9c0.1,0.5,0.3,1.9,0.3,2.1c0,0.1-0.3,0.3-0.5,0.1
								c-0.2-0.2-0.6-1-0.9-1c-0.4,0-0.7,0.6-0.4,0.9c0.3,0.3,1.4,1.9,1.4,2.4c0,0.5,0,1.6,0.3,2.1c0.2,0.5,0.2,1.4-0.1,2
								c-0.3,0.5-0.1,1.8-0.1,1.8c-0.9,0.8-0.1,1.4-0.1,1.4s-1.3,0.9-1.3,2c-0.1,1.2-0.8,4.8-0.8,4.8s-4.2-1-5.1-0.6
								c0,0-1.8-1.7-3.3-1.7c0,0-3.4-0.8-5.3-0.1c0,0-0.8-0.1-0.2-1c0.6-0.9,0.5-3.4,0.5-3.4s0.3,0.1,0.5,0.3c0.2,0.2,1,0.1,1-0.5
								c0-0.7-0.1-1.4,0.3-1.7c0.3-0.3-0.1-1.2-0.3-1c0,0,0.8-3.9,0.3-5.1c-0.5-1.2-1.9-3.4-4.1-3.5c-2.2-0.1-6.4,2.9-6.7,4.7
								c0,0,1.9-7,2-8.3c0.1-1.2,0.6-7.5,1.3-8.7c0.7-1.2,2.9-2.4,3.5-4.4c0.6-2-1.3-10.5-1.3-10.5l-0.8-0.5c0,0-0.7-0.5-1.1-0.1
								c-0.4,0.4-1.9,3.4-2,4.7c-0.1,1.2-0.6,4.5-1.5,6.7c-0.9,2.2-4.4,10.5-5.2,11.9c-0.8,1.4-1.8,5.7-1.7,7.2
								c0.1,1.6,0.3,4.2-0.6,5c-0.9,0.8-1.5,3.9-1.6,5c-0.1,1.1,0,8.7-0.1,9.8c0,0,1.6,3.1,1,3.6c-0.6,0.5-0.8,3.7-0.9,4.7
								c0,1,0.7,3.1-0.2,3.9c-0.9,0.8-2.5,2.7-2.6,3.3c0,0.6-6,4.9-4.5,10.6c1.5,5.7,2.6,7.5,2.5,8.4c0,0.9,1.7,1.3,2.7,2.4
								c1,1.1-0.4,3-0.4,4c0,1-0.7,3.1-1.6,4c-0.9,0.8-1,1.2-0.3,1.9c0.6,0.7,4.1,1.1,4.1,2.1c0,1-0.7,5.9-1.8,5.9
								c-1.1,0-5.6-0.4-6.5,0.4c-0.9,0.8-4.7,1.7-6.4,1.4c-1.7-0.3-1.7-0.3-1.7-0.3s-0.1-1.1-0.4-2.1c-0.3-1-1.6-4.7-3.1-4.6
								c-1.5,0.1-4.4,1.2-5.6,2.7c-1.1,1.5-2.4,3.7-4.7,4.8c-2.3,1.1-6.5,3.6-6.6,5.9c-0.1,2.2-0.2,4.7,1.6,4.1c1.8-0.5,4-2,6.4-3
								c2.4-0.9,3.5-2.2,5-1.6c1.4,0.6,1.4,1,2.5,0.7c1-0.3,1.9-0.7,1.9-0.7l4.5,0l0-0.3c0,0,6.4,0.9,8.3,1.5
								c1.8,0.6,2.4,0.6,2.4,0.6s1.1,1.4,3.4,1.5c2.4,0.1,4-0.3,4.1-0.5c0,0,3.3-1.5,3.9-2.9c0.6-1.4,1.7-3.9,1.7-3.9
								s-0.1,5.5-0.6,6l-0.5,0.4c0,0-2.3,5.6-2.9,6.9c-0.6,1.3-1.8,3.3-1.3,3.8c0.5,0.5,5.1,1.5,7.5,1.6c2.4,0.1,11,1.2,12.4,0.3
								c1.4-0.9,2.3-1.5,1.5-3c-0.8-1.6-2.5-2.4-4.2-3c-1.7-0.7-3.4-2.2-3.8-4.1c-0.4-1.8-0.5-3.3-1-3.4c0,0,0.1-5,0.1-5.3
								c0-0.3-0.5-0.3-0.5-0.3s2.5-6.4,3.3-8.2c0.8-1.8,1.1-4.2,1.2-5.2c0-0.9,0.6-1.9,1.4-3c0.7-1.2,4.2-7.1,3.6-8.8
								c-0.6-1.6-3.8-5.7-3.8-5.7s2.2-2.7,1.9-3.6c-0.2-1-1.5-2.3-2.6-2.3c0,0,0.3-1.9,1.5-4.1c1.3-2.2,2.3-5.2,2.4-7.2
								c0.1-1.9-0.1-6.1,0.4-6.6c0.5-0.5,0.7-1.5,0.7-1.5s4.4,1.1,6.2,0.7c1.8-0.4,2.8-0.5,3.7-0.5c0.9,0,1.9-1.1,2.3-2
								c0.4-0.9,0.4-2.4,0.4-2.4s0.7-0.7,0.7-1.2c0-0.5,0.7-7.5-0.8-8.2c0,0,1.2-0.5,0-0.8C145,157.5,144.7,154.6,145.3,154.3z"/>
							<path style="&st0;" d="M127.4,249.2c-2.2,0-5.1-0.3-7.3-0.4c-1-0.1-1.9-0.2-2.4-0.2c-1-0.1-7.5-0.9-8.7-2.2
								c-1.2-1.3-0.3-3,0.6-4.8c0.1-0.3,0.3-0.6,0.4-0.9c0.4-0.8,1.3-3.2,2-4.9c-0.3,0.2-0.6,0.3-0.9,0.5c-0.7,0.5-2.2,1-5.2,0.9
								c-2.1-0.1-3.5-1-4.2-1.6c-0.5-0.1-1.1-0.3-2.1-0.6c-1.2-0.4-4.9-1-7.1-1.3c-0.2,0.1-0.4,0.1-0.7,0.1l-4.1,0
								c-0.4,0.2-1,0.4-1.8,0.6c-1.4,0.4-2.2,0-2.8-0.4c-0.2-0.1-0.5-0.2-0.8-0.4c-0.3,0-0.9,0.3-1.4,0.6c-0.6,0.3-1.3,0.7-2.2,1
								c-1.1,0.4-2.1,0.9-3.1,1.5c-1.2,0.6-2.3,1.2-3.4,1.5c-1.1,0.3-2.2,0.1-2.9-0.7c-1.1-1.1-1.1-3-1-5.2c0.2-3.3,4.8-6,7.6-7.4
								c1.5-0.7,2.5-2.2,3.5-3.4c0.2-0.3,0.4-0.6,0.6-0.9c1.5-2,5-3.2,6.8-3.3c2-0.1,3.6,1.8,4.9,5.8c0.1,0.4,0.2,0.8,0.3,1.1
								l0.4,0.1c0.1,0,0.3,0,0.4,0c1.7,0,4.1-0.7,4.6-1c0.7-0.7,2-0.9,4.3-0.9c0.9,0,1.9,0,2.5,0.1c0.3-0.8,0.6-2.4,0.7-3.4
								c-0.3-0.1-0.8-0.3-1.1-0.4c-1.1-0.3-1.9-0.6-2.5-1.2c-0.3-0.3-1-1.1-0.8-2.3c0.1-0.9,0.7-1.5,1.3-2c0.4-0.4,1-2,1-2.8
								c0-0.6,0.3-1.2,0.5-1.7c0.1-0.3,0.3-0.9,0.4-1.1c-0.3-0.3-0.7-0.5-1-0.7c-0.8-0.5-2.1-1.3-2-2.8c0-0.1-0.3-0.8-0.5-1.5
								c-0.5-1.3-1.2-3.3-2-6.4c-1.4-5.3,2.5-9.5,4.1-11.3c0.2-0.2,0.3-0.3,0.4-0.4c0.5-1.5,2.3-3.3,2.9-3.8c0-0.3-0.1-1-0.1-1.4
								c-0.1-0.5-0.1-1-0.1-1.5c0.2-3.2,0.6-4.6,0.9-5.3c-0.1-0.5-0.5-1.4-0.9-2.1c-0.1-0.3-0.2-0.6-0.2-0.9c0-0.5,0-2.8,0-4.9
								c0-2.2,0-4.4,0-4.9c0-0.7,0.6-4.8,2.2-6.2c0.2-0.5,0.1-2.7,0.1-3.5c-0.1-2,1-6.7,2-8.3c0.7-1.1,3.5-8,4.6-10.6l0.5-1.1
								c0.8-1.9,1.3-5,1.4-6.1c0.1-1.7,1.8-5.1,2.6-5.9c0.4-0.4,1-0.6,1.6-0.6c0.8,0,1.5,0.4,1.6,0.5l0.7,0.4
								c0.4,0.2,0.7,0.7,0.8,1.1c0.6,2.7,1.9,9.2,1.3,11.4c-0.5,1.7-1.7,2.8-2.7,3.8c-0.4,0.4-0.8,0.8-1,1c-0.4,0.9-1,6.1-1.1,7.9
								c0,0.5-0.2,1.5-0.5,2.7c1.2-0.6,2.4-1,3.4-1c0,0,0.2,0,0.2,0c3.5,0.2,5.3,3.9,5.6,4.6c0.5,1.2,0.3,3.5,0,5.2
								c0,0.1,0.1,0.2,0.1,0.3c0.3,0.8,0.2,1.6-0.2,2.2c0,0.1,0,0.2,0,0.3c0,0.2,0,0.4,0,0.6c-0.1,1.1-0.7,1.9-1.7,2.2
								c0,0.1,0,0.3-0.1,0.4c1.6,0,3.2,0.3,3.7,0.4c1.4,0.1,2.8,1,3.6,1.6c0.9,0,2.2,0.2,3.2,0.4c0.2-1.1,0.4-2.3,0.4-2.8
								c0-1,0.5-1.8,1-2.4c0-0.1,0-0.1,0-0.2c0-0.4,0.1-0.8,0.3-1.3c-0.1-0.7,0-1.6,0.4-2.2c0-0.1,0-0.3,0-0.4
								c-0.3-0.8-0.4-1.9-0.4-2.6c-0.2-0.4-0.8-1.2-1-1.4c-0.6-0.6-0.7-1.6-0.3-2.4c0.2-0.5,0.7-1,1.2-1.2c-0.2-0.6-0.4-1.1-0.4-1.6
								c0-0.6,0.3-1.2,0.7-1.5c-0.1-0.5,0-1,0.3-1.5c0.3-0.5,0.9-0.8,1.7-0.9c0.3,0,0.7,0,1,0.1c0.1,0,0.2,0,0.4,0
								c1.9,0.1,2.8,2.9,2.8,3.2c0.1,0.4,0.2,0.9,0.3,1.3c0.1,0.3,0.1,0.5,0.2,0.7c1-1.1,2.8-1.1,3.7-0.1c1.1,1.2,0.1,3.1-0.7,3.9
								c-0.1,0.2-0.7,1.1-0.9,1.9c-0.1,0.2-0.1,0.4-0.1,0.6c-0.2,0.9-0.4,2.1-1.4,3c0,0.3,0,0.7,0,1.1c0.5,0.5,0.6,1.1,0.6,1.3
								c0,0.2,0,0.4-0.1,0.6c0.5,1.4,0.7,3.8,0.4,8l0,0.2c0,0.7-0.4,1.3-0.8,1.8c-0.1,0.7-0.2,1.6-0.5,2.4c-0.5,1.2-2,3-3.9,3l0,0
								l-0.4,0c-0.7,0-1.6,0.1-2.9,0.4c-1.4,0.3-3.9,0-5.6-0.4c-0.1,0.1-0.2,0.3-0.3,0.4c-0.1,0.7-0.1,2.6-0.1,3.6
								c0,0.8,0,1.6,0,2.1c-0.1,2.1-1.2,5.4-2.6,7.9c-0.5,0.8-0.8,1.6-1,2.2c1.1,0.7,1.9,1.9,2.2,3c0.3,1-0.2,2.4-1.4,4
								c1.1,1.4,2.7,3.7,3.2,5.1c0.9,2.5-2.7,8.5-3.8,10.3c-0.5,0.8-1.1,1.7-1.1,2.2c0,0.9-0.4,3.6-1.3,5.8c-0.6,1.3-2.1,5.1-2.9,7
								c0.1,0.3,0.2,0.5,0.1,0.9c0,0.3-0.1,3.2-0.1,4.5c0.4,0.6,0.5,1.5,0.6,2.2c0.1,0.4,0.2,0.9,0.3,1.4c0.3,1.2,1.6,2.4,2.8,2.9
								c1.9,0.8,4,1.7,5.1,3.9c1.6,3-0.8,4.5-2.1,5.3C130.4,249,129.3,249.2,127.4,249.2z M112.3,244.1c1.4,0.4,3.9,0.9,5.6,1
								c0.6,0,1.5,0.1,2.6,0.2c2.1,0.2,4.9,0.4,7,0.4c1.5,0,1.9-0.1,1.9-0.1c0.2-0.1,0.6-0.4,0.8-0.6c0,0,0-0.1-0.1-0.1
								c-0.5-1.1-1.9-1.7-3.3-2.2c-2-0.8-4.3-2.8-4.9-5.3c-0.1-0.6-0.2-1.1-0.3-1.6c-0.1-0.3-0.1-0.6-0.2-0.9
								c-0.3-0.3-0.6-0.8-0.5-1.3c0,0,0.1-2.9,0.1-4.4c-0.1-0.1-0.1-0.1-0.1-0.2c-0.3-0.5-0.4-1.1-0.2-1.6c0.1-0.3,2.5-6.5,3.4-8.3
								c0.7-1.5,1-3.7,1-4.5c0.1-1.4,0.8-2.6,1.6-3.9c1.4-2.2,3.5-6.3,3.4-7.4c-0.3-0.8-2.2-3.4-3.5-5c-0.5-0.6-0.5-1.6,0-2.2
								c0.6-0.8,1.3-1.8,1.5-2.3c-0.2-0.4-0.7-0.8-0.9-0.8c-0.5,0-0.9-0.3-1.3-0.6c-0.3-0.4-0.4-0.9-0.4-1.4c0-0.1,0.3-2.2,1.7-4.7
								c1.2-2.1,2.1-4.8,2.2-6.4c0-0.5,0-1.2,0-2c0-3.8,0.1-5.1,1-5.9c0-0.1,0.2-0.4,0.2-0.6c0.1-0.5,0.4-0.9,0.8-1.1
								c0.4-0.2,0.9-0.3,1.3-0.2c0.8,0.2,3.2,0.8,4.7,0.8c0.4,0,0.6,0,0.6,0c1.7-0.4,2.9-0.5,4-0.5c0.2-0.1,0.6-0.5,0.8-0.9
								c0.2-0.4,0.3-1.3,0.3-1.7c0-0.4,0.2-0.9,0.5-1.2c0.1-0.1,0.2-0.2,0.3-0.3l0-0.1c0.4-4.6,0-6.1-0.1-6.4
								c-0.5-0.3-0.7-0.9-0.7-1.5c0-0.2,0-0.3,0.1-0.5c0,0,0-0.1,0-0.1c-0.4-4,0.6-4.6,1.1-4.9c0.1-0.1,0.2-0.7,0.2-1
								c0.1-0.3,0.1-0.5,0.2-0.8c-0.3-0.1-0.6-0.3-0.9-0.5c-0.4-0.4-0.6-1-0.6-1.6c0-0.1-0.1-0.5-0.2-0.6c-0.1-0.1-0.1-0.2-0.2-0.2
								c0.1,0.4,0.1,0.8,0.1,0.9c0,0.5-0.2,1-0.6,1.3c0.1,0.4,0.2,0.7,0.2,1c0,0.4,0.1,1.2,0.1,1.4c0.4,1,0.3,2.4-0.2,3.4
								c0,0.2,0,0.5,0.1,0.7c0.1,0.4,0,0.8-0.2,1.1c0.1,0.2,0.1,0.5,0.1,0.7c0,0.6-0.3,1.1-0.8,1.4c-0.3,0.2-0.5,0.5-0.6,0.7
								c-0.1,1.3-0.8,4.7-0.8,5c-0.1,0.5-0.4,0.9-0.8,1.1c-0.4,0.3-0.9,0.3-1.3,0.2c-1.2-0.3-3.5-0.8-4.3-0.7
								c-0.6,0.2-1.1,0-1.6-0.4c-0.6-0.6-1.7-1.3-2.2-1.3c-0.1,0-0.2,0-0.3,0c0,0-1.5-0.3-2.9-0.3c-0.8,0-1.3,0.1-1.5,0.2
								c-0.3,0.1-0.6,0.1-0.8,0.1c-0.6-0.1-1.4-0.5-1.8-1.3c-0.2-0.4-0.4-1.3,0.3-2.4c0.1-0.3,0.3-1.5,0.3-2.4c0-0.5,0.2-1,0.6-1.4
								c0.3-0.2,0.7-0.4,1-0.4c0-0.1,0.1-0.3,0.1-0.4c-0.2-0.3-0.3-0.8-0.2-1.2c0.3-1.7,0.5-3.6,0.4-4.1c-0.4-0.9-1.4-2.4-2.5-2.4
								l0,0c-1.4,0-4.5,2.2-4.9,3.3l0,0.2c-0.2,0.9-1.1,1.4-2.1,1.2c-0.9-0.2-1.5-1.1-1.4-2c0-0.2,0.1-0.4,0.2-0.6
								c1.2-4.4,1.8-7,1.8-7.4c0-0.1,0.5-7.7,1.6-9.5c0.4-0.6,0.9-1.2,1.5-1.7c0.7-0.7,1.6-1.5,1.8-2.3c0.2-0.9-0.3-4.6-1-8.1
								c-0.4,0.9-0.8,1.9-0.9,2.3c-0.1,1.3-0.6,4.8-1.6,7.3l-0.5,1.1c-2.4,5.8-4.2,9.9-4.8,11c-0.6,1.1-1.6,5-1.5,6.3
								c0.2,2.8,0.2,5.1-1.2,6.4c-0.4,0.5-1,2.8-1,3.8c0,0.5,0,2.7,0,4.8c0,1.9,0,3.7,0,4.6c1.5,3.2,1.2,4.4,0.6,5.1
								c-0.2,0.5-0.4,1.9-0.5,3.6c0,0.1,0,0.6,0.1,0.9c0.2,1.3,0.4,3.1-0.8,4.3c-0.8,0.7-1.8,1.9-2,2.4c-0.1,0.6-0.5,1.1-1.2,1.8
								c-1.5,1.6-4.2,4.5-3.3,8c0.8,3,1.5,4.9,1.9,6.1c0.3,1,0.6,1.7,0.7,2.2c0.1,0.1,0.3,0.2,0.4,0.3c0.6,0.3,1.2,0.8,1.8,1.4
								c1.4,1.6,0.7,3.6,0.2,4.6c-0.1,0.2-0.2,0.6-0.2,0.7c0,0.9-0.6,3.3-1.8,4.7c0.1,0,0.2,0.1,0.3,0.1c1.5,0.5,3.7,1.2,3.6,3.1
								c-0.1,1.8-0.6,7.6-3.5,7.6l-0.6,0c-0.7,0-1.7-0.1-2.7-0.1c-1.4,0-2,0.1-2.1,0.2c-1.4,1.1-4.9,1.8-6.8,1.8
								c-0.3,0-0.6,0-0.9-0.1l-1.7-0.3c-0.8-0.1-1.4-0.8-1.5-1.6c0,0-0.1-0.9-0.3-1.7c-0.6-1.9-1.3-3-1.6-3.4c-1.1,0.2-3.3,1-4,2
								c-0.2,0.3-0.4,0.5-0.6,0.8c-1,1.4-2.5,3.4-4.8,4.5c-3.6,1.7-5.6,3.7-5.7,4.4c0,0.5-0.1,1.5,0,2.2c0.7-0.3,1.4-0.7,2.2-1.1
								c1-0.5,2.2-1.1,3.4-1.6c0.7-0.3,1.3-0.6,1.8-0.9c1-0.5,1.9-1,3-1c0.5,0,1,0.1,1.5,0.3c0.4,0.2,0.8,0.4,1,0.5
								c0.1,0,0.1,0.1,0.2,0.1c0,0,0,0,0.1,0c0.9-0.2,1.6-0.6,1.6-0.6c0.2-0.1,0.5-0.2,0.7-0.2l3.6,0c0.3-0.2,0.7-0.3,1.2-0.2
								c0.7,0.1,6.7,0.9,8.6,1.5c1.5,0.5,2,0.5,2,0.5c0.5,0.1,0.9,0.3,1.2,0.7l0,0c0,0,0.7,0.8,2.1,0.8c1.4,0.1,2.5-0.1,3-0.2
								c0.1-0.1,0.2-0.1,0.3-0.2c1.3-0.6,2.8-1.6,3-2c0.6-1.4,1.7-3.9,1.7-3.9c0.3-0.8,1.1-1.2,2-1c0.8,0.2,1.4,0.9,1.4,1.7
								c-0.1,6.3-0.7,6.9-1.2,7.3l-0.2,0.2c-0.5,1.3-2.2,5.5-2.8,6.6c-0.1,0.3-0.3,0.6-0.5,1C112.6,243.4,112.4,243.8,112.3,244.1z"
								/>
						</g>
					</g>
					<g>
						<g>
							<path style="&st2;" d="M118.8,124.6c0.2-4.8,4.3-8.4,9-8.2c4.8,0.2,8.4,4.3,8.2,9c-0.2,4.8-4.3,8.4-9,8.2
								C122.3,133.4,118.6,129.3,118.8,124.6z"/>
							<path style="&st0;" d="M127.4,135.4c-0.2,0-0.3,0-0.5,0c-2.8-0.1-5.3-1.3-7.2-3.4c-1.9-2.1-2.8-4.7-2.7-7.5
								c0.3-5.7,5.1-10.1,10.9-9.9c2.8,0.1,5.3,1.3,7.2,3.4c1.9,2.1,2.8,4.7,2.7,7.5C137.6,131.1,133,135.4,127.4,135.4z
								 M127.5,118.1c-3.7,0-6.7,2.9-6.9,6.6c-0.1,1.8,0.5,3.6,1.8,5c1.2,1.4,2.9,2.2,4.8,2.2l0.3,0c3.7,0,6.7-2.9,6.9-6.6
								c0.1-1.8-0.5-3.6-1.8-5c-1.2-1.4-2.9-2.2-4.8-2.3L127.5,118.1z"/>
						</g>
					</g>
					<g>
						<g>
							<g>
								<path style="&st2;" d="M63.1,139.8c0,0-2,4.1-1.9,8.2c0.1,4.1-0.5,10.7,0.2,12.2c0.7,1.4,0.1,2.2,0.8,3.5
									c0.8,1.4,2.6,5.7,3.9,6.6c1.3,0.8,2.7-0.3,3.1,1.6c0.4,1.8,2.1,7.7,3.5,9.4c1.5,1.7,1.8,2.6,1.4,3.3
									c-0.4,0.6,0.3,1.1,0.3,1.1s-1.3,5.5-0.2,8c1.1,2.5,3,4.2,3.6,5.6c0.7,1.4,6.1,13.3,6.1,13.3l-0.4,0.2c0,0,0.8,4,1.6,5.2
									c0.8,1.2,0,0.2,0,0.2s-0.3,0.9-0.2,1.3c0.1,0.5-0.2,5.1-0.8,5.2c-0.6,0.1-4.5,4-4.3,4.7c0.1,0.7-0.1,1.9,2.2,1.4
									c2.3-0.5,4.8-1.6,6.3-2.8c1.5-1.2,2.7-2.7,4.1-3c1.5-0.3,3.1-1.4,2.2-2.8c-0.9-1.3-2.7-3.4-3.4-3.9
									c-0.7-0.4-1.4-1.3-1.5-1.6c-0.1-0.3-0.4-0.2-0.4-0.2s-0.4-3.8-1-4.8l-0.5-0.3c0,0-1.4-9.8-2.5-11.6c-1.1-1.9-4-5.6-3.8-6.7
									c0.3-1.1,0.1-1.7,0.1-1.7s3.1,3.7,4,4.9c0.9,1.2,2.2,2.6,3.6,3c1.4,0.3,16,5.2,16.7,5.6l0.1,0.5c0,0,4,1.8,4.7,1.7
									c0,0,0.1,0.7,0.6,1c0.5,0.3,3.3,3.3,4.3,5.2c1,1.9,2.5,4.5,2.6,5.1c0.1,0.6,1.1,1,1.4,0.5c0.3-0.5,0.8-7.4,0.5-8.7
									c-0.3-1.3-0.9-2.7-0.6-4c0.4-1.3,0.2-3.9-0.8-5c-1-1.1-1.9-0.8-3-0.3c-1.1,0.5-3,1.2-3,1.2l-0.2,0.2l-4-1.6l-0.3,0.4
									c0,0-5.4-4-7.2-5.2c-1.8-1.2-6.3-1.5-7.3-2.1c-0.9-0.6-4.2-5.1-4.4-5.8c-0.1-0.7,0.1-1.1,0.1-1.1s-0.2-0.9-0.3-1.6
									c-0.1-0.7-1.3-5.2-2.3-6.7c-1-1.5,1.8-5,1.7-5.6c-0.1-0.5-1.2-8.3-2.1-10c-0.9-1.6-0.6-1.3-0.6-1.3l0.2-0.4
									c0,0-2.2-5.2-2.7-5.5c-0.5-0.3-0.8-1.5-0.7-2.3c0.1-0.8-0.1-7.9-0.1-7.9s2.1-2.6,1.7-4.8c-0.4-2.2-1.7-4-2.7-4.7
									c0,0-0.8-4.2-2.4-5.3c-1.6-1-2.4-3.2-2.5-4c-0.2-0.8-2.3-6.1-3.5-8.3c-1.2-2.3-4.5-7.8-4.3-9.3c0.1-1.5,0.9-4.6,0.2-6.1
									c-0.7-1.5-1.5-3.2-1.8-3.4c-0.2-0.2-0.9-0.4-0.8,0.2c0.1,0.7-2.2,8.5-2.2,8.5s0.3,2.7,1.5,3.5c1.2,0.8,2,4.7,2.2,5.5
									c0.2,0.7,1.1,4.8,1.1,4.8s-2.3,0.6-2.8,1.5c-0.6,0.9-1.2,1.6-1.1,2.2c0.1,0.5,0.1,1.1,0.1,1.1s-0.5-0.2-1.2-1.3
									c-0.6-1.2-2.2-3.3-2.3-5c-0.1-1.7-1.1-6.4-1.3-7.3c-0.2-0.9-1.2-3.1-0.6-4c0.6-0.9-1.5-9.1-2-9.4c-0.5-0.3-1.4,0.2-1.4,0.2
									s-0.3-0.5-0.6-0.4c-0.4,0.1-1,0.8-0.4,1.1c0,0,1.3,1.3,1.1,2.1c-0.2,0.7-1.2,0.6-1.2,0.6s-0.9,0-0.8,0.5
									c0.1,0.5,0.2,1,0.7,0.9c0.5-0.1,0.6,0.3,0.6,0.3s0.7,2.8,0.6,4.1c-0.1,1.3-0.7,6.5-0.1,9c0.5,2.6,1.1,4.7,1.1,5.7
									c0,1,0.4,3.7,1.4,4.8c1,1.1,2.8,4,3,4.9C62.3,135.1,63.3,138.7,63.1,139.8z"/>
								<path style="&st0;" d="M81.1,232.7c-1.2,0-2.7-0.5-3-2.7l0-0.2c-0.4-1.7,2.9-5,4.7-6.3c0.2-0.9,0.4-3.2,0.4-3.8
									c-0.1-0.4,0-1,0.1-1.4c-0.7-1.6-1.3-4.3-1.5-5.2c-0.1-0.3,0-0.6,0-0.8c-1.3-2.9-5.1-11.1-5.6-12.2c-0.2-0.4-0.7-1-1.1-1.7
									c-0.8-1-1.8-2.3-2.5-3.9c-1.1-2.4-0.5-6.4-0.1-8.3c-0.3-0.7-0.3-1.5,0-2.2c-0.1-0.2-0.4-0.7-1.1-1.5
									c-1.8-2.1-3.5-8.5-3.9-10c0,0,0,0,0,0c-0.6,0-1.5-0.1-2.4-0.7c-1.3-0.8-2.4-3-3.8-5.8c-0.3-0.6-0.5-1.1-0.7-1.4
									c-0.6-1-0.6-1.9-0.7-2.5c0-0.5,0-0.7-0.2-1.1c-0.6-1.2-0.6-3.7-0.5-7.9c0-1.7,0.1-3.5,0.1-5c-0.1-3.8,1.4-7.6,1.9-8.7
									c0-0.9-0.6-3.1-0.8-3.9c-0.1-0.4-0.2-0.7-0.2-0.9c-0.2-0.6-1.7-3-2.6-4.1c-1.7-1.9-1.8-5.8-1.8-5.9c0-0.6-0.3-2.1-0.7-3.7
									l-0.4-1.7c-0.5-2.3-0.2-6.1,0.1-9.2l0-0.4c0-0.5-0.1-1.6-0.4-2.6c-0.6-0.2-1.2-0.8-1.4-2.1c-0.1-0.7,0-1.3,0.4-1.8
									c0.3-0.3,0.6-0.5,0.9-0.7c-0.5-0.5-0.7-1.2-0.6-1.9c0.2-1,1-1.8,2-2c0.4-0.1,1,0,1.3,0.2c0.7-0.1,1.4,0,2,0.3
									c1.3,0.9,3.4,9.5,2.6,11.6c0,0.4,0.3,1.4,0.4,1.8c0.1,0.4,0.2,0.8,0.3,1c0.8,3.8,1.2,6.3,1.3,7.5c0.1,0.7,0.6,1.7,1.1,2.5
									l0.2-0.3c0.5-0.7,1.4-1.3,2.2-1.7c-0.3-1.3-0.7-2.9-0.8-3.4c-0.8-3.7-1.5-4.4-1.5-4.4c-1.7-1.1-2.2-3.9-2.3-4.8
									c0-0.2,0-0.5,0.1-0.7c0.9-3.2,2-7,2.1-7.9c-0.1-0.8,0.2-1.3,0.4-1.6c0.4-0.5,0.9-0.7,1.6-0.7c0.7,0,1.3,0.3,1.5,0.5
									c0.4,0.3,0.8,0.5,2.4,4.1c0.7,1.6,0.4,3.8,0.1,5.7c-0.1,0.5-0.1,1-0.2,1.3c0.1,1,2.4,5,3.3,6.8c0.3,0.6,0.6,1.1,0.8,1.5
									c1.2,2.2,3.5,7.8,3.7,8.8c0.1,0.5,0.7,2.2,1.8,2.9c1.8,1.1,2.6,4.2,3,5.8c1.3,1.2,2.4,3.2,2.8,5.3c0.5,2.3-0.9,4.6-1.6,5.7
									c0.1,2.4,0.2,6.8,0.1,7.6c0,0.2,0.1,0.6,0.1,0.7c0.4,0.3,1.1,1.2,3.2,6.2c0.1,0.4,0.2,0.7,0.1,1.1c0.1,0.1,0.1,0.3,0.2,0.4
									c0.6,1.2,1.3,4,2.2,9.7c0.1,0.4,0.1,0.7,0.1,0.8c0.2,0.8-0.2,1.4-0.8,2.5c-0.3,0.6-1.1,2-1.1,2.6c1.3,2.1,2.4,7.1,2.5,7.1
									l0.3,1.6c0.1,0.4,0,0.7-0.1,1.1c0.5,1,2.9,4.2,3.6,4.8c0.2,0.1,1.2,0.3,2,0.4c1.9,0.4,4,0.8,5.3,1.7
									c1.3,0.9,4.6,3.3,6.3,4.5c0.3,0,0.6,0,0.8,0.1l3.2,1.2c0.5-0.2,1.9-0.7,2.7-1.1c0.6-0.3,1.4-0.6,2.2-0.6c1,0,2,0.4,2.8,1.3
									c1.5,1.6,1.6,4.9,1.2,6.6c-0.1,0.5,0.1,1.2,0.3,2c0.1,0.4,0.2,0.8,0.3,1.2c0.2,1,0,8.8-0.8,10c-0.4,0.6-1.1,1-1.9,1
									c-1.3,0-2.4-0.9-2.7-2.1c-0.1-0.2-0.8-1.5-1.3-2.4c-0.4-0.7-0.8-1.5-1.2-2.2c-0.8-1.6-3.3-4.2-3.7-4.6
									c-0.4-0.2-0.6-0.6-0.8-0.9c-1-0.3-2.4-0.8-4.1-1.7c-0.4-0.2-0.7-0.5-0.8-0.8c-2.7-1-14.3-4.9-15.6-5.2
									c-0.4-0.1-0.9-0.3-1.3-0.5c0.9,2.7,1.6,7.5,2,9.9c0.1,0.1,0.3,0.3,0.4,0.4c0.6,1,0.9,3.2,1.1,4.6c0.1,0.2,0.3,0.4,0.3,0.6
									c0.2,0.2,0.5,0.6,0.8,0.8c1,0.6,3,3,3.9,4.4c0.6,0.9,0.7,1.9,0.3,2.8c-0.6,1.5-2.3,2.3-3.6,2.6c-0.5,0.1-1.3,0.8-2,1.5
									c-0.4,0.4-0.9,0.8-1.4,1.2c-1.7,1.4-4.5,2.6-7.1,3.1C82,232.7,81.5,232.7,81.1,232.7z M84.8,226.3c-0.6,0.4-1.9,1.8-2.7,2.7
									c1.9-0.5,4-1.4,5.3-2.4c0.4-0.3,0.8-0.7,1.2-1.1c1.1-1,2.2-2,3.7-2.3c0.4-0.1,0.7-0.2,0.9-0.4c-0.8-1.2-2.3-2.8-2.7-3.1
									c-0.4-0.3-1.3-1-1.8-1.7c0,0-0.1,0-0.1-0.1c-0.4-0.3-0.7-0.7-0.7-1.2c-0.2-1.5-0.4-3.1-0.7-3.8c-0.4-0.3-0.7-0.7-0.8-1.2
									c-0.6-4.5-1.7-10-2.3-11c-0.3-0.5-0.7-1.1-1.2-1.8c-2.2-3.3-3.1-4.8-2.8-6.2c0.1-0.6,0.1-1,0.1-1c-0.1-0.8,0.3-1.6,1-1.9
									c0.7-0.3,1.5-0.2,2,0.4c0.1,0.1,3.1,3.7,4,5c0.9,1.3,1.9,2.1,2.6,2.3c0.1,0,16,5.1,17.2,5.9c0.3,0.2,0.5,0.4,0.6,0.7
									c1.3,0.6,2.7,1.1,3.1,1.2c0.4,0,0.8,0.1,1.1,0.3c0.4,0.3,0.6,0.6,0.7,1.1c1,0.8,3.7,3.8,4.7,5.7c0.3,0.7,0.8,1.4,1.1,2.1
									c0,0.1,0.1,0.1,0.1,0.2c0.1-1.8,0.2-3.7,0.1-4.2c-0.1-0.3-0.2-0.6-0.2-0.9c-0.3-1.1-0.7-2.4-0.3-3.9c0.3-1.1,0-2.9-0.4-3.4
									c-0.1-0.1-0.2-0.2-0.2-0.2c-0.1,0-0.3,0-0.7,0.3c-0.8,0.4-2,0.8-2.7,1.1c-0.5,0.5-1.2,0.7-1.9,0.4l-3-1.2
									c-0.1,0-0.2,0.1-0.3,0.1c-0.5,0.1-1,0-1.3-0.3c-0.1,0-5.4-4-7.1-5.1c-0.7-0.5-2.7-0.9-4-1.1c-1.7-0.3-2.6-0.5-3.2-0.9
									c-1.1-0.7-4.8-5.6-5.1-6.9c-0.1-0.7-0.1-1.2,0-1.6l-0.2-1.1c-0.2-1.1-1.3-5-2-6c-1.3-1.9,0.1-4.3,1-6.1
									c0.1-0.2,0.2-0.4,0.3-0.6c0-0.1,0-0.3-0.1-0.5c-1-6.5-1.5-8.1-1.7-8.5c-0.7-1.3-1.1-2-0.8-2.7c-0.8-1.7-1.6-3.6-1.9-4.1
									c-1.1-0.9-1.4-2.7-1.2-3.7c0-0.5,0-4.3-0.1-7.7c0-0.4,0.1-0.8,0.4-1.1c0.5-0.7,1.5-2.3,1.3-3.4c-0.4-1.8-1.4-3.2-2-3.6
									c-0.4-0.3-0.7-0.7-0.8-1.1c-0.3-1.8-1.1-3.8-1.6-4.1c-2-1.3-3-3.9-3.3-5.1c-0.2-0.7-2.2-5.7-3.4-7.9
									c-0.2-0.4-0.5-0.9-0.8-1.5c-0.7-1.2-1.2-2.2-1.7-3.2c0.2,0.7,0.4,1.5,0.6,2.5c0.2,0.8,1.1,4.8,1.1,4.8
									c0.2,0.9-0.3,1.8-1.2,2.1c-0.8,0.2-1.7,0.6-1.9,0.8l-0.3,0.4c-0.1,0.2-0.4,0.5-0.5,0.7c0.1,0.6,0.1,1.1,0.1,1.2
									c0,0.5-0.3,1.1-0.7,1.4c-0.4,0.3-1,0.4-1.5,0.2c-0.4-0.1-1.3-0.6-2.1-2.2c-0.1-0.2-0.3-0.5-0.5-0.8c-0.8-1.3-1.9-3.1-2-4.9
									c0-0.6-0.3-2.3-1.3-7c0-0.2-0.1-0.5-0.2-0.8c-0.2-0.8-0.5-1.6-0.6-2.5c-0.2,1.9-0.5,5.6-0.1,7.5l0.4,1.7
									c0.4,2,0.7,3.4,0.8,4.3c0,1.2,0.5,3.1,1,3.7c0.8,1,3.1,4.2,3.4,5.6c0,0.2,0.1,0.4,0.2,0.8c0.7,2.7,1,4.4,0.8,5.4
									c0,0.2-0.1,0.4-0.2,0.5c0,0-1.8,3.8-1.7,7.4c0,1.5,0,3.4-0.1,5.2c-0.1,2.2-0.2,5.6,0.1,6.3c0.5,1,0.5,1.8,0.6,2.4
									c0,0.5,0,0.7,0.2,1c0.2,0.4,0.5,0.9,0.8,1.5c0.6,1.2,1.9,4,2.6,4.4c0.1,0.1,0.3,0.1,0.6,0.1c0.7,0,2.7,0.1,3.2,2.5
									c0.5,2.3,2.1,7.5,3.2,8.7c0.8,0.9,2.4,2.8,1.8,4.7c0.2,0.4,0.3,0.8,0.2,1.2c-0.5,2-0.9,5.5-0.3,6.8c0.6,1.3,1.4,2.3,2.1,3.3
									c0.6,0.8,1.1,1.5,1.5,2.3c0.7,1.4,5.9,12.8,6.1,13.3c0.2,0.5,0.2,1.1,0,1.5c0.4,1.6,0.8,3.2,1.1,3.7
									c0.5,0.7,0.9,1.4,0.4,2.4c-0.1,0.1-0.2,0.3-0.3,0.4c0,1.3-0.3,4.7-1,5.8C85.5,225.9,85.2,226.2,84.8,226.3z M83.8,223
									c-0.3,0.1-0.5,0.2-0.7,0.3C83.4,223.1,83.6,223,83.8,223z M66.4,109c0.1,0.8,0.5,1.7,0.7,1.9c0.2,0.1,0.5,0.3,0.7,0.6
									c-0.3-0.9-0.5-1.6-0.4-2.1c0-0.4,0.1-1,0.2-1.6c0.2-1.1,0.5-3,0.2-3.7c0,0,0,0,0,0C67.4,105.4,67,106.9,66.4,109z
									 M57.8,105.2c0,0.1,0,0.2,0.1,0.2c0.1,0.4,0.7,2.7,0.7,4.2c0-0.1,0.1-0.3,0.1-0.4c0-0.7-0.3-2.5-0.7-4.2
									C57.9,105.1,57.9,105.2,57.8,105.2z"/>
							</g>
						</g>
						<g>
							<g>
								<path style="&st2;" d="M75.5,123.1c0.8-1.1,1.7-3.4,3.4-3.2c2,0.2,2.2,3.3,3.5,4.3c3.1,2.5,10.9,1.3,8.7,7.5
									c1.3-3.6-5-3.8-6.9-3.4c-2.6,0.5-5.4-4.5-7.9-3.1c-1.3,0.8-2.1-0.5-2.1-0.5S75.4,123.2,75.5,123.1z"/>
								<path style="&st0;" d="M91.1,133.5c-0.2,0-0.4,0-0.6-0.1c-0.9-0.3-1.4-1.3-1.1-2.2l0,0l0,0c0-0.1,0.1-0.3,0.1-0.4
									c-0.2-0.3-1.6-0.9-3.6-0.9c-0.5,0-1,0-1.4,0.1c-0.2,0-0.5,0.1-0.7,0.1l0,0c-1.7,0-3.2-1.1-4.4-2.1c-0.7-0.5-1.7-1.3-2.1-1.3
									c-0.6,0.3-1.2,0.5-1.8,0.5c-1.3,0-2.3-0.9-2.7-1.6c-0.4-0.6-0.3-1.4,0.1-2l1.2-1.6c0.2-0.2,0.3-0.5,0.5-0.8
									c0.8-1.3,2.1-3.4,4.5-3.1c2.2,0.2,3.1,2.1,3.7,3.4c0.2,0.5,0.5,1.1,0.7,1.3c0.7,0.6,2.1,1,3.4,1.3c2.2,0.6,4.7,1.3,5.8,3.4
									c0.7,1.3,0.7,2.9,0,4.7c0,0,0,0,0,0C92.5,133.1,91.8,133.5,91.1,133.5z M77.5,123.3c1,0.1,1.9,0.5,2.7,1.1
									c-0.2-0.4-0.5-0.8-0.6-1.2c-0.2-0.4-0.7-1.4-0.9-1.4l0,0c-0.3,0-1,1.1-1.2,1.5C77.5,123.2,77.5,123.2,77.5,123.3z"/>
							</g>
						</g>
					</g>
					<g>
						<g>
							<circle style="&st2;" cx="61.9" cy="104.2" r="6.4"/>
							<path style="&st0;" d="M61.9,112.3c-3.8,0-7.2-2.7-8-6.5c-0.9-4.4,1.9-8.7,6.3-9.7c0.6-0.1,1.1-0.2,1.7-0.2
								c3.8,0,7.2,2.7,8,6.5c0.4,2.1,0,4.3-1.2,6.1c-1.2,1.8-3,3.1-5.2,3.5C63,112.3,62.5,112.3,61.9,112.3z M61.9,99.5
								c-0.3,0-0.7,0-1,0.1c-2.5,0.5-4.1,3-3.6,5.5c0.5,2.5,3,4.1,5.5,3.6c1.2-0.3,2.3-1,3-2c0.7-1,0.9-2.3,0.7-3.5
								C66.1,101.1,64.1,99.5,61.9,99.5z"/>
						</g>
					</g>
				</g>
			</g>
			<g>
				<g>
					<path style="&st2;" d="M99,244.4l-0.5-0.1c-64.8-20.2-69.9-66.7-69.9-67.2l0.2-103.7l141.1,0.3l-0.2,103.7
						c0,0.5-5.3,46.9-70.2,66.8L99,244.4z M31.7,177.1c0.1,0.7,1.6,11.9,10.6,25.2c8.3,12.2,24.8,28.8,56.7,38.9
						c17.8-5.5,41.9-16.7,56.9-38.6c9.1-13.3,10.6-24.5,10.7-25.2l0.2-100.5L32,76.5L31.7,177.1z"/>
				</g>
			</g>
			<g>
				<g>
					<polygon style="&st2;" points="99.7,157.3 81.7,75.5 83.1,75.2 100.4,153.9 117.5,75.2 118.9,75.5 101.1,157.3 					"/>
				</g>
			</g>
			<g>
				<g>
					
						<rect x="30.4" y="73.7" transform="matrix(1 2.300948e-03 -2.300948e-03 1 0.1936 -0.2301)" style="&st2;" width="139.3" height="20.6"/>
				</g>
			</g>
			<g>
				<g>
					<polygon style="&st2;" points="76.4,172.5 75.7,171.3 100,156.8 100.8,158 					"/>
				</g>
			</g>
			<g>
				<g>
					<polygon style="&st2;" points="124.6,172.8 98.4,158 99.1,156.8 124.5,171.2 148.6,156.9 149.3,158.1 					"/>
				</g>
			</g>
			<g>
				<g>
					
						<rect x="67.7" y="139" transform="matrix(0.5113 0.8594 -0.8594 0.5113 184.8773 27.3779)" style="&st2;" width="1.4" height="74.5"/>
				</g>
			</g>
			<g>
				<g>
					
						<rect x="85.4" y="157.5" transform="matrix(0.5096 0.8604 -0.8604 0.5096 211.4601 22.3405)" style="&st2;" width="1.4" height="78.3"/>
				</g>
			</g>
			<g>
				<g>
					<polygon style="&st2;" points="75.9,235.3 75.2,234.1 167.3,179.5 168,180.7 					"/>
				</g>
			</g>
			<g>
				<g>
					
						<rect x="93.3" y="175.1" transform="matrix(0.8569 0.5154 -0.5154 0.8569 109.3124 -42.1488)" style="&st2;" width="74.5" height="1.4"/>
				</g>
			</g>
			<g>
				<g>
					
						<rect x="148.4" y="162.1" transform="matrix(0.8496 0.5275 -0.5275 0.8496 109.8739 -59.3959)" style="&st2;" width="21.4" height="1.6"/>
				</g>
			</g>
			<g>
				<g>
					
						<rect x="73.5" y="195.5" transform="matrix(0.8563 0.5165 -0.5165 0.8563 117.5301 -29.9748)" style="&st2;" width="78.2" height="1.4"/>
				</g>
			</g>
			<g>
				<g>
					
						<rect x="23.7" y="206" transform="matrix(0.8582 0.5134 -0.5134 0.8582 117.0868 -10.3129)" style="&st2;" width="107.1" height="1.4"/>
				</g>
			</g>
			<g>
				<g>
					<path style="&st0;" d="M36,172.9L36,172.9c-6.3,0-12.2-1.4-17.8-4C12,166,6.8,161.6,3,155.8l-2.4-3.6l12.1-7.7l0-11.4l9.9-8.7
						l-2.4,0c-2,0-4.4,1.1-7.1,3.2l-2.7,2.2l-9.6-8.1l19.9-26.6l8.9,0l0.7,2.6l34,0.1l0,11.9l-15,13.7c4.1,2,7.7,4.7,10.7,8.3
						c3,3.6,4.6,7.9,4.6,12.8c-0.3,7.9-3.2,14.6-8.7,20.1C50.5,169.9,43.8,172.7,36,172.9L36,172.9z M39.8,152.6
						c1.8,0.4,3.7,0.4,5.5,0c-3.6-2.9-7.5-5.1-11.6-6.4c-2-0.7-4.1-1.1-6.1-1.5C30.8,148.7,34.8,151.2,39.8,152.6z"/>
				</g>
			</g>
			<g>
				<g>
					<path style="&st1;" d="M16.9,135l16.9-14.9l-13.6,0c-3,0-6.3,1.4-9.7,4.2L6.6,121l16.2-21.7l3.6,0c0.4,1.5,1.5,2.4,3.2,2.6
						l30.5,0.1l0,5.8L41.2,125c6.3,1.5,11.4,4.7,15.5,9.4c2.4,2.8,3.5,6.2,3.5,10.1c-0.2,6.7-2.7,12.4-7.5,17.1
						c-4.5,4.5-10.2,6.9-16.9,7.1c-5.6,0-10.9-1.2-15.9-3.6c-5.6-2.6-10.1-6.5-13.6-11.7l15.2-9.7c4.1,6.7,9.8,11,17.1,13
						c3.2,0.7,6.5,0.5,9.7-0.6c2.4-1.3,2.8-3,1.3-5.2c-4.5-4.1-9.5-7-14.9-8.8c-6-2-12.1-2.5-18.1-1.7L16.9,135z"/>
				</g>
			</g>
			<g>
				<g>
					<g>
						<path style="&st0;" d="M165,173.7L165,173.7c-6.4,0-12.4-1.4-17.9-4.1c-6.3-2.9-11.5-7.4-15.4-13.3l-2.6-4l12.2-7.8l0-11.4
							l9.2-8.1l-1.3,0c-1.9,0-4.2,1.1-6.8,3.2l-3,2.4l-10.2-8.5L149.5,95l9.4,0l0.7,2.6l34.1,0.1l0,12.5L179,123.6
							c3.9,2,7.3,4.7,10.3,8.1c3.1,3.7,4.7,8.1,4.7,13.1c-0.3,8-3.3,14.9-8.9,20.4C179.7,170.6,173,173.4,165,173.7L165,173.7z
							 M169,152.5c1.5,0.3,2.9,0.3,4.4,0.1c-3.4-2.6-7-4.5-10.8-5.8c-1.6-0.5-3.3-0.9-4.9-1.2C160.7,149,164.5,151.3,169,152.5z"/>
					</g>
				</g>
				<g>
					<g>
						<path style="&st1;" d="M145.9,135.3l16.9-14.9l-13.6,0c-3,0-6.3,1.4-9.7,4.2l-3.9-3.2l16.2-21.7l3.6,0
							c0.4,1.5,1.5,2.4,3.2,2.6l30.5,0.1l0,5.8l-18.8,17.1c6.3,1.5,11.4,4.7,15.5,9.4c2.4,2.8,3.6,6.2,3.5,10.1
							c-0.2,6.7-2.7,12.4-7.5,17.2c-4.5,4.5-10.2,6.9-16.9,7.1c-5.6,0-10.9-1.2-15.9-3.6c-5.6-2.6-10.1-6.5-13.6-11.7l15.2-9.7
							c4.1,6.7,9.8,11,17.1,13c3.2,0.7,6.5,0.4,9.7-0.6c2.4-1.3,2.8-3,1.3-5.2c-4.5-4.1-9.5-7-14.9-8.8c-6-2-12.1-2.5-18.1-1.7
							L145.9,135.3z"/>
						<path style="&st0;" d="M165,173.7L165,173.7c-6.4,0-12.4-1.4-17.9-4.1c-6.3-2.9-11.5-7.4-15.4-13.3l-2.6-4l12.2-7.8l0-11.4
							l9.2-8.1l-1.3,0c-1.9,0-4.2,1.1-6.8,3.2l-3,2.4l-10.2-8.5L149.5,95l9.4,0l0.7,2.6l34.1,0.1l0,12.5L179,123.6
							c3.9,2,7.3,4.7,10.3,8.1c3.1,3.7,4.7,8.1,4.7,13.1c-0.3,8-3.3,14.9-8.9,20.4C179.7,170.6,173,173.4,165,173.7L165,173.7z
							 M169,152.5c1.5,0.3,2.9,0.3,4.4,0.1c-3.4-2.6-7-4.5-10.8-5.8c-1.6-0.5-3.3-0.9-4.9-1.2C160.7,149,164.5,151.3,169,152.5z"/>
					</g>
				</g>
			</g>
			<g>
				<g>
					<path style="&st0;" d="M165,173.2L165,173.2c-6.3,0-12.2-1.4-17.8-4c-6.3-2.9-11.4-7.3-15.3-13.2l-2.4-3.6l12.1-7.7l0-11.4
						l9.9-8.7l-2.5,0c-2,0-4.4,1.1-7.1,3.2l-2.7,2.2l-9.6-8.1l19.9-26.6l8.9,0l0.7,2.6l34,0.1l0,11.9l-15,13.7
						c4.1,2,7.7,4.7,10.7,8.3c3,3.6,4.6,7.9,4.6,12.8c-0.3,7.9-3.2,14.6-8.7,20.1C179.5,170.2,172.9,173,165,173.2L165,173.2z
						 M168.9,152.9c1.8,0.4,3.7,0.4,5.5,0c-3.6-2.9-7.5-5.1-11.6-6.4c-2-0.7-4.1-1.1-6.1-1.5C159.8,149,163.9,151.6,168.9,152.9z"/>
				</g>
			</g>
			<g>
				<g>
					<path style="&st1;" d="M145.9,135.3l16.9-14.9l-13.6,0c-3,0-6.3,1.4-9.7,4.2l-3.9-3.2l16.2-21.7l3.6,0c0.4,1.5,1.5,2.4,3.2,2.6
						l30.5,0.1l0,5.8l-18.8,17.1c6.3,1.5,11.4,4.7,15.5,9.4c2.4,2.8,3.6,6.2,3.5,10.1c-0.2,6.7-2.7,12.4-7.5,17.2
						c-4.5,4.5-10.2,6.9-16.9,7.1c-5.6,0-10.9-1.2-15.9-3.6c-5.6-2.6-10.1-6.5-13.6-11.7l15.2-9.7c4.1,6.7,9.8,11,17.1,13
						c3.2,0.7,6.5,0.4,9.7-0.6c2.4-1.3,2.8-3,1.3-5.2c-4.5-4.1-9.5-7-14.9-8.8c-6-2-12.1-2.5-18.1-1.7L145.9,135.3z"/>
				</g>
			</g>
			<g>
				<g>
					<polygon style="&st0;" points="161.9,144.5 173.1,150.2 173.6,153.9 169.9,155.8 162.8,153.4 					"/>
				</g>
			</g>
			<g>
				<g>
					<polygon style="&st0;" points="29,142.4 26,144.2 31.7,148.5 37.3,149.9 37.3,145.7 					"/>
				</g>
			</g>
			<g>
				<g>
					<g>
						<g>
							<path style="&st0;" d="M127.4,250.6c-2.2,0-5.2-0.3-7.4-0.5c-1-0.1-1.9-0.2-2.4-0.2c-0.1,0-7.8-0.6-9.7-2.7
								c-1.8-2-0.5-4.6,0.4-6.4c0.1-0.3,0.3-0.6,0.4-0.8c0.1-0.3,0.4-0.9,0.7-1.7c-1.1,0.2-2.1,0.2-2.7,0.2c-0.3,0-0.6,0-0.9,0
								c-2.1-0.1-3.7-0.9-4.8-1.8c-0.5-0.1-1.1-0.3-1.9-0.5c-0.8-0.3-3.5-0.7-5.8-1.1l-5.3,0c-0.4,0.2-1,0.4-1.7,0.6
								c-0.5,0.1-1,0.2-1.5,0.2c-1.1,0-1.9-0.4-2.4-0.7c-0.1,0-0.2-0.1-0.3-0.1c-0.2,0.1-0.4,0.2-0.6,0.3c-0.6,0.3-1.4,0.7-2.4,1.1
								c-1,0.4-2,0.9-2.9,1.4c-1.3,0.7-2.4,1.3-3.7,1.6c-1.6,0.5-3.3,0.1-4.4-1c-1.6-1.7-1.5-4.2-1.4-6.3c0.2-3.8,4.7-6.8,8.4-8.6
								c1.2-0.6,2.1-1.8,2.9-3c0.2-0.3,0.5-0.6,0.7-0.9c1.9-2.4,5.8-3.8,7.9-3.9l0.3,0c2.6,0,4.6,2.2,6,6.8c0,0.1,0,0.1,0.1,0.2
								c1.2-0.1,2.9-0.5,3.4-0.8c1.1-0.9,2.5-1.2,5.2-1.2c0.5,0,1,0,1.5,0c0.1-0.3,0.1-0.7,0.2-1c-1.2-0.4-2.2-0.7-3-1.6
								c-1-1.1-1.4-2.3-1.2-3.5c0.2-1.3,1-2.2,1.7-2.8c0.3-0.4,0.6-1.4,0.6-1.8c0-0.8,0.3-1.6,0.6-2.2c0,0,0,0,0-0.1
								c0,0-0.1-0.1-0.1-0.1c-0.9-0.5-2.7-1.7-2.7-3.8c-0.1-0.2-0.2-0.7-0.4-1.2c-0.5-1.3-1.2-3.3-2-6.5c-1.6-6.1,2.8-10.8,4.4-12.6
								c0.1-0.1,0.2-0.2,0.2-0.2c0.6-1.4,1.8-2.7,2.6-3.6c0-0.2-0.1-0.4-0.1-0.6c-0.1-0.6-0.2-1.2-0.1-1.8c0.1-2.7,0.4-4.3,0.8-5.3
								c-0.2-0.4-0.4-1-0.6-1.4l-0.4-0.8l0-0.8c0-0.5,0-2.9,0-4.8c0-2.7,0-4.5,0.1-5c0,0,0.3-4.6,2.2-6.8c0.1-0.7,0-2.2,0-2.8l0-0.1
								c-0.1-2.2,1.1-7.1,2.2-9.1c0.6-1,3.5-8,4.5-10.3l0.5-1.2c0.7-1.7,1.2-4.6,1.3-5.6c0.1-2,1.9-5.8,3-6.8c0.7-0.6,1.6-1,2.6-1
								c1,0,1.9,0.4,2.3,0.7l2,1.1l0.3,1.4c1,4.3,2,9.8,1.3,12.1c-0.6,2-2.1,3.4-3.1,4.4c-0.2,0.2-0.5,0.5-0.7,0.7
								c-0.4,1.2-0.8,5.6-0.9,7.3c0,0.1,0,0.2,0,0.4c0.6-0.1,1.2-0.2,1.7-0.2c3.4,0.2,5.8,2.9,6.8,5.5c0.5,1.2,0.5,3,0.2,5.5
								c0.4,1,0.3,2.1-0.1,3c0,0.2,0,0.4,0,0.6c0,0.5-0.1,0.9-0.3,1.3c0.5,0.1,0.8,0.1,1,0.2c1.5,0.2,2.9,1,3.8,1.6
								c0.5,0,1,0.1,1.6,0.2c0.1-0.6,0.2-1,0.2-1.2c0-0.8,0.3-1.5,0.6-2.1l-0.3-0.1l0.4-0.2c0.1-0.2,0.2-0.3,0.3-0.4
								c0-0.4,0.1-0.9,0.3-1.3c0-0.7,0.1-1.5,0.4-2.2c-0.2-0.8-0.3-1.7-0.3-2.3c-0.2-0.3-0.5-0.7-0.6-0.9c-0.9-1-1.2-2.6-0.6-3.9
								c0.2-0.4,0.5-0.8,0.8-1.2c-0.1-0.3-0.1-0.7-0.1-1.1c0-0.7,0.3-1.4,0.6-2c0-0.6,0.2-1.2,0.6-1.8c0.4-0.6,1.2-1.4,2.7-1.6
								l0.5,0c0.3,0,0.6,0,0.9,0.1c0.1,0,0.1,0,0.2,0l0.2,0c2.7,0.1,3.8,3.6,4,4.2c0,0.1,0,0.1,0.1,0.2c1.3-0.3,2.9,0.1,3.8,1.2
								c1.6,1.8,0.7,4.4-0.6,5.7c-0.2,0.3-0.5,1-0.6,1.4c0,0.2-0.1,0.3-0.1,0.5c-0.2,0.8-0.4,2.2-1.4,3.3c0,0,0,0,0,0
								c0.5,0.7,0.6,1.5,0.6,1.8c0,0.2,0,0.4,0,0.5c0.6,2,0.6,4.7,0.3,8.2l0,0.2c0,0.8-0.4,1.6-0.8,2.2c-0.1,0.7-0.3,1.7-0.6,2.5
								c-0.8,1.9-2.8,3.9-5.2,3.9l0,0l-0.2,0c-0.1,0-0.2,0-0.3,0c-0.4,0-1.1,0-2.5,0.4c-0.5,0.1-1.1,0.2-1.8,0.2
								c-1,0-2.1-0.1-3.1-0.3c0,0.8,0,1.8,0,2.4c0,0.8,0,1.6,0,2.2c-0.1,2.7-1.5,6.3-2.8,8.6c-0.2,0.4-0.4,0.7-0.5,1
								c0.9,0.9,1.6,2,1.9,3.1c0.1,0.6,0.5,1.8-1,4.3c1.1,1.5,2.4,3.4,2.8,4.6c1,2.8-1.6,7.8-3.9,11.6c-0.3,0.5-0.8,1.2-0.9,1.5
								c-0.1,1.2-0.5,4-1.5,6.2c-0.5,1.2-1.9,4.5-2.7,6.5c0.1,0.3,0.1,0.6,0.1,0.8c0,0.3-0.1,2.7-0.1,4.2c0.4,0.8,0.5,1.7,0.6,2.2
								c0.1,0.4,0.2,0.9,0.3,1.4c0.1,0.6,1,1.5,1.9,1.8c1.5,0.6,4.4,1.8,5.8,4.5c2.2,4.2-1.5,6.4-2.6,7.2
								C130.9,250.4,129.6,250.6,127.4,250.6z M114.3,243.1c1.2,0.3,2.6,0.5,3.6,0.5c0.6,0,1.5,0.1,2.6,0.2c1.9,0.2,4.5,0.4,6.4,0.4
								c-0.3-0.1-0.5-0.2-0.7-0.3c-2.2-0.9-5-3.1-5.7-6.3c-0.1-0.3-0.1-0.7-0.2-1l-0.9,0l0.1-3.1c0-0.6,0-1.6,0.1-2.5l-0.8,0
								c-0.2,4-0.9,4.7-1.5,5.3c-0.6,1.6-2.1,5.3-2.7,6.4C114.5,242.9,114.4,243,114.3,243.1z M105.1,231.9c0.2,0.1,0.5,0.3,1.1,0.3
								c1,0,1.9,0,2.3-0.1l0.3-0.1c0.9-0.4,2-1.1,2.4-1.5c0.6-1.4,1.6-3.8,1.6-3.8l6.1,1.3c0,0.1,0,0.2,0,0.3l0.6-1.5
								c0.1-0.3,2.6-6.5,3.4-8.3c0.6-1.2,0.9-3.2,0.9-4c0.1-1.8,1-3.2,1.9-4.6c1.2-1.9,2.8-5.1,3.2-6.3c-0.5-0.9-1.8-2.8-3.1-4.4
								l-1.6-2l1.6-2c0.2-0.3,0.4-0.6,0.6-0.8l-2.5-0.1l0.5-3.4c0-0.3,0.4-2.5,1.9-5.2c1.2-2.1,1.9-4.6,2-5.8c0-0.5,0-1.2,0-1.9
								c0-3.5,0-5.4,1.2-6.7c0,0,0,0,0,0l0.7-3.2l3.2,0.8c1.1,0.3,3.2,0.7,4.4,0.7c0.2,0,0.3,0,0.3,0c1.2-0.3,2.2-0.4,3-0.5l-3-0.7
								c-1-0.2-2.9-0.6-3.7-0.6l-1.5,0.5l-1.4-1.3c-0.4-0.4-1.1-0.8-1.4-0.9l-0.2,0l-0.3-0.1c0,0-1.3-0.3-2.6-0.3
								c-0.7,0-1,0.1-1,0.1l-0.7,0.3l-0.8-0.1c-0.9-0.1-2-0.7-2.7-1.8l0,0l0,0c-0.1-0.1-0.1-0.2-0.2-0.4c-0.2-0.5-0.7-1.9,0.3-3.6
								c0.1-0.3,0.2-1.2,0.1-1.8l-0.1-3.8l1.6,0.3l0-0.1c0.2-1.3,0.4-2.8,0.4-3.4c-0.4-0.8-1-1.3-1.2-1.4c-0.9,0.1-3,1.5-3.5,2.3
								l0,0l0,0c0,0,0,0,0,0c0,0,0,0,0,0l-6.2-1.3c0-0.2,0.1-0.5,0.2-0.7c1.1-4,1.7-6.7,1.8-7.2c0,0,0-0.8,0.1-2
								c-0.7,1.5-1.1,2.5-1.4,3c-0.5,0.9-1.4,4.4-1.3,5.4l0,0.1c0.1,2.3,0.3,5.4-1.5,7.2c-0.3,0.6-0.7,2.3-0.8,3c0,0.5,0,2.9,0,4.8
								c0,1.9,0,3.3,0,4.2c1,2,1.7,4.4,0.4,6.1c-0.1,0.5-0.3,1.7-0.3,3c0,0.1,0.1,0.4,0.1,0.6c0.2,1.4,0.5,3.9-1.3,5.5
								c-0.6,0.5-1.4,1.4-1.7,1.9c-0.2,0.9-0.8,1.5-1.5,2.2c-1.3,1.4-3.7,4-3,6.7c0.8,2.9,1.4,4.8,1.9,6c0.3,0.7,0.5,1.3,0.6,1.8
								c0.6,0.4,1.3,0.9,2,1.6c2,2.2,1,4.9,0.5,6.1c-0.1,0.2-0.1,0.3-0.2,0.4c-0.1,1-0.4,2.4-1,3.7c1.6,0.6,3.3,1.7,3.2,4.1
								c0,0.7-0.2,2.3-0.6,3.9c-0.3,1.4-1.1,5-4.4,5l-0.2,0c-0.1,0-0.3,0-0.5,0c-0.7,0-1.6-0.1-2.6-0.1c-0.8,0-1.3,0-1.5,0.1
								c-1.3,0.9-3.3,1.4-5,1.7c2.1,0.3,4.7,0.8,5.9,1.2c0.9,0.3,1.4,0.4,1.6,0.5l1.9-0.1L105.1,231.9z M86.3,222.5
								c-0.9,0.3-1.9,0.8-2.2,1.2c-0.2,0.2-0.4,0.5-0.6,0.8c-1.1,1.6-2.7,3.7-5.3,5c-1.9,0.9-3.3,1.9-4.2,2.6c0.9-0.5,1.9-1,3-1.4
								c0.6-0.2,1.2-0.5,1.7-0.8c1-0.5,2.2-1.2,3.7-1.2c0.7,0,1.4,0.1,2,0.4c0.3,0.1,0.6,0.3,0.8,0.4c0.5-0.2,0.9-0.4,0.9-0.4
								l0.6-0.3l2.2,0l0-0.1l-1.3-0.2l-0.2-2.5c0-0.2-0.1-0.8-0.3-1.4C86.8,223.7,86.5,223,86.3,222.5z M101.3,184.3
								c0,0.1,0,0.3-0.1,0.4C101.3,184.6,101.3,184.4,101.3,184.3z M142.7,161c-0.1,1.5-0.7,4-0.8,4.8l-0.6,3.1c0.2,0,0.3,0,0.5,0
								c0,0,0,0,0-0.1c0.1-0.2,0.1-0.8,0.1-1.2l0-1.2l0.8-0.8C142.9,163.1,142.8,161.7,142.7,161L142.7,161z"/>
						</g>
					</g>
					<g>
						<g>
							<path style="&st0;" d="M127.4,136.8c-0.2,0-0.4,0-0.5,0c-3.2-0.1-6.1-1.5-8.2-3.9c-2.1-2.3-3.2-5.4-3.1-8.5
								c0.3-6.5,5.8-11.5,12.4-11.2c3.2,0.2,6.1,1.5,8.2,3.9c2.1,2.3,3.2,5.4,3.1,8.5C138.9,131.9,133.8,136.8,127.4,136.8z
								 M127.5,119.5c-2.9,0-5.3,2.3-5.5,5.2c-0.1,1.5,0.4,2.9,1.4,3.9c1,1.1,2.3,1.7,3.8,1.8c3.1,0.1,5.6-2.2,5.7-5.2
								c0.1-1.5-0.4-2.9-1.4-3.9c-1-1.1-2.3-1.7-3.8-1.8C127.6,119.5,127.5,119.5,127.5,119.5z"/>
						</g>
					</g>
					<g>
						<g>
							<g>
								<path style="&st0;" d="M81.1,234.1c-0.9,0-3.9-0.3-4.4-4l0-0.1c-0.4-1.7,0.7-3.2,2.7-5.4c0.9-1,1.6-1.6,2.2-2.1
									c0.1-0.9,0.3-2.2,0.3-2.8c-0.1-0.5,0-0.9,0-1.4c-0.7-1.6-1.1-3.8-1.4-5.1l-0.3-1.5c-1.6-3.4-4.7-10.3-5.2-11.3
									c-0.1-0.3-0.6-0.9-1-1.4c-0.8-1.1-1.9-2.5-2.7-4.2c-1.2-2.6-0.7-6.5-0.3-8.8c-0.2-0.7-0.3-1.4-0.1-2.1
									c-0.1-0.2-0.3-0.4-0.6-0.7c-1.8-2.1-3.3-7.2-3.9-9.6c-0.6-0.1-1.3-0.3-2-0.8c-1.6-1-2.8-3.3-4.3-6.4c-0.3-0.5-0.5-1-0.7-1.3
									c-0.7-1.3-0.8-2.5-0.8-3.2c0-0.4,0-0.4-0.1-0.5c-0.8-1.6-0.8-4-0.6-8.6c0-1.7,0.1-3.5,0.1-4.9c-0.1-3.8,1.2-7.4,1.9-9
									c-0.1-0.9-0.5-2.7-0.7-3.4c-0.1-0.3-0.1-0.6-0.2-0.8c-0.3-0.7-1.6-2.7-2.3-3.6c-2-2.3-2.1-6.6-2.1-6.7c0-0.5-0.4-2-0.7-3.4
									c-0.1-0.6-0.2-1.1-0.4-1.8c-0.5-2.5-0.3-6.5,0-9.6l0-0.4c0-0.3-0.1-0.9-0.2-1.6c-0.7-0.5-1.3-1.3-1.6-2.7l0-0.1
									c-0.2-1,0-2.1,0.7-2.9c0-0.1,0.1-0.1,0.1-0.2c-0.2-0.6-0.2-1.2-0.1-1.8c0.3-1.5,1.6-2.8,3.1-3.2c0.6-0.1,1.2-0.1,1.8,0.1
									c0.9-0.1,1.9,0.1,2.6,0.6c0.8,0.5,1.5,1,2.6,6c0.4-1.6,0.8-2.9,0.9-3.5c-0.1-1.2,0.4-2,0.8-2.4c0.6-0.8,1.6-1.2,2.7-1.2
									c1,0,1.9,0.4,2.3,0.7c0.7,0.5,1.2,0.9,2.9,4.7c0.9,2,0.5,4.5,0.2,6.5c-0.1,0.4-0.1,0.7-0.1,1c0.3,1.2,2.3,4.7,3.1,6.2
									c0.3,0.6,0.6,1.1,0.8,1.5c1.2,2.3,3.6,7.9,3.8,9.2c0.1,0.5,0.6,1.6,1.1,2c2,1.3,3,4.3,3.5,6.2c1.4,1.4,2.5,3.5,2.9,5.7
									c0.5,2.5-0.7,5-1.6,6.4c0.1,3.9,0.2,6.3,0.1,7.2c0.6,0.7,1.4,2.1,3.2,6.4L90,162l-0.2,0.3c0.7,1.5,1.3,4.3,2.1,9.7
									c0.1,0.4,0.1,0.6,0.1,0.8c0.3,1.3-0.3,2.3-0.9,3.5c-0.2,0.4-0.6,1.2-0.9,1.7c1.3,2.5,2.3,7,2.3,7l0.6,2.8l-0.1,0.1
									c0.7,1.1,2,2.7,2.6,3.4c0.4,0.1,1,0.2,1.5,0.3c2,0.4,4.2,0.9,5.8,1.9c1.2,0.8,3.8,2.7,5.6,4l4,1.5c0.7-0.3,1.6-0.6,2.1-0.9
									c0.7-0.3,1.7-0.7,2.8-0.7c1,0,2.5,0.3,3.8,1.8c1.9,2.1,2,5.9,1.5,7.9c0,0.2,0.2,0.9,0.3,1.3c0.1,0.4,0.2,0.9,0.3,1.3
									c0.3,1.3,0.1,9.3-1,11c-0.7,1-1.8,1.7-3.1,1.7c-1.8,0-3.5-1.3-4-3c-0.2-0.4-0.8-1.5-1.2-2.3c-0.4-0.8-0.8-1.6-1.2-2.2
									c-0.6-1.2-2.8-3.6-3.3-4.1c-0.3-0.2-0.6-0.5-0.8-0.8c-0.9-0.3-2.1-0.8-3.9-1.6l-1.4-0.7l-0.1-0.4
									c-3.2-1.1-10.7-3.6-13.6-4.6c0.5,2.2,0.9,4.8,1.3,7l0.3,0.5c0.5,0.9,0.9,2.5,1.3,4.8c0.1,0.1,0.1,0.2,0.2,0.4
									c0.1,0.1,0.3,0.3,0.4,0.4c1.3,0.8,3.4,3.4,4.3,4.8c0.8,1.3,1,2.8,0.4,4.2c-0.8,2-2.9,3.1-4.6,3.4c-0.2,0.1-0.9,0.7-1.3,1.1
									c-0.4,0.4-0.9,0.8-1.5,1.3c-1.9,1.5-4.8,2.8-7.7,3.4C82.1,234.1,81.6,234.1,81.1,234.1z M88.2,220.3c0,1.2-0.2,2.9-0.5,4.2
									c0.9-0.8,1.9-1.7,3.1-2.2c-0.5-0.6-1-1.1-1.2-1.3c-0.2-0.1-0.6-0.5-1.1-0.9l-0.2,0.1L88.2,220.3z M114.1,206.4
									c0.8,0.7,1.8,1.8,2.7,3c-0.3-1.1-0.5-2.4-0.1-3.8c0.1-0.3,0.1-0.9,0-1.3c-0.5,0.2-1.2,0.5-1.6,0.7L114.1,206.4z M81.5,199.5
									c0.5,1.1,1.2,2.7,2,4.4c-0.3-1.1-0.5-2-0.7-2.3c-0.2-0.4-0.6-1-1.1-1.6C81.7,199.7,81.6,199.6,81.5,199.5z M84.4,189.5
									c0.3,0.4,3.2,3.8,4.1,5.1c0.9,1.3,1.6,1.7,1.8,1.8c0.1,0,6,1.9,11,3.6c-0.7-0.5-1.2-0.9-1.6-1.1c-0.5-0.3-2.6-0.7-3.5-0.9
									c-1.7-0.3-2.8-0.6-3.7-1.2c-1.3-0.9-5.3-6-5.7-7.8c-0.2-0.7-0.1-1.4,0-1.9l-0.2-0.8c-0.2-1.2-1.3-4.7-1.8-5.5
									c-1.7-2.6,0-5.7,1-7.6c0-0.1,0.1-0.1,0.1-0.2c0,0,0,0,0,0c-0.9-6-1.4-7.6-1.6-8.1c-0.6-1.1-1.2-2.1-1.1-3.2
									c-0.6-1.4-1.3-2.8-1.6-3.4c-1.2-1.2-1.7-3.2-1.5-4.7c0-0.7-0.1-4.4-0.2-7.5l0-1.2l0.7-0.9c0.5-0.7,1.1-1.8,1-2.2
									c-0.3-1.5-1.1-2.5-1.4-2.7l-1.1-0.7l-0.2-1.3c-0.2-1.3-0.8-2.8-1.1-3.3c-2.3-1.6-3.4-4.3-3.7-5.8c-0.1-0.4-0.6-1.5-1.1-2.8
									l-2.5,0.7c-0.4,0.1-0.9,0.3-1.2,0.5c0,0.1-0.1,0.1-0.1,0.2c-0.1,0.1-0.1,0.2-0.2,0.3c0,0.4,0,0.8,0,0.9l-0.2,4.2l-4-1.3
									c-0.4-0.1-0.9-0.4-1.5-0.9c0.9,1.3,1.8,2.9,2,4c0,0.2,0.1,0.4,0.2,0.7c0.7,3,1,4.7,0.8,6l-0.1,0.5l-0.2,0.4
									c0,0-1.7,3.5-1.6,6.7c0,1.6,0,3.4-0.1,5.2c-0.1,2-0.1,4.9,0,5.8c0.6,1.2,0.6,2.2,0.7,2.8c0,0.1,0,0.3,0,0.4
									c0.2,0.4,0.5,1,0.8,1.6c0.4,0.9,1.4,2.9,2,3.7c3.1,0.2,4.2,2.1,4.5,3.7c0.5,2.2,2.1,7.1,2.8,8c0.7,0.8,2.3,2.6,2.3,4.7
									l0.5,0.3l-0.5,2.2c-0.6,2.3-0.7,5.1-0.4,5.9c0.5,1.1,1.2,2,1.9,2.9c-0.4-1-0.5-1.8-0.3-2.7c0.1-0.3,0.1-0.5,0.1-0.5
									c0,0.1,0,0.2,0,0.2L84.4,189.5z M64.5,115.8c0.5,2.4,0.8,4.1,0.8,5c0,0.1,0,0.1,0,0.2c0.1-0.1,0.2-0.2,0.4-0.2
									c-0.2-1-0.5-2-0.5-2.3C65,117.3,64.7,116.4,64.5,115.8z"/>
							</g>
						</g>
						<g>
							<g>
								<path style="&st0;" d="M94.1,132.8l-6-2.1c-0.1,0.3,0.1,0.9,0.4,1.1c-0.2-0.1-1.1-0.4-2.6-0.5c-0.6,0-1,0-1.1,0.1
									c-0.3,0.1-0.7,0.1-1,0.1c0,0,0,0,0,0c-2.2,0-3.9-1.3-5.3-2.4c-0.4-0.3-0.8-0.6-1.2-0.9c-0.6,0.3-1.2,0.4-1.8,0.4
									c-1.9,0-3.3-1.2-4-2.3l-1.1-1.8l2.5-3.3c0.1-0.1,0.3-0.4,0.4-0.6c0.8-1.3,2.3-3.8,5.4-3.8c0.2,0,0.3,0,0.5,0
									c3,0.3,4.2,2.8,4.8,4.2c0.1,0.3,0.3,0.7,0.4,0.8c0.6,0.4,1.8,0.7,2.8,1c2.4,0.6,5.3,1.4,6.7,4.1
									C94.8,128.6,94.9,130.6,94.1,132.8z"/>
							</g>
						</g>
					</g>
					<g>
						<g>
							<path style="&st0;" d="M61.9,113.8c-4.5,0-8.4-3.2-9.4-7.6c-1.1-5.2,2.2-10.3,7.4-11.4c0.7-0.1,1.3-0.2,2-0.2
								c4.5,0,8.4,3.2,9.4,7.6c0.5,2.5,0,5.1-1.4,7.2c-1.4,2.1-3.6,3.6-6.1,4.1C63.2,113.7,62.6,113.8,61.9,113.8z M61.9,100.9
								c-0.2,0-0.5,0-0.7,0.1c-1.8,0.4-2.9,2.1-2.5,3.9c0.4,1.7,2.1,2.9,3.8,2.5c0.9-0.2,1.6-0.7,2.1-1.4c0.5-0.7,0.6-1.6,0.5-2.4
								C64.8,102,63.5,100.9,61.9,100.9z"/>
						</g>
					</g>
				</g>
				<g>
					<g>
						<g>
							<path style="&st2;" d="M145.3,154.3c1-0.6,0.9-2,1.2-3c0.3-1,1-2.3,1.4-2.7c0.4-0.3,0.7-1.2,0.6-1.4
								c-0.2-0.2-0.8-0.5-1.3,0.2c-0.5,0.7-1.1,1.9-1.4,1.9c-0.3,0-0.7,0.1-0.7-0.5c0-0.5-0.4-1.5-0.6-1.8c-0.2-0.2-0.4-1.6-0.7-2.6
								c-0.3-1-0.9-1.9-1.1-1.9c-0.2,0-0.5,0.1-0.5,0.3c0,0-0.3-0.5-0.6-0.5c-0.4,0-0.5,0.2-0.5,0.4c0.1,0.2,0.6,1.5,0.7,2.2
								c0,0-0.5-0.7-0.9-0.7c-0.3,0-0.5,0.1-0.5,0.5c0,0.3,0.5,1.4,0.6,1.9c0.1,0.5,0.3,1.9,0.3,2.1c0,0.1-0.3,0.3-0.5,0.1
								c-0.2-0.2-0.6-1-0.9-1c-0.4,0-0.7,0.6-0.4,0.9c0.3,0.3,1.4,1.9,1.4,2.4c0,0.5,0,1.6,0.3,2.1c0.2,0.5,0.2,1.4-0.1,2
								c-0.3,0.5-0.1,1.8-0.1,1.8c-0.9,0.8-0.1,1.4-0.1,1.4s-1.3,0.9-1.3,2c-0.1,1.2-0.8,4.8-0.8,4.8s-4.2-1-5.1-0.6
								c0,0-1.8-1.7-3.3-1.7c0,0-3.4-0.8-5.3-0.1c0,0-0.8-0.1-0.2-1c0.6-0.9,0.5-3.4,0.5-3.4s0.3,0.1,0.5,0.3c0.2,0.2,1,0.1,1-0.5
								c0-0.7-0.1-1.4,0.3-1.7c0.3-0.3-0.1-1.2-0.3-1c0,0,0.8-3.9,0.3-5.1c-0.5-1.2-1.9-3.4-4.1-3.5c-2.2-0.1-6.4,2.9-6.7,4.7
								c0,0,1.9-7,2-8.3c0.1-1.2,0.6-7.5,1.3-8.7c0.7-1.2,2.9-2.4,3.5-4.4c0.6-2-1.3-10.5-1.3-10.5l-0.8-0.5c0,0-0.7-0.5-1.1-0.1
								c-0.4,0.4-1.9,3.4-2,4.7c-0.1,1.2-0.6,4.5-1.5,6.7c-0.9,2.2-4.4,10.5-5.2,11.9c-0.8,1.4-1.8,5.7-1.7,7.2
								c0.1,1.6,0.3,4.2-0.6,5c-0.9,0.8-1.5,3.9-1.6,5c-0.1,1.1,0,8.7-0.1,9.8c0,0,1.6,3.1,1,3.6c-0.6,0.5-0.8,3.7-0.9,4.7
								c0,1,0.7,3.1-0.2,3.9c-0.9,0.8-2.5,2.7-2.6,3.3c0,0.6-6,4.9-4.5,10.6c1.5,5.7,2.6,7.5,2.5,8.4c0,0.9,1.7,1.3,2.7,2.4
								c1,1.1-0.4,3-0.4,4c0,1-0.7,3.1-1.6,4c-0.9,0.8-1,1.2-0.3,1.9c0.6,0.7,4.1,1.1,4.1,2.1c0,1-0.7,5.9-1.8,5.9
								c-1.1,0-5.6-0.4-6.5,0.4c-0.9,0.8-4.7,1.7-6.4,1.4c-1.7-0.3-1.7-0.3-1.7-0.3s-0.1-1.1-0.4-2.1c-0.3-1-1.6-4.7-3.1-4.6
								c-1.5,0.1-4.4,1.2-5.6,2.7c-1.1,1.5-2.4,3.7-4.7,4.8c-2.3,1.1-6.5,3.6-6.6,5.9c-0.1,2.2-0.2,4.7,1.6,4.1c1.8-0.5,4-2,6.4-3
								c2.4-0.9,3.5-2.2,5-1.6c1.4,0.6,1.4,1,2.5,0.7c1-0.3,1.9-0.7,1.9-0.7l4.5,0l0-0.3c0,0,6.4,0.9,8.3,1.5
								c1.8,0.6,2.4,0.6,2.4,0.6s1.1,1.4,3.4,1.5c2.4,0.1,4-0.3,4.1-0.5c0,0,3.3-1.5,3.9-2.9c0.6-1.4,1.7-3.9,1.7-3.9
								s-0.1,5.5-0.6,6l-0.5,0.4c0,0-2.3,5.6-2.9,6.9c-0.6,1.3-1.8,3.3-1.3,3.8c0.5,0.5,5.1,1.5,7.5,1.6c2.4,0.1,11,1.2,12.4,0.3
								c1.4-0.9,2.3-1.5,1.5-3c-0.8-1.6-2.5-2.4-4.2-3c-1.7-0.7-3.4-2.2-3.8-4.1c-0.4-1.8-0.5-3.3-1-3.4c0,0,0.1-5,0.1-5.3
								c0-0.3-0.5-0.3-0.5-0.3s2.5-6.4,3.3-8.2c0.8-1.8,1.1-4.2,1.2-5.2c0-0.9,0.6-1.9,1.4-3c0.7-1.2,4.2-7.1,3.6-8.8
								c-0.6-1.6-3.8-5.7-3.8-5.7s2.2-2.7,1.9-3.6c-0.2-1-1.5-2.3-2.6-2.3c0,0,0.3-1.9,1.5-4.1c1.3-2.2,2.3-5.2,2.4-7.2
								c0.1-1.9-0.1-6.1,0.4-6.6c0.5-0.5,0.7-1.5,0.7-1.5s4.4,1.1,6.2,0.7c1.8-0.4,2.8-0.5,3.7-0.5c0.9,0,1.9-1.1,2.3-2
								c0.4-0.9,0.4-2.4,0.4-2.4s0.7-0.7,0.7-1.2c0-0.5,0.7-7.5-0.8-8.2c0,0,1.2-0.5,0-0.8C145,157.5,144.7,154.6,145.3,154.3z"/>
						</g>
					</g>
					<g>
						<g>
							<path style="&st2;" d="M118.8,124.6c0.2-4.8,4.3-8.4,9-8.2c4.8,0.2,8.4,4.3,8.2,9c-0.2,4.8-4.3,8.4-9,8.2
								C122.3,133.4,118.6,129.3,118.8,124.6z"/>
						</g>
					</g>
					<g>
						<g>
							<g>
								<path style="&st2;" d="M63.1,139.8c0,0-2,4.1-1.9,8.2c0.1,4.1-0.5,10.7,0.2,12.2c0.7,1.4,0.1,2.2,0.8,3.5
									c0.8,1.4,2.6,5.7,3.9,6.6c1.3,0.8,2.7-0.3,3.1,1.6c0.4,1.8,2.1,7.7,3.5,9.4c1.5,1.7,1.8,2.6,1.4,3.3
									c-0.4,0.6,0.3,1.1,0.3,1.1s-1.3,5.5-0.2,8c1.1,2.5,3,4.2,3.6,5.6c0.7,1.4,6.1,13.3,6.1,13.3l-0.4,0.2c0,0,0.8,4,1.6,5.2
									c0.8,1.2,0,0.2,0,0.2s-0.3,0.9-0.2,1.3c0.1,0.5-0.2,5.1-0.8,5.2c-0.6,0.1-4.5,4-4.3,4.7c0.1,0.7-0.1,1.9,2.2,1.4
									c2.3-0.5,4.8-1.6,6.3-2.8c1.5-1.2,2.7-2.7,4.1-3c1.5-0.3,3.1-1.4,2.2-2.8c-0.9-1.3-2.7-3.4-3.4-3.9
									c-0.7-0.4-1.4-1.3-1.5-1.6c-0.1-0.3-0.4-0.2-0.4-0.2s-0.4-3.8-1-4.8l-0.5-0.3c0,0-1.4-9.8-2.5-11.6c-1.1-1.9-4-5.6-3.8-6.7
									c0.3-1.1,0.1-1.7,0.1-1.7s3.1,3.7,4,4.9c0.9,1.2,2.2,2.6,3.6,3c1.4,0.3,16,5.2,16.7,5.6l0.1,0.5c0,0,4,1.8,4.7,1.7
									c0,0,0.1,0.7,0.6,1c0.5,0.3,3.3,3.3,4.3,5.2c1,1.9,2.5,4.5,2.6,5.1c0.1,0.6,1.1,1,1.4,0.5c0.3-0.5,0.8-7.4,0.5-8.7
									c-0.3-1.3-0.9-2.7-0.6-4c0.4-1.3,0.2-3.9-0.8-5c-1-1.1-1.9-0.8-3-0.3c-1.1,0.5-3,1.2-3,1.2l-0.2,0.2l-4-1.6l-0.3,0.4
									c0,0-5.4-4-7.2-5.2c-1.8-1.2-6.3-1.5-7.3-2.1c-0.9-0.6-4.2-5.1-4.4-5.8c-0.1-0.7,0.1-1.1,0.1-1.1s-0.2-0.9-0.3-1.6
									c-0.1-0.7-1.3-5.2-2.3-6.7c-1-1.5,1.8-5,1.7-5.6c-0.1-0.5-1.2-8.3-2.1-10c-0.9-1.6-0.6-1.3-0.6-1.3l0.2-0.4
									c0,0-2.2-5.2-2.7-5.5c-0.5-0.3-0.8-1.5-0.7-2.3c0.1-0.8-0.1-7.9-0.1-7.9s2.1-2.6,1.7-4.8c-0.4-2.2-1.7-4-2.7-4.7
									c0,0-0.8-4.2-2.4-5.3c-1.6-1-2.4-3.2-2.5-4c-0.2-0.8-2.3-6.1-3.5-8.3c-1.2-2.3-4.5-7.8-4.3-9.3c0.1-1.5,0.9-4.6,0.2-6.1
									c-0.7-1.5-1.5-3.2-1.8-3.4c-0.2-0.2-0.9-0.4-0.8,0.2c0.1,0.7-2.2,8.5-2.2,8.5s0.3,2.7,1.5,3.5c1.2,0.8,2,4.7,2.2,5.5
									c0.2,0.7,1.1,4.8,1.1,4.8s-2.3,0.6-2.8,1.5c-0.6,0.9-1.2,1.6-1.1,2.2c0.1,0.5,0.1,1.1,0.1,1.1s-0.5-0.2-1.2-1.3
									c-0.6-1.2-2.2-3.3-2.3-5c-0.1-1.7-1.1-6.4-1.3-7.3c-0.2-0.9-1.2-3.1-0.6-4c0.6-0.9-1.5-9.1-2-9.4c-0.5-0.3-1.4,0.2-1.4,0.2
									s-0.3-0.5-0.6-0.4c-0.4,0.1-1,0.8-0.4,1.1c0,0,1.3,1.3,1.1,2.1c-0.2,0.7-1.2,0.6-1.2,0.6s-0.9,0-0.8,0.5
									c0.1,0.5,0.2,1,0.7,0.9c0.5-0.1,0.6,0.3,0.6,0.3s0.7,2.8,0.6,4.1c-0.1,1.3-0.7,6.5-0.1,9c0.5,2.6,1.1,4.7,1.1,5.7
									c0,1,0.4,3.7,1.4,4.8c1,1.1,2.8,4,3,4.9C62.3,135.1,63.3,138.7,63.1,139.8z"/>
							</g>
						</g>
						<g>
							<g>
								<path style="&st2;" d="M75.5,123.1c0.8-1.1,1.7-3.4,3.4-3.2c2,0.2,2.2,3.3,3.5,4.3c3.1,2.5,10.9,1.3,8.7,7.5
									c1.3-3.6-5-3.8-6.9-3.4c-2.6,0.5-5.4-4.5-7.9-3.1c-1.3,0.8-2.1-0.5-2.1-0.5S75.4,123.2,75.5,123.1z"/>
							</g>
						</g>
					</g>
					<g>
						<g>
							<circle style="&st2;" cx="61.9" cy="104.2" r="6.4"/>
						</g>
					</g>
				</g>
			</g>
			<g>
				<g>
					<path style="&st0;" d="M35.3,87.8l4.7,0l0,2.5l-6.8,0l0-11.4l2.1,0L35.3,87.8z"/>
				</g>
				<g>
					<path style="&st3;" d="M43.2,90.4l-2.1,0L41,79l2.1,0L43.2,90.4z"/>
				</g>
				<g>
					<path style="&st3;" d="M52.4,89.3c-0.5,0.5-1.1,0.8-1.7,1.1c-0.6,0.2-1.2,0.4-1.8,0.4c-1.5,0-2.7-0.5-3.5-1.5
						c-0.8-1-1.2-2.5-1.2-4.3c0-1.8,0.4-3.2,1.2-4.4c0.8-1.1,1.9-1.7,3.2-1.7c0.8,0,1.5,0.2,2.1,0.5c0.6,0.4,1.1,0.9,1.6,1.7
						l-1.6,1.8c-0.3-0.5-0.6-0.8-0.9-1.1c-0.3-0.2-0.7-0.4-1-0.4c-0.7,0-1.3,0.3-1.7,0.9c-0.4,0.6-0.6,1.4-0.6,2.5
						c0,1.2,0.2,2,0.6,2.7c0.4,0.6,1,1,1.8,1c0.3,0,0.5-0.1,0.8-0.2c0.3-0.1,0.5-0.3,0.7-0.4l0-1.6l-1.6,0l0-2.7l3.7,0L52.4,89.3z"
						/>
				</g>
				<g>
					<path style="&st3;" d="M59.2,79l2.9,11.4l-2.2,0l-0.6-2.3l-3.6,0l-0.6,2.3l-2.2,0l3-11.4L59.2,79z M57.7,81.1l-0.1-0.7
						l-0.1,0.7l-1.1,4.3l2.3,0L57.7,81.1z"/>
				</g>
				<g>
					<path style="&st0;" d="M72.6,81.6l-2.6,0l0,8.9l-2.1,0l0-8.9l-2.6,0l0-2.6l7.4,0L72.6,81.6z"/>
				</g>
				<g>
					<path style="&st3;" d="M80.8,80.4c0.8,1.1,1.2,2.5,1.2,4.3c0,1.8-0.4,3.2-1.2,4.3c-0.8,1.1-1.9,1.6-3.2,1.6
						c-1.3,0-2.4-0.5-3.2-1.6c-0.8-1.1-1.2-2.5-1.2-4.3c0-1.8,0.4-3.3,1.2-4.3c0.8-1.1,1.9-1.6,3.2-1.6C78.9,78.8,80,79.4,80.8,80.4
						z M75.8,82.4c-0.5,0.6-0.7,1.4-0.7,2.4c0,1,0.2,1.8,0.7,2.4c0.5,0.6,1,0.9,1.8,0.9c0.7,0,1.3-0.3,1.8-0.9
						c0.5-0.6,0.7-1.4,0.7-2.4c0-1-0.2-1.8-0.7-2.4c-0.5-0.6-1-0.9-1.8-0.9C76.9,81.5,76.3,81.8,75.8,82.4z"/>
				</g>
				<g>
					<path style="&st3;" d="M84.9,84.3l3.2-5.2l2.7,0l-3.4,5.4l3.7,6l-2.8,0l-3.4-5.7l0,5.7l-2,0l0-11.4l2,0L84.9,84.3z"/>
				</g>
				<g>
					<path style="&st3;" d="M97.6,79.1l2.9,11.4l-2.2,0l-0.6-2.3l-3.6,0l-0.6,2.3l-2.2,0l3-11.4L97.6,79.1z M96,81.2l-0.1-0.7
						l-0.1,0.7l-1.1,4.3l2.3,0L96,81.2z"/>
				</g>
				<g>
					<path style="&st3;" d="M103.4,90.5l-2.1,0l0-11.4l2.1,0L103.4,90.5z"/>
				</g>
				<g>
					<path style="&st0;" d="M112.9,79.1l1.6,6.8l1.7-6.8l3,0l0,11.4l-2.1,0l0-7.7l-0.2,1.4l-1.4,6.4l-1.8,0l-1.4-6.4l-0.2-1.4l0,7.7
						l-2,0l0-11.4L112.9,79.1z"/>
				</g>
				<g>
					<path style="&st3;" d="M122.4,90.6l-2.1,0l0-11.4l2.1,0L122.4,90.6z"/>
				</g>
				<g>
					<path style="&st3;" d="M127.8,82.9l2-3.7l2.6,0l-3.2,5.6l3.1,5.8l-2.6,0l-1.9-4l-2,4l-2.6,0l3.2-5.8l-3.2-5.6l2.6,0L127.8,82.9
						z"/>
				</g>
				<g>
					<path style="&st3;" d="M140.2,81.8l-2.7,0l0,8.9l-2.1,0l0-8.9l-2.6,0l0-2.6l7.4,0L140.2,81.8z"/>
				</g>
				<g>
					<path style="&st3;" d="M143,86.1c0,0.7,0.2,1.2,0.5,1.6c0.3,0.4,0.8,0.6,1.4,0.6c0.6,0,1.1-0.2,1.4-0.5
						c0.3-0.4,0.5-0.9,0.5-1.6l0-6.9l2,0l0,7.1c0,1.5-0.4,2.6-1.1,3.4c-0.7,0.8-1.7,1.2-2.9,1.2c-1.2,0-2.2-0.4-2.9-1.2
						c-0.7-0.8-1-1.9-1-3.4l0-7.1l2,0L143,86.1z"/>
				</g>
				<g>
					<path style="&st3;" d="M154.7,79.2c0.9,0,1.5,0.3,2,0.9c0.5,0.6,0.7,1.4,0.7,2.4c0,0.5-0.1,1-0.2,1.4c-0.2,0.4-0.4,0.8-0.7,1.1
						c0.5,0.6,0.8,1.4,0.8,2.4c0.1,1,0.3,2,0.6,3.1l-2.3,0c-0.1-0.5-0.2-1.2-0.3-2.1c0-0.4-0.1-0.7-0.1-0.9
						c-0.1-0.5-0.3-0.9-0.5-1.1c-0.2-0.2-0.5-0.3-0.9-0.4l-1.7,0l0,4.4l-2,0l0-11.4L154.7,79.2z M154.3,83.8c0.3,0,0.5-0.1,0.7-0.2
						c0.2-0.2,0.2-0.4,0.2-0.7c0-0.3-0.1-0.6-0.2-0.8c-0.2-0.2-0.4-0.3-0.7-0.3l-2.2,0l0,2L154.3,83.8z"/>
				</g>
				<g>
					<path style="&st3;" d="M166.3,81.8l-5.3,0l0,1.9l5,0l0,2.5l-5,0l0,1.9l5.3,0l0,2.6l-7.4,0l0-11.4l7.4,0L166.3,81.8z"/>
				</g>
			</g>
			<g>
				<g>
					<polygon style="&st0;" points="99.9,188.5 90.9,190.2 95.2,191.3 97.6,192.2 					"/>
				</g>
			</g>
			<g>
				<g>
					<path style="&st4;" d="M85.8,110.9l0-1.6c0-1.9,0.2-3.2,0.5-3.8c0.3-0.5,0.7-0.9,1.3-1.2c0.7-0.3,1.7-0.4,3.2-0.4l0.6,0
						c2.3,0,3.8,0.2,4.4,0.5c0.6,0.3,1.1,0.7,1.3,1.4c0.2,0.5,0.3,1.6,0.3,3.5l0,1.3c0,2.4-0.3,3.8-1,4.5c-0.3,0.3-0.7,0.5-1.3,0.7
						c-0.6,0.2-1.8,0.2-3.7,0.2c-2.4,0-3.9-0.3-4.5-0.9C86.1,114.5,85.8,113.1,85.8,110.9z M91.9,107.7l-0.7,0c-0.7,0-1.1,0-1.3,0.1
						c-0.3,0.1-0.4,0.7-0.4,1.7l0,0.9c0,1,0.1,1.5,0.2,1.7c0.2,0.2,0.7,0.3,1.6,0.3c1.1,0,1.8-0.1,2-0.2c0.2-0.2,0.3-0.7,0.3-1.5
						l0-1.2c0-0.8-0.1-1.3-0.3-1.5C93.2,107.8,92.7,107.7,91.9,107.7z"/>
					<path style="&st4;" d="M104,116.1l0-12.1l7.8,0c1.5,0,2.5,0.4,3,1c0.5,0.6,0.7,1.4,0.7,2.6l0,8.5l-3.9,0l0-6.9
						c0-0.5-0.1-0.8-0.3-1c-0.1-0.1-0.4-0.2-0.8-0.2l-2.7,0l0,8L104,116.1z"/>
				</g>
				<g>
					<path style="&st1;" d="M85.8,110.9l0-1.6c0-1.9,0.2-3.2,0.5-3.8c0.3-0.5,0.7-0.9,1.3-1.2c0.7-0.3,1.7-0.4,3.2-0.4l0.6,0
						c2.3,0,3.8,0.2,4.4,0.5c0.6,0.3,1.1,0.7,1.3,1.4c0.2,0.5,0.3,1.6,0.3,3.5l0,1.3c0,2.4-0.3,3.8-1,4.5c-0.3,0.3-0.7,0.5-1.3,0.7
						c-0.6,0.2-1.8,0.2-3.7,0.2c-2.4,0-3.9-0.3-4.5-0.9C86.1,114.5,85.8,113.1,85.8,110.9z M91.9,107.7l-0.7,0c-0.7,0-1.1,0-1.3,0.1
						c-0.3,0.1-0.4,0.7-0.4,1.7l0,0.9c0,1,0.1,1.5,0.2,1.7c0.2,0.2,0.7,0.3,1.6,0.3c1.1,0,1.8-0.1,2-0.2c0.2-0.2,0.3-0.7,0.3-1.5
						l0-1.2c0-0.8-0.1-1.3-0.3-1.5C93.2,107.8,92.7,107.7,91.9,107.7z"/>
					<path style="&st1;" d="M104,116.1l0-12.1l7.8,0c1.5,0,2.5,0.4,3,1c0.5,0.6,0.7,1.4,0.7,2.6l0,8.5l-3.9,0l0-6.9
						c0-0.5-0.1-0.8-0.3-1c-0.1-0.1-0.4-0.2-0.8-0.2l-2.7,0l0,8L104,116.1z"/>
				</g>
			</g>
			<polygon style="&st0;" points="28.7,56.8 30,59.4 32.8,59.8 30.7,61.8 31.2,64.6 28.7,63.3 26.2,64.6 26.7,61.8 24.6,59.8 
				27.4,59.4 			"/>
			<polygon style="&st0;" points="42.4,56.8 43.6,59.4 46.4,59.8 44.4,61.8 44.9,64.6 42.4,63.3 39.8,64.6 40.3,61.8 38.3,59.8 
				41.1,59.4 			"/>
			<polygon style="&st0;" points="56,56.8 57.3,59.4 60.1,59.8 58.1,61.8 58.5,64.6 56,63.3 53.5,64.6 54,61.8 51.9,59.8 54.8,59.4 
							"/>
			<polygon style="&st0;" points="141.8,56.8 143.1,59.4 145.9,59.8 143.9,61.8 144.3,64.6 141.8,63.3 139.3,64.6 139.8,61.8 
				137.7,59.8 140.6,59.4 			"/>
			<polygon style="&st0;" points="155.5,56.8 156.7,59.4 159.6,59.8 157.5,61.8 158,64.6 155.5,63.3 153,64.6 153.4,61.8 
				151.4,59.8 154.2,59.4 			"/>
			<polygon style="&st0;" points="169.1,56.8 170.4,59.4 173.2,59.8 171.2,61.8 171.7,64.6 169.1,63.3 166.6,64.6 167.1,61.8 
				165.1,59.8 167.9,59.4 			"/>
		</g>
		<g>
			<g>
				<polygon style="&st0;" points="893.1,180.7 303.9,180.7 238.2,177.5 960,177.5 				"/>
			</g>
			<g>
				<polygon style="&st0;" points="829.8,186.5 367.1,186.5 315.5,184.3 882.4,184.3 				"/>
			</g>
			<g>
				<path style="&st0;" d="M479.4,190.9h-1.7c-0.6,0-1,0.1-1.2,0.3c-0.2,0.2-0.3,0.5-0.3,1.1v23c0,0.5,0.1,0.9,0.3,1
					c0.2,0.2,0.6,0.3,1.2,0.3h1.7v1.8h-13.9v-1.8h1.9c0.6,0,1-0.1,1.2-0.3c0.2-0.2,0.3-0.5,0.3-1v-23.9l-8.5,27h-2.6l-8.1-27.5h-0.3
					v23.7c0,0.8,0.2,1.3,0.5,1.6c0.3,0.3,0.9,0.4,1.8,0.4h1.6v1.8h-9.1v-1.8h0.8c0.9,0,1.5-0.1,1.8-0.4c0.3-0.3,0.5-0.8,0.5-1.6
					v-22.3c0-0.5-0.1-0.9-0.3-1.1c-0.2-0.2-0.6-0.3-1.2-0.3h-1.6v-1.8h12.2l5.2,18.6l5.7-18.6h12V190.9z"/>
				<path style="&st0;" d="M513.4,190.9h-2.5c-0.6,0-1,0.1-1.2,0.3c-0.2,0.2-0.3,0.5-0.3,1.1v23c0,0.5,0.1,0.9,0.3,1
					c0.2,0.2,0.6,0.3,1.2,0.3h2.5v1.8h-15.3v-1.8h2.5c0.6,0,1-0.1,1.2-0.3c0.2-0.2,0.3-0.5,0.3-1v-23c0-0.5-0.1-0.9-0.3-1.1
					c-0.2-0.2-0.6-0.3-1.2-0.3h-2.5v-1.8h15.3V190.9z"/>
				<path style="&st0;" d="M547.8,190.9H546c-0.3,0-0.6,0.1-0.8,0.2c-0.2,0.1-0.3,0.3-0.3,0.4l0.3,0.8l5.3,8l5.4-6.9
					c0.2-0.3,0.4-0.5,0.5-0.8c0.1-0.2,0.2-0.5,0.2-0.7c0-0.3-0.1-0.6-0.4-0.8c-0.3-0.2-0.6-0.3-1.1-0.3h-1.7v-1.8h10.5v1.8
					c-1.5-0.1-2.6,0.2-3.5,0.7c-0.9,0.6-1.7,1.4-2.7,2.6l-6.1,7.9l8.5,13c0.3,0.5,0.7,0.9,1.1,1.1c0.4,0.2,0.9,0.4,1.3,0.4h1.5v1.8
					h-14.4v-1.8h1.7c0.2,0,0.4-0.1,0.6-0.2c0.2-0.1,0.3-0.3,0.3-0.5c0-0.1,0-0.2-0.1-0.3c0-0.1-0.1-0.2-0.1-0.3l-5.9-8.9l-5.9,7.6
					c-0.3,0.3-0.4,0.5-0.6,0.8c-0.1,0.2-0.2,0.5-0.2,0.7c0,0.3,0.2,0.5,0.5,0.7c0.3,0.2,0.7,0.3,1,0.3h1.7v1.8h-10.5v-1.8h1.4
					c0.8,0,1.6-0.3,2.4-0.8c0.7-0.5,1.6-1.4,2.5-2.5l6.5-8.4l-8.3-12.5c-0.3-0.4-0.6-0.8-0.9-1c-0.3-0.2-0.7-0.4-1.3-0.4H533v-1.8
					h14.7V190.9z"/>
				<path style="&st0;" d="M610.8,198.7h-2c-0.2-2.9-1-4.9-2.3-6.2c-1.3-1.2-3.3-1.9-6-1.8v24c0,0.7,0.1,1.2,0.4,1.4
					c0.3,0.2,0.8,0.4,1.6,0.4h1.8v1.8h-15.1v-1.8h1.8c0.8,0,1.4-0.1,1.6-0.4c0.3-0.2,0.4-0.7,0.4-1.4v-24c-2.7,0-4.7,0.6-6,1.8
					c-1.2,1.3-2,3.3-2.2,6.2h-2l0.7-9.6H610L610.8,198.7z"/>
				<path style="&st0;" d="M629,190.9v-1.8h13.6v1.8h-1.2c-0.8,0-1.3,0.1-1.6,0.4c-0.3,0.2-0.4,0.7-0.4,1.4v16
					c0,2.8,0.6,4.8,1.9,6.2c1.2,1.3,3.3,2,6.1,2c2.7,0,4.7-0.8,6-2.3c1.3-1.5,1.9-3.8,1.9-6.9v-14.3c0-0.9-0.3-1.5-0.9-1.9
					c-0.6-0.4-1.4-0.6-2.4-0.6v-1.8h8.5v1.8c-1.1-0.1-1.9,0.1-2.4,0.6c-0.6,0.4-0.9,1.1-0.9,1.9v14.4c0,3.8-1,6.6-3,8.4
					c-2,1.8-5.1,2.7-9.2,2.7c-2.6,0-4.9-0.4-6.9-1.3c-2-0.9-3.4-2.1-4.4-3.6c-0.7-1.1-1.2-2.3-1.3-3.5c-0.1-1.3-0.2-2.6-0.2-4.1
					v-13.8c0-0.7-0.1-1.2-0.4-1.4c-0.3-0.2-0.8-0.4-1.6-0.4H629z"/>
				<path style="&st0;" d="M711.2,218.3h-6.7c-1.7,0-2.9-0.3-3.5-1c-0.6-0.6-1.2-1.7-1.7-3c-0.1-0.2-0.1-0.4-0.2-0.5
					c-0.1-0.2-0.2-0.4-0.2-0.6c-0.2-0.3-0.3-0.7-0.4-1c-0.1-0.3-0.3-0.6-0.4-0.9c-0.9-2-1.6-3.6-2.3-4.8c-0.7-1.1-1.6-1.8-2.7-1.9
					h-3.9v10.6c0,0.5,0.1,0.9,0.3,1c0.2,0.2,0.6,0.3,1.2,0.3h1.5v1.8H679v-1.8h1.6c0.6,0,1-0.1,1.2-0.3c0.2-0.2,0.3-0.5,0.3-1v-23
					c0-0.5-0.1-0.9-0.3-1.1c-0.2-0.2-0.6-0.3-1.2-0.3H679v-1.8h17.5c3.4,0,6,0.7,7.9,2.1c1.8,1.4,2.8,3.3,2.8,5.6
					c0,1.9-0.6,3.4-1.8,4.7c-1.2,1.3-2.9,2.1-5.1,2.5c1.1,0.2,2.1,1,2.9,2.3c0.8,1.3,1.8,3.1,2.9,5.5c0.2,0.4,0.4,0.9,0.7,1.4
					c0.2,0.5,0.5,1,0.7,1.4c0.4,0.7,0.7,1.2,1.1,1.5c0.4,0.3,1.1,0.5,2,0.5c0.1,0,0.2,0,0.3,0c0.1,0,0.2,0,0.3,0V218.3z
					 M689.1,202.8h3.4c2.7,0,4.6-0.5,5.6-1.5c1-1,1.6-2.7,1.6-5.1c0-1.7-0.5-3.1-1.5-4c-1-0.9-2.3-1.4-4.1-1.4h-3.5
					c-0.6,0-1,0.1-1.2,0.3c-0.2,0.2-0.3,0.5-0.3,1.1V202.8z"/>
				<path style="&st0;" d="M755.5,198.6h-2c-0.4-2.6-1.2-4.5-2.4-5.8s-2.8-2-4.9-2h-4.7c-0.6,0-1,0.1-1.2,0.3
					c-0.2,0.2-0.3,0.5-0.3,1.1v10.3h2.1c1.4,0,2.5-0.4,3.3-1.2c0.8-0.8,1.2-1.9,1.2-3.4c0-0.1,0-0.2,0-0.3s0-0.2,0-0.4h2v12.3h-2
					c0.1-1.7-0.2-3-1-3.9c-0.8-0.9-1.9-1.4-3.4-1.4H740v11c0,0.5,0.1,0.9,0.3,1c0.2,0.2,0.6,0.3,1.2,0.3h4.7c2.2,0,3.9-0.6,5.1-1.9
					c1.1-1.3,2-3.4,2.5-6.2h1.9l-0.9,10h-25.1v-1.8h1.7c0.6,0,1-0.1,1.2-0.3c0.2-0.2,0.3-0.5,0.3-1v-23c0-0.5-0.1-0.9-0.3-1.1
					c-0.2-0.2-0.6-0.3-1.2-0.3h-1.7v-1.8h24.8L755.5,198.6z"/>
			</g>
			<polygon style="&st0;" points="238.2,171.8 304.8,171.8 304.8,146.2 265.1,146.2 265.1,68.1 238.2,68.1 			"/>
			<rect x="312.6" y="98.6" style="&st0;" width="25.8" height="73.2"/>
			<path style="&st0;" d="M435.9,107.2h-46.4v23.6h21.4v9c-0.1,3.4-0.8,5.4-2.3,6.3c-0.5,0.4-1.6,0.9-5.3,0.9h-20.8
				c-4.8-0.1-7.7-1.2-8.8-3.5c-0.8-1.3-1.3-4-1.3-8.5v-30.3c0-4.2,0.5-7,1.4-8.5c1.1-2.3,4.1-3.6,8.8-3.7h53.5V68.1h-63.8
				c-8.9,0.1-15.2,1.9-18.8,5.3c-3.8,3.4-5.8,10.3-5.9,20.7V147c0,8.2,1.7,14.3,5,18.2c3.4,4.3,9.7,6.5,18.8,6.6h41.4
				c7.6,0,13.3-1.8,16.9-5.3c4.1-3.7,6.2-10.5,6.2-20.4V107.2z"/>
			<path style="&st0;" d="M502.3,149l5.9,22.8h26.9l-32-103.7h-32.3l-32.1,103.7h26.9l5.8-22.8H502.3z M485.8,92.4l1.2-4.6l1.1,4.6
				l8.9,35.3h-20.1L485.8,92.4z"/>
			<polygon style="&st0;" points="653.4,68.1 565.3,68.1 565.3,92.8 596.3,92.8 596.3,171.8 622.2,171.8 622.2,92.8 653.4,92.8 			
				"/>
			<path style="&st0;" d="M746.9,156.5c1.6-4.9,2.5-18.4,2.6-40.2v-7.5c-0.1-14.5-1-23.9-2.8-27.7c-2.1-5-5.5-8.4-10.5-10.3
				c-3.8-1.7-11.9-2.7-23.9-2.7H700c-15.9,0.1-25.9,1.1-29.5,2.9c-4.4,2-7.5,5.3-9.4,10.2c-1.8,4-2.7,13.4-2.8,28v1.6
				c0,24.3,0.5,38.9,1.3,43.4c1.4,6.7,4.8,11.4,10.6,14.2c4.2,2,13.1,3.1,26.3,3.3h11.8c16.4-0.2,26.6-1.5,30.1-3.8
				C742.6,165.6,745.4,161.8,746.9,156.5z M723.6,120.1c0,17.3-0.8,21.2-1.5,22.7c-1.2,3.2-4.6,4.8-10.1,4.8h-3.5
				c-0.6,0-1.5,0-2.8,0.1h-2.5H698c-6.2-0.1-10-1.2-11.7-3.3c-0.9-1.2-2-4.2-2.1-17.4v-15.5c0-7,0.4-11.5,1.3-13.6
				c1.5-3.1,5.8-4.7,13.1-4.8h7.4c2.3-0.1,4.1-0.1,5.2-0.1c5.7,0,9.2,1.3,10.6,4.1c1.2,2.2,1.7,7.1,1.7,14.9V120.1z"/>
			<g>
				<polygon style="&st0;" points="817,171.8 826.8,171.8 833.7,151.3 813,119.6 845.3,68.1 816.1,68.1 786.6,119.6 				"/>
				<rect x="758.1" y="68.1" style="&st0;" width="25" height="103.7"/>
			</g>
			<rect x="933" y="68.1" style="&st0;" width="25.8" height="103.7"/>
			<polygon style="&st5;" points="704.2,105.3 708.6,114.3 718.4,115.7 711.3,122.6 713,132.4 704.2,127.8 695.4,132.4 697.1,122.6 
				690,115.7 699.8,114.3 			"/>
			<g>
				<path style="&st0;" d="M327.1,76.9h2.8c0.3-2.7,1.2-5.2,2.6-7.1c1.4-1.9,3.3-2.9,5.3-3.2c-2.8-2.9-6.5-4.8-10.7-5.2V76.9z"/>
				<path style="&st0;" d="M319.1,69.8c1.4,1.9,2.3,4.4,2.6,7.1h2.9V61.4c-4.5,0.2-8.5,2.1-11.5,5.1
					C315.4,66.7,317.5,67.7,319.1,69.8z"/>
				<path style="&st0;" d="M331.9,79.4c0.3,4.9,3,9.2,6.4,10.5c2.5-2.8,4.1-6.5,4.3-10.5H331.9z"/>
				<path style="&st0;" d="M331.9,76.9h10.6c-0.4-3.8-2-7.2-4.4-9.9C334.9,68.3,332.4,72.3,331.9,76.9z"/>
				<path style="&st0;" d="M319.7,76.9c-0.5-4.9-3.2-9.1-6.8-10.1c-2.5,2.7-4.2,6.2-4.6,10.1H319.7z"/>
				<path style="&st0;" d="M319.8,79.4h-11.5c0.2,4.1,1.9,7.9,4.5,10.7C316.5,89.1,319.5,84.6,319.8,79.4z"/>
				<path style="&st0;" d="M324.6,79.4h-2.9c-0.2,3-1.1,5.8-2.8,7.8c-1.7,2.1-3.8,3-6,3.1c3,3.1,7.1,5.1,11.6,5.3V79.4z"/>
				<path style="&st0;" d="M332.6,87.2c-1.6-2-2.6-4.8-2.8-7.8h-2.8v16.2c4.3-0.4,8.1-2.4,10.9-5.4C336,90,334.1,89,332.6,87.2z"/>
				<path style="&st0;" d="M308.3,78c0,0.2,0,0.3,0,0.5c0,0.2,0,0.3,0,0.5V78z"/>
			</g>
			<path style="&st0;" d="M895.8,149l5.9,22.8h26.9l-32-103.7h-32.3l-32.1,103.7H859l5.8-22.8H895.8z M879.2,92.4h2.3l8.9,35.3
				h-20.1L879.2,92.4z"/>
		</g>
	</g>
	<g>
	</g>
	<g>
	</g>
	<g>
	</g>
	<g>
	</g>
	<g>
	</g>
	<g>
	</g>
	<g>
	</g>
	<g>
	</g>
	<g>
	</g>
	<g>
	</g>
	<g>
	</g>
	<g>
	</g>
	<g>
	</g>
	<g>
	</g>
	<g>
	</g>
</g>
</svg>
