<?xml version="1.0" encoding="utf-8"?>
<!-- Generator: Adobe Illustrator 18.1.1, SVG Export Plug-In . SVG Version: 6.00 Build 0)  -->
<!DOCTYPE svg PUBLIC "-//W3C//DTD SVG 1.1//EN" "http://www.w3.org/Graphics/SVG/1.1/DTD/svg11.dtd" [
	<!ENTITY st0 "fill:#FFFFFF;stroke:#808080;stroke-width:0.25;stroke-miterlimit:10;">
	<!ENTITY st1 "fill:#29ABE2;">
	<!ENTITY st2 "fill:#F7931E;">
	<!ENTITY st3 "fill:#39B54A;">
	<!ENTITY st4 "fill:#FFFFFF;">
	<!ENTITY st5 "fill:none;">
]>
<svg version="1.1" id="レイヤー_1" xmlns="http://www.w3.org/2000/svg" xmlns:xlink="http://www.w3.org/1999/xlink" x="0px"
	 y="0px" viewBox="0 0 230 90" style="enable-background:new 0 0 230 90;" xml:space="preserve">
<g>
	<g>
		<path style="&st0;" d="M221.5,87.8H61.3c-2.2,0-4-1.8-4-4V6.3c0-2.2,1.8-4,4-4h160.2c2.2,0,4,1.8,4,4v77.5
			C225.5,86,223.7,87.8,221.5,87.8z"/>
		<path style="&st1;" d="M10,90c-2.5,0-4.5-2-4.5-4.5v-81C5.5,2,7.5,0,10,0h51.8v90H10z"/>
		<g>
			<path style="&st2;" d="M87.8,39.8c0-0.8-0.3-1.6-0.8-2.3s-1.5-1-2.7-1.1c-1.4,0-2.5,0.5-3.2,1.5s-1,2.5-1,4.4
				c0,1.7,0.3,3,0.9,4.2c0.6,1.1,1.8,1.7,3.5,1.8c1,0,1.8-0.3,2.5-0.9c0.6-0.6,1-1.5,1.1-2.6h6.5c0.1,1.8-0.6,3.7-2.1,5.7
				c-1.5,1.9-4.2,3-8.1,3.2c-4.2-0.2-7.1-1.4-8.8-3.8c-1.6-2.3-2.4-4.8-2.4-7.5c0-3.4,1-6.1,2.9-8.2s4.6-3.1,8.2-3.1
				c3.5,0.1,6.1,1,7.7,2.8c1.6,1.8,2.4,3.7,2.4,5.9H87.8z"/>
			<path style="&st2;" d="M118.8,42.3c0,3-0.8,5.6-2.6,7.8c-1.8,2.2-4.6,3.4-8.6,3.5c-3.9-0.1-6.7-1.3-8.5-3.5s-2.6-4.8-2.6-7.7
				c0-3,0.8-5.6,2.6-7.8c1.8-2.2,4.6-3.4,8.5-3.5c4,0.1,6.9,1.3,8.6,3.5C118,36.9,118.8,39.4,118.8,42.3z M111.9,42.3
				c0-1.9-0.3-3.3-0.9-4.3s-1.7-1.5-3.3-1.5c-1.4,0-2.5,0.5-3.2,1.4s-1.1,2.5-1.1,4.5c0,1.6,0.2,2.9,0.8,4.1
				c0.6,1.1,1.7,1.8,3.4,1.8c1.6,0,2.7-0.6,3.3-1.6C111.6,45.6,111.9,44.1,111.9,42.3z"/>
			<path style="&st2;" d="M128.8,31.7v13.8c0,0.8,0.2,1.4,0.8,2c0.5,0.5,1.4,0.8,2.6,0.8c1.1,0,1.9-0.2,2.5-0.7s0.8-1.1,0.8-1.8
				V31.7h6.9v14.5c0,0.4-0.1,1.1-0.4,2.1s-0.8,1.9-1.6,2.8c-0.5,0.5-1.3,1.1-2.6,1.7s-3.2,0.9-5.8,1c-3.5-0.1-6.1-0.9-7.7-2.4
				s-2.4-3.4-2.3-5.6V31.7H128.8z"/>
			<path style="&st2;" d="M156.5,31.7c3.2,0,5.5,0.7,7,2s2.2,3.1,2.2,5.4c-0.1,2.6-0.9,4.6-2.3,5.7c-1.5,1.2-3.2,1.7-5.2,1.7h-4.8
				v6.5h-6.9V31.7H156.5z M159.1,39.1c0-0.7-0.2-1.3-0.6-1.7s-1-0.6-1.7-0.6h-3.5v4.4h3.2c0.9,0,1.6-0.2,2-0.6
				S159.1,39.9,159.1,39.1z"/>
			<path style="&st2;" d="M189.7,42.3c0,3-0.8,5.6-2.6,7.8c-1.8,2.2-4.6,3.4-8.6,3.5c-3.9-0.1-6.7-1.3-8.5-3.5s-2.6-4.8-2.6-7.7
				c0-3,0.8-5.6,2.6-7.8c1.8-2.2,4.6-3.4,8.5-3.5c4,0.1,6.9,1.3,8.6,3.5C188.9,36.9,189.8,39.4,189.7,42.3z M182.8,42.3
				c0-1.9-0.3-3.3-0.9-4.3s-1.7-1.5-3.3-1.5c-1.4,0-2.5,0.5-3.2,1.4s-1.1,2.5-1.1,4.5c0,1.6,0.2,2.9,0.8,4.1
				c0.6,1.1,1.7,1.8,3.4,1.8c1.6,0,2.7-0.6,3.3-1.6C182.6,45.6,182.8,44.1,182.8,42.3z"/>
			<path style="&st2;" d="M199.4,31.7c0.3,0.6,0.9,1.5,1.6,2.7s1.5,2.4,2.3,3.8s1.5,2.6,2.2,3.8s1,2.1,1.2,2.9c0-0.3,0-0.7-0.1-1.1
				s-0.1-0.7-0.1-0.8V31.7h6.5v21.4h-6.5c-1.1-1.7-2-3.3-2.9-4.6c-0.8-1.3-1.6-2.5-2.2-3.5c-0.6-1-1.1-1.9-1.5-2.7s-0.7-1.5-0.8-2.1
				c0,0.2,0,0.5,0.1,0.9c0,0.4,0.1,0.7,0.1,1v11h-6.5V31.7H199.4z"/>
		</g>
		<g>
			<path style="&st3;" d="M114.1,6.4l2.4,13.9l2.7-13.9h5.6l2.7,13.9l2.3-13.9h6.5l-5.1,21.4h-6.8l-2.5-12.9l-2.3,12.9h-6.9
				l-5.2-21.4H114.1z"/>
			<path style="&st3;" d="M138.7,6.4h17.2v5.1h-10.3v2.9h8.7v4.9h-8.7v3.4h10.7v5.1h-17.6V6.4z"/>
			<path style="&st3;" d="M170.1,6.4c2.8,0,4.8,0.5,6,1.5c1.2,1,1.8,2.4,1.8,4.2c0,1-0.2,1.9-0.7,2.6s-1.1,1.3-1.9,1.7
				c1.2,0.4,2.1,1,2.6,1.8s0.8,1.9,0.8,3.3c0,2-0.7,3.6-2,4.7c-1.3,1.1-3.3,1.7-6,1.7h-11.3V6.4H170.1z M166.1,14.9h3.5
				c0.6,0,1.1-0.2,1.4-0.5c0.3-0.3,0.5-0.8,0.5-1.4c0-0.6-0.2-1.1-0.5-1.4c-0.4-0.3-1-0.4-2-0.4h-2.9V14.9z M166.1,22.9h3.7
				c0.9,0,1.6-0.2,1.9-0.6s0.5-0.9,0.5-1.4c0-0.6-0.2-1.1-0.6-1.5s-1-0.5-1.8-0.5h-3.7V22.9z"/>
		</g>
		<g>
			<path style="&st4;" d="M25.5,13.8V5.9h2.3v11.2h-2.4l-4.6-7.8v7.8h-2.3V5.9h2.4L25.5,13.8z"/>
			<path style="&st4;" d="M33.6,17.4c-1.4,0-2.4-0.4-3.1-1.2c-0.7-0.8-1.1-1.9-1.1-3.2c0-1.3,0.4-2.4,1.1-3.2
				c0.7-0.8,1.8-1.2,3.1-1.2c1.4,0,2.4,0.4,3.2,1.2c0.7,0.8,1.1,1.9,1.1,3.3c0,1.4-0.4,2.4-1.1,3.2C36.1,17,35,17.4,33.6,17.4z
				 M35.7,13.1c0-0.8-0.2-1.4-0.5-1.9c-0.3-0.5-0.8-0.7-1.5-0.7c-0.7,0-1.2,0.3-1.5,0.7c-0.3,0.5-0.5,1.1-0.5,1.9
				c0,0.8,0.2,1.4,0.5,1.9c0.3,0.5,0.8,0.7,1.5,0.7c0.7,0,1.2-0.2,1.5-0.7C35.6,14.5,35.7,13.8,35.7,13.1z"/>
			<path style="&st4;" d="M48.1,17.2h-2.2l-1.4-5.9l-1.3,5.9H41l-2.3-8.3h2.2l1.4,5.9l1.2-5.9h2.2l1.2,5.9l1.4-5.9h2.1L48.1,17.2z"
				/>
		</g>
		<g>
			<path style="&st4;" d="M26.9,29.4c-1.4,0-2.4-0.4-3.1-1.2c-0.7-0.8-1.1-1.9-1.1-3.2c0-1.3,0.4-2.4,1.1-3.2
				c0.7-0.8,1.8-1.2,3.1-1.2c1.4,0,2.4,0.4,3.2,1.2c0.7,0.8,1.1,1.9,1.1,3.3c0,1.4-0.4,2.4-1.1,3.2C29.3,29,28.3,29.4,26.9,29.4z
				 M29,25c0-0.8-0.2-1.4-0.5-1.9c-0.3-0.5-0.8-0.7-1.5-0.7c-0.7,0-1.2,0.3-1.5,0.7c-0.3,0.5-0.5,1.1-0.5,1.9c0,0.8,0.2,1.4,0.5,1.9
				c0.3,0.5,0.8,0.7,1.5,0.7c0.7,0,1.2-0.2,1.5-0.7C28.8,26.4,29,25.8,29,25z"/>
			<path style="&st4;" d="M40.1,22.9v6.2h-2.2v-5.2c0-0.4-0.1-0.8-0.3-1c-0.2-0.3-0.5-0.4-1-0.4c-0.5,0-0.9,0.2-1.2,0.5
				c-0.3,0.3-0.5,0.7-0.5,1.2v5h-2.2v-8.2h2.1V22c0.2-0.3,0.5-0.7,1-0.9c0.5-0.3,1-0.4,1.5-0.4c0.8,0,1.5,0.3,2,0.7
				C39.9,21.8,40.1,22.3,40.1,22.9z"/>
		</g>
		<g>
			<path style="&st4;" d="M20.7,43.6c-1.6,0-2.7-0.4-3.5-1.1s-1.1-1.6-1.1-2.7h2.3c0,0.6,0.2,1,0.7,1.4s1.1,0.5,1.9,0.5
				c0.7,0,1.2-0.1,1.5-0.4c0.3-0.2,0.5-0.6,0.5-1c0-0.7-0.4-1.1-1.1-1.3c-0.7-0.2-1.4-0.4-2.3-0.6c-0.9-0.2-1.6-0.5-2.3-0.9
				c-0.7-0.4-1-1.2-1.1-2.3c0-1.1,0.4-1.9,1.1-2.5s1.8-0.9,3.3-0.9c1.5,0,2.5,0.4,3.2,1.1c0.7,0.7,1,1.5,1,2.5h-2.2
				c0-0.6-0.2-1-0.6-1.3c-0.4-0.3-0.9-0.4-1.6-0.4c-0.6,0-1.1,0.1-1.5,0.4c-0.3,0.2-0.5,0.6-0.5,1.1c0,0.5,0.4,0.9,1,1.1
				s1.4,0.4,2.3,0.5c0.9,0.2,1.7,0.5,2.3,1c0.7,0.5,1,1.2,1.1,2.3c0,1.1-0.4,2-1.1,2.6S22.2,43.6,20.7,43.6z"/>
			<path style="&st4;" d="M26.4,41.1c0-1,0.3-1.7,0.8-2.1s1.1-0.6,1.8-0.7s1.3-0.2,1.8-0.2s0.8-0.3,0.8-0.7c0-0.3-0.1-0.6-0.3-0.7
				c-0.2-0.2-0.5-0.3-1-0.3c-0.5,0-0.9,0.1-1.2,0.3s-0.3,0.5-0.3,0.9h-2c0-0.9,0.3-1.6,0.8-2.1c0.6-0.5,1.5-0.8,2.7-0.8
				c1,0,1.9,0.2,2.5,0.6c0.6,0.4,0.9,0.9,1,1.6v5.2c0,0.2,0,0.4,0.1,0.5c0.1,0.1,0.2,0.2,0.4,0.3v0.4h-2.3c-0.1-0.1-0.2-0.3-0.2-0.5
				c0-0.2-0.1-0.4-0.1-0.6c-0.2,0.4-0.5,0.7-1,0.9c-0.4,0.2-1,0.4-1.6,0.4c-0.9,0-1.5-0.2-1.9-0.6C26.6,42.5,26.4,41.9,26.4,41.1z
				 M28.5,41c0,0.3,0.1,0.6,0.3,0.7c0.2,0.2,0.5,0.2,0.9,0.2c0.6,0,1-0.2,1.3-0.6c0.3-0.4,0.4-0.7,0.4-1.1v-1
				c-0.5,0.3-1.1,0.5-1.9,0.6C29,39.8,28.6,40.3,28.5,41z"/>
			<path style="&st4;" d="M37.9,32.1v11.2h-2.2V32.1H37.9z"/>
			<path style="&st4;" d="M41.8,39.8c0,0.6,0.2,1.1,0.4,1.5c0.3,0.4,0.7,0.6,1.3,0.6c0.5,0,0.8-0.1,1-0.3c0.2-0.2,0.4-0.4,0.5-0.7
				h2.2c-0.1,0.7-0.5,1.3-1.2,1.9c-0.7,0.6-1.6,0.8-2.7,0.9c-1.3,0-2.3-0.4-2.9-1.3c-0.7-0.8-1-1.8-1-3.1c0-1.3,0.3-2.3,0.9-3.2
				c0.6-0.8,1.6-1.3,2.9-1.3c1.4,0,2.4,0.5,3.1,1.3s0.9,1.8,0.9,2.8v0.9H41.8z M41.9,38.3h3.2c0-0.6-0.1-1-0.4-1.3s-0.7-0.4-1.2-0.5
				c-0.5,0-0.9,0.2-1.2,0.5C42,37.4,41.9,37.8,41.9,38.3z"/>
		</g>
		<g>
			<rect x="9.9" y="52.9" style="&st4;" width="47.3" height="31.5"/>
			<rect x="12.6" y="56.7" width="0.4" height="22.1"/>
			<rect x="13.6" y="56.7" width="0.4" height="22.1"/>
			<rect x="15.4" y="56.7" width="0.4" height="22.1"/>
			<rect x="16.2" y="56.7" width="0.9" height="22.1"/>
			<rect x="18.4" y="56.7" width="0.9" height="20.1"/>
			<rect x="19.8" y="56.7" width="0.4" height="20.1"/>
			<rect x="34.1" y="56.7" width="0.4" height="22.1"/>
			<rect x="35" y="56.7" width="0.4" height="20.1"/>
			<rect x="33.2" y="56.7" width="0.4" height="22.1"/>
			<rect x="53.9" y="56.7" width="0.4" height="22.1"/>
			<rect x="54.7" y="56.7" width="0.4" height="22.1"/>
			<rect x="52.9" y="56.7" width="0.4" height="22.1"/>
			<rect x="32.3" y="56.7" width="0.4" height="20.1"/>
			<rect x="22.4" y="56.7" width="0.9" height="20.1"/>
			<rect x="25.6" y="56.7" width="0.9" height="20.1"/>
			<rect x="30.9" y="56.7" width="0.9" height="20.1"/>
			<rect x="28.7" y="56.7" width="0.9" height="20.1"/>
			<rect x="26.9" y="56.7" width="1.3" height="20.1"/>
			<rect x="38.1" y="56.7" width="1.3" height="20.1"/>
			<rect x="24.7" y="56.7" width="0.4" height="20.1"/>
			<rect x="37.3" y="56.7" width="0.4" height="20.1"/>
			<rect x="42.2" y="56.7" width="1.3" height="20.1"/>
			<rect x="41.3" y="56.7" width="0.4" height="20.1"/>
			<rect x="40.4" y="56.7" width="0.4" height="20.1"/>
			<rect x="45.8" y="56.7" width="1.3" height="20.1"/>
			<rect x="44.4" y="56.7" width="0.4" height="20.1"/>
			<rect x="48.9" y="56.7" width="1.3" height="20.1"/>
			<rect x="50.6" y="56.7" width="1.3" height="22.1"/>
			<rect x="47.5" y="56.7" width="0.4" height="20.1"/>
			<rect x="20.7" y="56.7" width="0.4" height="20.1"/>
		</g>
		<g>
			<path d="M18.2,81.6v-0.3h0.3c0.2,0,0.4,0,0.5-0.1c0.1-0.1,0.2-0.1,0.3-0.2c0.1-0.1,0.1-0.2,0.1-0.3c0-0.1-0.1-0.3-0.2-0.3
				s-0.3-0.1-0.4-0.1c-0.1,0-0.2,0-0.3,0c-0.1,0-0.2,0.1-0.2,0.1c0,0.1-0.1,0.1-0.1,0.2v0h-0.4v0c0-0.2,0.1-0.3,0.2-0.5
				c0.2-0.1,0.4-0.2,0.8-0.2c0.3,0,0.6,0.1,0.8,0.2c0.2,0.1,0.2,0.3,0.2,0.5c0,0.1,0,0.2-0.1,0.3c0,0.1-0.1,0.2-0.2,0.3
				c-0.1,0.1-0.2,0.2-0.4,0.2c0.3,0.1,0.5,0.2,0.6,0.4c0.1,0.2,0.2,0.4,0.2,0.6c0,0.3-0.1,0.5-0.3,0.7c-0.2,0.2-0.5,0.3-0.9,0.3
				c-0.3,0-0.6-0.1-0.7-0.2c-0.2-0.1-0.2-0.3-0.2-0.5v0h0.4v0c0,0.1,0.1,0.2,0.2,0.3c0.1,0.1,0.3,0.1,0.4,0.1c0.1,0,0.3,0,0.4-0.1
				c0.1-0.1,0.2-0.1,0.2-0.3c0.1-0.1,0.1-0.2,0.1-0.4c0-0.2-0.1-0.4-0.3-0.5c-0.2-0.1-0.4-0.2-0.8-0.2H18.2z"/>
			<path d="M20.9,83.3h-0.4l0.9-1.2l-0.8-1.2H21l0.6,0.9l0.6-0.9h0.4L21.7,82l0.8,1.3h-0.5l-0.6-0.9L20.9,83.3z"/>
			<path d="M23.6,81.6v-0.3h0.3c0.2,0,0.4,0,0.5-0.1c0.1-0.1,0.2-0.1,0.3-0.2c0.1-0.1,0.1-0.2,0.1-0.3c0-0.1-0.1-0.3-0.2-0.3
				s-0.3-0.1-0.4-0.1c-0.1,0-0.2,0-0.3,0c-0.1,0-0.2,0.1-0.2,0.1c0,0.1-0.1,0.1-0.1,0.2v0h-0.4v0c0-0.2,0.1-0.3,0.2-0.5
				c0.2-0.1,0.4-0.2,0.8-0.2c0.3,0,0.6,0.1,0.8,0.2c0.2,0.1,0.2,0.3,0.2,0.5c0,0.1,0,0.2-0.1,0.3c0,0.1-0.1,0.2-0.2,0.3
				c-0.1,0.1-0.2,0.2-0.4,0.2c0.3,0.1,0.5,0.2,0.6,0.4c0.1,0.2,0.2,0.4,0.2,0.6c0,0.3-0.1,0.5-0.3,0.7c-0.2,0.2-0.5,0.3-0.9,0.3
				c-0.3,0-0.6-0.1-0.7-0.2c-0.2-0.1-0.2-0.3-0.2-0.5v0h0.4v0c0,0.1,0.1,0.2,0.2,0.3c0.1,0.1,0.3,0.1,0.4,0.1c0.1,0,0.3,0,0.4-0.1
				c0.1-0.1,0.2-0.1,0.2-0.3c0.1-0.1,0.1-0.2,0.1-0.4c0-0.2-0.1-0.4-0.3-0.5c-0.2-0.1-0.4-0.2-0.8-0.2H23.6z"/>
			<path d="M27.9,83.3h-0.4v-3.4H28l1.1,2.4l1-2.4h0.4v3.4H30v-2l0-0.6h0l-0.2,0.6l-0.6,1.5h-0.4l-0.7-1.5l-0.2-0.6h0l0,0.6V83.3z"
				/>
			<path d="M31.2,83.3h-0.4l1.4-3.4h0.4l1.3,3.4h-0.5l-0.4-0.9h-1.5L31.2,83.3z M31.8,82H33l-0.6-1.6L31.8,82z"/>
			<path d="M36.8,83.1c-0.4,0.2-0.7,0.3-1,0.3c-0.3,0-0.6-0.1-0.8-0.2c-0.2-0.1-0.4-0.3-0.5-0.6s-0.2-0.6-0.2-1c0-0.5,0.1-0.8,0.2-1
				c0.1-0.2,0.3-0.4,0.5-0.6c0.2-0.1,0.5-0.2,0.8-0.2c0.2,0,0.4,0,0.6,0.1c0.2,0.1,0.3,0.2,0.4,0.3s0.1,0.3,0.1,0.4v0h-0.4v0
				c0-0.1,0-0.2-0.1-0.2s-0.1-0.1-0.2-0.2c-0.1,0-0.2-0.1-0.3-0.1c-0.3,0-0.6,0.1-0.8,0.4c-0.2,0.3-0.3,0.6-0.3,1.1
				c0,0.5,0.1,0.8,0.3,1.1c0.2,0.3,0.4,0.4,0.8,0.4c0.2,0,0.4,0,0.7-0.1v-1h-0.8v-0.3h1.2V83.1z"/>
			<path d="M37.5,83.3h-0.4l1.4-3.4H39l1.3,3.4h-0.5l-0.4-0.9h-1.5L37.5,83.3z M38.1,82h1.2l-0.6-1.6L38.1,82z"/>
			<path d="M42.7,82.9v0.4h-2.2v-0.4l1.7-2.6h-1.6v-0.4h2.1v0.4L41,82.9H42.7z"/>
			<path d="M43.7,83.3h-0.4v-3.4h0.4V83.3z"/>
			<path d="M44.8,83.3h-0.4v-3.4h0.4l1.6,2.4l0.1,0.3l0-0.3v-2.4h0.4v3.4h-0.4l-1.6-2.4l-0.1-0.3l0,0.3V83.3z"/>
			<path d="M47.5,83.3v-3.4h1.9v0.4H48v1.1h1.3v0.3H48v1.2h1.6v0.4H47.5z"/>
		</g>
		<g>
			<path style="&st5;" d="M77.4,67.3h-1.5l0.1,0c0,0,0,0-0.1,0.1c-0.1,0.8-0.4,1.6-1.4,2.1c-0.1-0.1-0.2-0.2-0.2-0.2
				c0.9-0.5,1.2-1.1,1.3-1.9h-1.8V67h3.6V67.3z M76.9,66h-2.8v-0.3h2.8V66z"/>
			<path style="&st5;" d="M80.2,68l0.2,1.4l-0.3,0l-0.2-1.4l-1.7,0.2l0-0.3l1.7-0.2l-0.1-1l-1.4,0.2l0-0.3l1.4-0.2l-0.1-0.9l0.4,0
				c0,0,0,0.1-0.1,0.1l0.1,0.8l1.4-0.2l0,0.3l-1.4,0.2l0.1,1l1.7-0.2l0,0.3L80.2,68z"/>
			<path style="&st5;" d="M85.8,66C85.8,66,85.7,66,85.8,66c-0.3,0.6-0.6,1.1-1,1.6c0.5,0.4,1.2,1.1,1.6,1.5l-0.3,0.2
				c-0.4-0.5-1.1-1.1-1.6-1.5c-0.4,0.5-1.1,1.1-1.7,1.5c0-0.1-0.2-0.2-0.2-0.2c1.2-0.7,2.2-2,2.6-2.9h-2.2v-0.3h2.4l0.1,0L85.8,66z"
				/>
			<path style="&st5;" d="M90.3,67.9c-0.5-0.2-1.1-0.5-1.6-0.7v2.2h-0.3v-3.9l0.5,0c0,0,0,0.1-0.1,0.1V67l0.1-0.1
				c0.5,0.2,1.2,0.5,1.7,0.8L90.3,67.9z"/>
			<path style="&st5;" d="M95.4,67.3h-1.5l0.1,0c0,0,0,0-0.1,0.1c-0.1,0.8-0.4,1.6-1.4,2.1c-0.1-0.1-0.2-0.2-0.2-0.2
				c0.9-0.5,1.2-1.1,1.3-1.9h-1.8V67h3.6V67.3z M94.9,66h-2.8v-0.3h2.8V66z"/>
			<path style="&st5;" d="M98.2,68l0.2,1.4l-0.3,0l-0.2-1.4l-1.7,0.2l0-0.3l1.7-0.2l-0.1-1l-1.4,0.2l0-0.3l1.4-0.2l-0.1-0.9l0.4,0
				c0,0,0,0.1-0.1,0.1l0.1,0.8l1.4-0.2l0,0.3l-1.4,0.2l0.1,1l1.7-0.2l0,0.3L98.2,68z"/>
			<path style="&st5;" d="M103.8,66C103.8,66,103.7,66,103.8,66c-0.3,0.6-0.6,1.1-1,1.6c0.5,0.4,1.2,1.1,1.6,1.5l-0.3,0.2
				c-0.4-0.5-1.1-1.1-1.6-1.5c-0.4,0.5-1.1,1.1-1.7,1.5c0-0.1-0.2-0.2-0.2-0.2c1.2-0.7,2.2-2,2.6-2.9h-2.2v-0.3h2.4l0.1,0L103.8,66z
				"/>
			<path style="&st5;" d="M108.3,67.9c-0.5-0.2-1.1-0.5-1.6-0.7v2.2h-0.3v-3.9l0.5,0c0,0,0,0.1-0.1,0.1V67l0.1-0.1
				c0.5,0.2,1.2,0.5,1.7,0.8L108.3,67.9z"/>
			<path style="&st5;" d="M113.4,67.3h-1.5l0.1,0c0,0,0,0-0.1,0.1c-0.1,0.8-0.4,1.6-1.4,2.1c-0.1-0.1-0.2-0.2-0.2-0.2
				c0.9-0.5,1.2-1.1,1.3-1.9h-1.8V67h3.6V67.3z M112.9,66h-2.8v-0.3h2.8V66z"/>
			<path style="&st5;" d="M116.2,68l0.2,1.4l-0.3,0l-0.2-1.4l-1.7,0.2l0-0.3l1.7-0.2l-0.1-1l-1.4,0.2l0-0.3l1.4-0.2l-0.1-0.9l0.4,0
				c0,0,0,0.1-0.1,0.1l0.1,0.8l1.4-0.2l0,0.3l-1.4,0.2l0.1,1l1.7-0.2l0,0.3L116.2,68z"/>
			<path style="&st5;" d="M121.8,66C121.8,66,121.7,66,121.8,66c-0.3,0.6-0.6,1.1-1,1.6c0.5,0.4,1.2,1.1,1.6,1.5l-0.3,0.2
				c-0.4-0.5-1.1-1.1-1.6-1.5c-0.4,0.5-1.1,1.1-1.7,1.5c0-0.1-0.2-0.2-0.2-0.2c1.2-0.7,2.2-2,2.6-2.9h-2.2v-0.3h2.4l0.1,0L121.8,66z
				"/>
			<path style="&st5;" d="M126.3,67.9c-0.5-0.2-1.1-0.5-1.6-0.7v2.2h-0.3v-3.9l0.5,0c0,0,0,0.1-0.1,0.1V67l0.1-0.1
				c0.5,0.2,1.2,0.5,1.7,0.8L126.3,67.9z"/>
			<path style="&st5;" d="M131.4,67.3h-1.5l0.1,0c0,0,0,0-0.1,0.1c-0.1,0.8-0.4,1.6-1.4,2.1c-0.1-0.1-0.2-0.2-0.2-0.2
				c0.9-0.5,1.2-1.1,1.3-1.9h-1.8V67h3.6V67.3z M130.9,66h-2.8v-0.3h2.8V66z"/>
			<path style="&st5;" d="M134.2,68l0.2,1.4l-0.3,0l-0.2-1.4l-1.7,0.2l0-0.3l1.7-0.2l-0.1-1l-1.4,0.2l0-0.3l1.4-0.2l-0.1-0.9l0.4,0
				c0,0,0,0.1-0.1,0.1l0.1,0.8l1.4-0.2l0,0.3l-1.4,0.2l0.1,1l1.7-0.2l0,0.3L134.2,68z"/>
			<path style="&st5;" d="M139.8,66C139.8,66,139.8,66,139.8,66c-0.3,0.6-0.6,1.1-1,1.6c0.5,0.4,1.2,1.1,1.6,1.5l-0.3,0.2
				c-0.4-0.5-1.1-1.1-1.6-1.5c-0.4,0.5-1.1,1.1-1.7,1.5c0-0.1-0.2-0.2-0.2-0.2c1.2-0.7,2.2-2,2.6-2.9h-2.2v-0.3h2.4l0.1,0L139.8,66z
				"/>
			<path style="&st5;" d="M144.3,67.9c-0.5-0.2-1.1-0.5-1.6-0.7v2.2h-0.3v-3.9l0.5,0c0,0,0,0.1-0.1,0.1V67l0.1-0.1
				c0.5,0.2,1.2,0.5,1.7,0.8L144.3,67.9z"/>
			<path style="&st5;" d="M149.4,67.3h-1.5l0.1,0c0,0,0,0-0.1,0.1c-0.1,0.8-0.4,1.6-1.4,2.1c-0.1-0.1-0.2-0.2-0.2-0.2
				c0.9-0.5,1.2-1.1,1.3-1.9h-1.8V67h3.6V67.3z M148.9,66h-2.8v-0.3h2.8V66z"/>
			<path style="&st5;" d="M152.2,68l0.2,1.4l-0.3,0l-0.2-1.4l-1.7,0.2l0-0.3l1.7-0.2l-0.1-1l-1.4,0.2l0-0.3l1.4-0.2l-0.1-0.9l0.4,0
				c0,0,0,0.1-0.1,0.1l0.1,0.8l1.4-0.2l0,0.3l-1.4,0.2l0.1,1l1.7-0.2l0,0.3L152.2,68z"/>
			<path style="&st5;" d="M157.8,66C157.8,66,157.8,66,157.8,66c-0.3,0.6-0.6,1.1-1,1.6c0.5,0.4,1.2,1.1,1.6,1.5l-0.3,0.2
				c-0.4-0.5-1.1-1.1-1.6-1.5c-0.4,0.5-1.1,1.1-1.7,1.5c0-0.1-0.2-0.2-0.2-0.2c1.2-0.7,2.2-2,2.6-2.9h-2.2v-0.3h2.4l0.1,0L157.8,66z
				"/>
			<path style="&st5;" d="M162.3,67.9c-0.5-0.2-1.1-0.5-1.6-0.7v2.2h-0.3v-3.9l0.5,0c0,0,0,0.1-0.1,0.1V67l0.1-0.1
				c0.5,0.2,1.2,0.5,1.7,0.8L162.3,67.9z"/>
			<path style="&st5;" d="M167.4,67.3h-1.5l0.1,0c0,0,0,0-0.1,0.1c-0.1,0.8-0.4,1.6-1.4,2.1c-0.1-0.1-0.2-0.2-0.2-0.2
				c0.9-0.5,1.2-1.1,1.3-1.9h-1.8V67h3.6V67.3z M166.9,66h-2.8v-0.3h2.8V66z"/>
			<path style="&st5;" d="M170.2,68l0.2,1.4l-0.3,0l-0.2-1.4l-1.7,0.2l0-0.3l1.7-0.2l-0.1-1l-1.4,0.2l0-0.3l1.4-0.2l-0.1-0.9l0.4,0
				c0,0,0,0.1-0.1,0.1l0.1,0.8l1.4-0.2l0,0.3l-1.4,0.2l0.1,1l1.7-0.2l0,0.3L170.2,68z"/>
			<path style="&st5;" d="M175.8,66C175.8,66,175.8,66,175.8,66c-0.3,0.6-0.6,1.1-1,1.6c0.5,0.4,1.2,1.1,1.6,1.5l-0.3,0.2
				c-0.4-0.5-1.1-1.1-1.6-1.5c-0.4,0.5-1.1,1.1-1.7,1.5c0-0.1-0.2-0.2-0.2-0.2c1.2-0.7,2.2-2,2.6-2.9h-2.2v-0.3h2.4l0.1,0L175.8,66z
				"/>
			<path style="&st5;" d="M180.3,67.9c-0.5-0.2-1.1-0.5-1.6-0.7v2.2h-0.3v-3.9l0.5,0c0,0,0,0.1-0.1,0.1V67l0.1-0.1
				c0.5,0.2,1.2,0.5,1.7,0.8L180.3,67.9z"/>
			<path style="&st5;" d="M185.4,67.3h-1.5l0.1,0c0,0,0,0-0.1,0.1c-0.1,0.8-0.4,1.6-1.4,2.1c-0.1-0.1-0.2-0.2-0.2-0.2
				c0.9-0.5,1.2-1.1,1.3-1.9h-1.8V67h3.6V67.3z M184.9,66h-2.8v-0.3h2.8V66z"/>
			<path style="&st5;" d="M188.2,68l0.2,1.4l-0.3,0l-0.2-1.4l-1.7,0.2l0-0.3l1.7-0.2l-0.1-1l-1.4,0.2l0-0.3l1.4-0.2l-0.1-0.9l0.4,0
				c0,0,0,0.1-0.1,0.1l0.1,0.8l1.4-0.2l0,0.3l-1.4,0.2l0.1,1l1.7-0.2l0,0.3L188.2,68z"/>
			<path style="&st5;" d="M193.8,66C193.8,66,193.8,66,193.8,66c-0.3,0.6-0.6,1.1-1,1.6c0.5,0.4,1.2,1.1,1.6,1.5l-0.3,0.2
				c-0.4-0.5-1.1-1.1-1.6-1.5c-0.4,0.5-1.1,1.1-1.7,1.5c0-0.1-0.2-0.2-0.2-0.2c1.2-0.7,2.2-2,2.6-2.9h-2.2v-0.3h2.4l0.1,0L193.8,66z
				"/>
			<path style="&st5;" d="M198.3,67.9c-0.5-0.2-1.1-0.5-1.6-0.7v2.2h-0.3v-3.9l0.5,0c0,0,0,0.1-0.1,0.1V67l0.1-0.1
				c0.5,0.2,1.2,0.5,1.7,0.8L198.3,67.9z"/>
			<path style="&st5;" d="M203.4,67.3h-1.5l0.1,0c0,0,0,0-0.1,0.1c-0.1,0.8-0.4,1.6-1.4,2.1c-0.1-0.1-0.2-0.2-0.2-0.2
				c0.9-0.5,1.2-1.1,1.3-1.9h-1.8V67h3.6V67.3z M202.9,66h-2.8v-0.3h2.8V66z"/>
			<path style="&st5;" d="M206.2,68l0.2,1.4l-0.3,0l-0.2-1.4l-1.7,0.2l0-0.3l1.7-0.2l-0.1-1l-1.4,0.2l0-0.3l1.4-0.2l-0.1-0.9l0.4,0
				c0,0,0,0.1-0.1,0.1l0.1,0.8l1.4-0.2l0,0.3l-1.4,0.2l0.1,1l1.7-0.2l0,0.3L206.2,68z"/>
			<path style="&st5;" d="M211.8,66C211.8,66,211.8,66,211.8,66c-0.3,0.6-0.6,1.1-1,1.6c0.5,0.4,1.2,1.1,1.6,1.5l-0.3,0.2
				c-0.4-0.5-1.1-1.1-1.6-1.5c-0.4,0.5-1.1,1.1-1.7,1.5c0-0.1-0.2-0.2-0.2-0.2c1.2-0.7,2.2-2,2.6-2.9h-2.2v-0.3h2.4l0.1,0L211.8,66z
				"/>
			<path style="&st5;" d="M216.4,67.9c-0.5-0.2-1.1-0.5-1.6-0.7v2.2h-0.3v-3.9l0.5,0c0,0,0,0.1-0.1,0.1V67l0.1-0.1
				c0.5,0.2,1.2,0.5,1.7,0.8L216.4,67.9z"/>
			<path style="&st5;" d="M77.4,74.1h-1.5l0.1,0c0,0,0,0-0.1,0.1c-0.1,0.8-0.4,1.6-1.4,2.1c-0.1-0.1-0.2-0.2-0.2-0.2
				c0.9-0.5,1.2-1.1,1.3-1.9h-1.8v-0.3h3.6V74.1z M76.9,72.8h-2.8v-0.3h2.8V72.8z"/>
			<path style="&st5;" d="M80.2,74.8l0.2,1.4l-0.3,0l-0.2-1.4L78.2,75l0-0.3l1.7-0.2l-0.1-1l-1.4,0.2l0-0.3l1.4-0.2l-0.1-0.9l0.4,0
				c0,0,0,0.1-0.1,0.1l0.1,0.8l1.4-0.2l0,0.3l-1.4,0.2l0.1,1l1.7-0.2l0,0.3L80.2,74.8z"/>
			<path style="&st5;" d="M85.8,72.8C85.8,72.8,85.7,72.8,85.8,72.8c-0.3,0.6-0.6,1.1-1,1.6c0.5,0.4,1.2,1.1,1.6,1.5l-0.3,0.2
				c-0.4-0.5-1.1-1.1-1.6-1.5c-0.4,0.5-1.1,1.1-1.7,1.5c0-0.1-0.2-0.2-0.2-0.2c1.2-0.7,2.2-2,2.6-2.9h-2.2v-0.3h2.4l0.1,0L85.8,72.8
				z"/>
			<path style="&st5;" d="M90.3,74.7c-0.5-0.2-1.1-0.5-1.6-0.7v2.2h-0.3v-3.9l0.5,0c0,0,0,0.1-0.1,0.1v1.3l0.1-0.1
				c0.5,0.2,1.2,0.5,1.7,0.8L90.3,74.7z"/>
			<path style="&st5;" d="M95.4,74.1h-1.5l0.1,0c0,0,0,0-0.1,0.1c-0.1,0.8-0.4,1.6-1.4,2.1c-0.1-0.1-0.2-0.2-0.2-0.2
				c0.9-0.5,1.2-1.1,1.3-1.9h-1.8v-0.3h3.6V74.1z M94.9,72.8h-2.8v-0.3h2.8V72.8z"/>
			<path style="&st5;" d="M98.2,74.8l0.2,1.4l-0.3,0l-0.2-1.4L96.2,75l0-0.3l1.7-0.2l-0.1-1l-1.4,0.2l0-0.3l1.4-0.2l-0.1-0.9l0.4,0
				c0,0,0,0.1-0.1,0.1l0.1,0.8l1.4-0.2l0,0.3l-1.4,0.2l0.1,1l1.7-0.2l0,0.3L98.2,74.8z"/>
			<path style="&st5;" d="M103.8,72.8C103.8,72.8,103.7,72.8,103.8,72.8c-0.3,0.6-0.6,1.1-1,1.6c0.5,0.4,1.2,1.1,1.6,1.5l-0.3,0.2
				c-0.4-0.5-1.1-1.1-1.6-1.5c-0.4,0.5-1.1,1.1-1.7,1.5c0-0.1-0.2-0.2-0.2-0.2c1.2-0.7,2.2-2,2.6-2.9h-2.2v-0.3h2.4l0.1,0
				L103.8,72.8z"/>
			<path style="&st5;" d="M108.3,74.7c-0.5-0.2-1.1-0.5-1.6-0.7v2.2h-0.3v-3.9l0.5,0c0,0,0,0.1-0.1,0.1v1.3l0.1-0.1
				c0.5,0.2,1.2,0.5,1.7,0.8L108.3,74.7z"/>
			<path style="&st5;" d="M113.4,74.1h-1.5l0.1,0c0,0,0,0-0.1,0.1c-0.1,0.8-0.4,1.6-1.4,2.1c-0.1-0.1-0.2-0.2-0.2-0.2
				c0.9-0.5,1.2-1.1,1.3-1.9h-1.8v-0.3h3.6V74.1z M112.9,72.8h-2.8v-0.3h2.8V72.8z"/>
			<path style="&st5;" d="M116.2,74.8l0.2,1.4l-0.3,0l-0.2-1.4l-1.7,0.2l0-0.3l1.7-0.2l-0.1-1l-1.4,0.2l0-0.3l1.4-0.2l-0.1-0.9
				l0.4,0c0,0,0,0.1-0.1,0.1l0.1,0.8l1.4-0.2l0,0.3l-1.4,0.2l0.1,1l1.7-0.2l0,0.3L116.2,74.8z"/>
			<path style="&st5;" d="M121.8,72.8C121.8,72.8,121.7,72.8,121.8,72.8c-0.3,0.6-0.6,1.1-1,1.6c0.5,0.4,1.2,1.1,1.6,1.5l-0.3,0.2
				c-0.4-0.5-1.1-1.1-1.6-1.5c-0.4,0.5-1.1,1.1-1.7,1.5c0-0.1-0.2-0.2-0.2-0.2c1.2-0.7,2.2-2,2.6-2.9h-2.2v-0.3h2.4l0.1,0
				L121.8,72.8z"/>
			<path style="&st5;" d="M126.3,74.7c-0.5-0.2-1.1-0.5-1.6-0.7v2.2h-0.3v-3.9l0.5,0c0,0,0,0.1-0.1,0.1v1.3l0.1-0.1
				c0.5,0.2,1.2,0.5,1.7,0.8L126.3,74.7z"/>
			<path style="&st5;" d="M131.4,74.1h-1.5l0.1,0c0,0,0,0-0.1,0.1c-0.1,0.8-0.4,1.6-1.4,2.1c-0.1-0.1-0.2-0.2-0.2-0.2
				c0.9-0.5,1.2-1.1,1.3-1.9h-1.8v-0.3h3.6V74.1z M130.9,72.8h-2.8v-0.3h2.8V72.8z"/>
			<path style="&st5;" d="M134.2,74.8l0.2,1.4l-0.3,0l-0.2-1.4l-1.7,0.2l0-0.3l1.7-0.2l-0.1-1l-1.4,0.2l0-0.3l1.4-0.2l-0.1-0.9
				l0.4,0c0,0,0,0.1-0.1,0.1l0.1,0.8l1.4-0.2l0,0.3l-1.4,0.2l0.1,1l1.7-0.2l0,0.3L134.2,74.8z"/>
			<path style="&st5;" d="M139.8,72.8C139.8,72.8,139.8,72.8,139.8,72.8c-0.3,0.6-0.6,1.1-1,1.6c0.5,0.4,1.2,1.1,1.6,1.5l-0.3,0.2
				c-0.4-0.5-1.1-1.1-1.6-1.5c-0.4,0.5-1.1,1.1-1.7,1.5c0-0.1-0.2-0.2-0.2-0.2c1.2-0.7,2.2-2,2.6-2.9h-2.2v-0.3h2.4l0.1,0
				L139.8,72.8z"/>
			<path style="&st5;" d="M144.3,74.7c-0.5-0.2-1.1-0.5-1.6-0.7v2.2h-0.3v-3.9l0.5,0c0,0,0,0.1-0.1,0.1v1.3l0.1-0.1
				c0.5,0.2,1.2,0.5,1.7,0.8L144.3,74.7z"/>
			<path style="&st5;" d="M149.4,74.1h-1.5l0.1,0c0,0,0,0-0.1,0.1c-0.1,0.8-0.4,1.6-1.4,2.1c-0.1-0.1-0.2-0.2-0.2-0.2
				c0.9-0.5,1.2-1.1,1.3-1.9h-1.8v-0.3h3.6V74.1z M148.9,72.8h-2.8v-0.3h2.8V72.8z"/>
			<path style="&st5;" d="M152.2,74.8l0.2,1.4l-0.3,0l-0.2-1.4l-1.7,0.2l0-0.3l1.7-0.2l-0.1-1l-1.4,0.2l0-0.3l1.4-0.2l-0.1-0.9
				l0.4,0c0,0,0,0.1-0.1,0.1l0.1,0.8l1.4-0.2l0,0.3l-1.4,0.2l0.1,1l1.7-0.2l0,0.3L152.2,74.8z"/>
			<path style="&st5;" d="M157.8,72.8C157.8,72.8,157.8,72.8,157.8,72.8c-0.3,0.6-0.6,1.1-1,1.6c0.5,0.4,1.2,1.1,1.6,1.5l-0.3,0.2
				c-0.4-0.5-1.1-1.1-1.6-1.5c-0.4,0.5-1.1,1.1-1.7,1.5c0-0.1-0.2-0.2-0.2-0.2c1.2-0.7,2.2-2,2.6-2.9h-2.2v-0.3h2.4l0.1,0
				L157.8,72.8z"/>
			<path style="&st5;" d="M162.3,74.7c-0.5-0.2-1.1-0.5-1.6-0.7v2.2h-0.3v-3.9l0.5,0c0,0,0,0.1-0.1,0.1v1.3l0.1-0.1
				c0.5,0.2,1.2,0.5,1.7,0.8L162.3,74.7z"/>
			<path style="&st5;" d="M167.4,74.1h-1.5l0.1,0c0,0,0,0-0.1,0.1c-0.1,0.8-0.4,1.6-1.4,2.1c-0.1-0.1-0.2-0.2-0.2-0.2
				c0.9-0.5,1.2-1.1,1.3-1.9h-1.8v-0.3h3.6V74.1z M166.9,72.8h-2.8v-0.3h2.8V72.8z"/>
			<path style="&st5;" d="M170.2,74.8l0.2,1.4l-0.3,0l-0.2-1.4l-1.7,0.2l0-0.3l1.7-0.2l-0.1-1l-1.4,0.2l0-0.3l1.4-0.2l-0.1-0.9
				l0.4,0c0,0,0,0.1-0.1,0.1l0.1,0.8l1.4-0.2l0,0.3l-1.4,0.2l0.1,1l1.7-0.2l0,0.3L170.2,74.8z"/>
			<path style="&st5;" d="M175.8,72.8C175.8,72.8,175.8,72.8,175.8,72.8c-0.3,0.6-0.6,1.1-1,1.6c0.5,0.4,1.2,1.1,1.6,1.5l-0.3,0.2
				c-0.4-0.5-1.1-1.1-1.6-1.5c-0.4,0.5-1.1,1.1-1.7,1.5c0-0.1-0.2-0.2-0.2-0.2c1.2-0.7,2.2-2,2.6-2.9h-2.2v-0.3h2.4l0.1,0
				L175.8,72.8z"/>
			<path style="&st5;" d="M180.3,74.7c-0.5-0.2-1.1-0.5-1.6-0.7v2.2h-0.3v-3.9l0.5,0c0,0,0,0.1-0.1,0.1v1.3l0.1-0.1
				c0.5,0.2,1.2,0.5,1.7,0.8L180.3,74.7z"/>
			<path style="&st5;" d="M185.4,74.1h-1.5l0.1,0c0,0,0,0-0.1,0.1c-0.1,0.8-0.4,1.6-1.4,2.1c-0.1-0.1-0.2-0.2-0.2-0.2
				c0.9-0.5,1.2-1.1,1.3-1.9h-1.8v-0.3h3.6V74.1z M184.9,72.8h-2.8v-0.3h2.8V72.8z"/>
			<path style="&st5;" d="M188.2,74.8l0.2,1.4l-0.3,0l-0.2-1.4l-1.7,0.2l0-0.3l1.7-0.2l-0.1-1l-1.4,0.2l0-0.3l1.4-0.2l-0.1-0.9
				l0.4,0c0,0,0,0.1-0.1,0.1l0.1,0.8l1.4-0.2l0,0.3l-1.4,0.2l0.1,1l1.7-0.2l0,0.3L188.2,74.8z"/>
			<path style="&st5;" d="M193.8,72.8C193.8,72.8,193.8,72.8,193.8,72.8c-0.3,0.6-0.6,1.1-1,1.6c0.5,0.4,1.2,1.1,1.6,1.5l-0.3,0.2
				c-0.4-0.5-1.1-1.1-1.6-1.5c-0.4,0.5-1.1,1.1-1.7,1.5c0-0.1-0.2-0.2-0.2-0.2c1.2-0.7,2.2-2,2.6-2.9h-2.2v-0.3h2.4l0.1,0
				L193.8,72.8z"/>
			<path style="&st5;" d="M198.3,74.7c-0.5-0.2-1.1-0.5-1.6-0.7v2.2h-0.3v-3.9l0.5,0c0,0,0,0.1-0.1,0.1v1.3l0.1-0.1
				c0.5,0.2,1.2,0.5,1.7,0.8L198.3,74.7z"/>
			<path style="&st5;" d="M203.4,74.1h-1.5l0.1,0c0,0,0,0-0.1,0.1c-0.1,0.8-0.4,1.6-1.4,2.1c-0.1-0.1-0.2-0.2-0.2-0.2
				c0.9-0.5,1.2-1.1,1.3-1.9h-1.8v-0.3h3.6V74.1z M202.9,72.8h-2.8v-0.3h2.8V72.8z"/>
			<path style="&st5;" d="M206.2,74.8l0.2,1.4l-0.3,0l-0.2-1.4l-1.7,0.2l0-0.3l1.7-0.2l-0.1-1l-1.4,0.2l0-0.3l1.4-0.2l-0.1-0.9
				l0.4,0c0,0,0,0.1-0.1,0.1l0.1,0.8l1.4-0.2l0,0.3l-1.4,0.2l0.1,1l1.7-0.2l0,0.3L206.2,74.8z"/>
			<path style="&st5;" d="M211.8,72.8C211.8,72.8,211.8,72.8,211.8,72.8c-0.3,0.6-0.6,1.1-1,1.6c0.5,0.4,1.2,1.1,1.6,1.5l-0.3,0.2
				c-0.4-0.5-1.1-1.1-1.6-1.5c-0.4,0.5-1.1,1.1-1.7,1.5c0-0.1-0.2-0.2-0.2-0.2c1.2-0.7,2.2-2,2.6-2.9h-2.2v-0.3h2.4l0.1,0
				L211.8,72.8z"/>
			<path style="&st5;" d="M216.4,74.7c-0.5-0.2-1.1-0.5-1.6-0.7v2.2h-0.3v-3.9l0.5,0c0,0,0,0.1-0.1,0.1v1.3l0.1-0.1
				c0.5,0.2,1.2,0.5,1.7,0.8L216.4,74.7z"/>
			<path style="&st5;" d="M77.4,80.8h-1.5l0.1,0c0,0,0,0-0.1,0.1c-0.1,0.8-0.4,1.6-1.4,2.1c-0.1-0.1-0.2-0.2-0.2-0.2
				c0.9-0.5,1.2-1.1,1.3-1.9h-1.8v-0.3h3.6V80.8z M76.9,79.5h-2.8v-0.3h2.8V79.5z"/>
			<path style="&st5;" d="M80.2,81.5l0.2,1.4l-0.3,0l-0.2-1.4l-1.7,0.2l0-0.3l1.7-0.2l-0.1-1l-1.4,0.2l0-0.3l1.4-0.2l-0.1-0.9l0.4,0
				c0,0,0,0.1-0.1,0.1l0.1,0.8l1.4-0.2l0,0.3l-1.4,0.2l0.1,1l1.7-0.2l0,0.3L80.2,81.5z"/>
			<path style="&st5;" d="M85.8,79.5C85.8,79.5,85.7,79.5,85.8,79.5c-0.3,0.6-0.6,1.1-1,1.6c0.5,0.4,1.2,1.1,1.6,1.5l-0.3,0.2
				c-0.4-0.5-1.1-1.1-1.6-1.5c-0.4,0.5-1.1,1.1-1.7,1.5c0-0.1-0.2-0.2-0.2-0.2c1.2-0.7,2.2-2,2.6-2.9h-2.2v-0.3h2.4l0.1,0L85.8,79.5
				z"/>
			<path style="&st5;" d="M90.3,81.4c-0.5-0.2-1.1-0.5-1.6-0.7V83h-0.3V79l0.5,0c0,0,0,0.1-0.1,0.1v1.3l0.1-0.1
				c0.5,0.2,1.2,0.5,1.7,0.8L90.3,81.4z"/>
			<path style="&st5;" d="M95.4,80.8h-1.5l0.1,0c0,0,0,0-0.1,0.1c-0.1,0.8-0.4,1.6-1.4,2.1c-0.1-0.1-0.2-0.2-0.2-0.2
				c0.9-0.5,1.2-1.1,1.3-1.9h-1.8v-0.3h3.6V80.8z M94.9,79.5h-2.8v-0.3h2.8V79.5z"/>
			<path style="&st5;" d="M98.2,81.5l0.2,1.4l-0.3,0l-0.2-1.4l-1.7,0.2l0-0.3l1.7-0.2l-0.1-1l-1.4,0.2l0-0.3l1.4-0.2l-0.1-0.9l0.4,0
				c0,0,0,0.1-0.1,0.1l0.1,0.8l1.4-0.2l0,0.3l-1.4,0.2l0.1,1l1.7-0.2l0,0.3L98.2,81.5z"/>
			<path style="&st5;" d="M103.8,79.5C103.8,79.5,103.7,79.5,103.8,79.5c-0.3,0.6-0.6,1.1-1,1.6c0.5,0.4,1.2,1.1,1.6,1.5l-0.3,0.2
				c-0.4-0.5-1.1-1.1-1.6-1.5c-0.4,0.5-1.1,1.1-1.7,1.5c0-0.1-0.2-0.2-0.2-0.2c1.2-0.7,2.2-2,2.6-2.9h-2.2v-0.3h2.4l0.1,0
				L103.8,79.5z"/>
			<path style="&st5;" d="M108.3,81.4c-0.5-0.2-1.1-0.5-1.6-0.7V83h-0.3V79l0.5,0c0,0,0,0.1-0.1,0.1v1.3l0.1-0.1
				c0.5,0.2,1.2,0.5,1.7,0.8L108.3,81.4z"/>
			<path style="&st5;" d="M113.4,80.8h-1.5l0.1,0c0,0,0,0-0.1,0.1c-0.1,0.8-0.4,1.6-1.4,2.1c-0.1-0.1-0.2-0.2-0.2-0.2
				c0.9-0.5,1.2-1.1,1.3-1.9h-1.8v-0.3h3.6V80.8z M112.9,79.5h-2.8v-0.3h2.8V79.5z"/>
			<path style="&st5;" d="M116.2,81.5l0.2,1.4l-0.3,0l-0.2-1.4l-1.7,0.2l0-0.3l1.7-0.2l-0.1-1l-1.4,0.2l0-0.3l1.4-0.2l-0.1-0.9
				l0.4,0c0,0,0,0.1-0.1,0.1l0.1,0.8l1.4-0.2l0,0.3l-1.4,0.2l0.1,1l1.7-0.2l0,0.3L116.2,81.5z"/>
			<path style="&st5;" d="M121.8,79.5C121.8,79.5,121.7,79.5,121.8,79.5c-0.3,0.6-0.6,1.1-1,1.6c0.5,0.4,1.2,1.1,1.6,1.5l-0.3,0.2
				c-0.4-0.5-1.1-1.1-1.6-1.5c-0.4,0.5-1.1,1.1-1.7,1.5c0-0.1-0.2-0.2-0.2-0.2c1.2-0.7,2.2-2,2.6-2.9h-2.2v-0.3h2.4l0.1,0
				L121.8,79.5z"/>
			<path style="&st5;" d="M126.3,81.4c-0.5-0.2-1.1-0.5-1.6-0.7V83h-0.3V79l0.5,0c0,0,0,0.1-0.1,0.1v1.3l0.1-0.1
				c0.5,0.2,1.2,0.5,1.7,0.8L126.3,81.4z"/>
			<path style="&st5;" d="M131.4,80.8h-1.5l0.1,0c0,0,0,0-0.1,0.1c-0.1,0.8-0.4,1.6-1.4,2.1c-0.1-0.1-0.2-0.2-0.2-0.2
				c0.9-0.5,1.2-1.1,1.3-1.9h-1.8v-0.3h3.6V80.8z M130.9,79.5h-2.8v-0.3h2.8V79.5z"/>
			<path style="&st5;" d="M134.2,81.5l0.2,1.4l-0.3,0l-0.2-1.4l-1.7,0.2l0-0.3l1.7-0.2l-0.1-1l-1.4,0.2l0-0.3l1.4-0.2l-0.1-0.9
				l0.4,0c0,0,0,0.1-0.1,0.1l0.1,0.8l1.4-0.2l0,0.3l-1.4,0.2l0.1,1l1.7-0.2l0,0.3L134.2,81.5z"/>
			<path style="&st5;" d="M139.8,79.5C139.8,79.5,139.8,79.5,139.8,79.5c-0.3,0.6-0.6,1.1-1,1.6c0.5,0.4,1.2,1.1,1.6,1.5l-0.3,0.2
				c-0.4-0.5-1.1-1.1-1.6-1.5c-0.4,0.5-1.1,1.1-1.7,1.5c0-0.1-0.2-0.2-0.2-0.2c1.2-0.7,2.2-2,2.6-2.9h-2.2v-0.3h2.4l0.1,0
				L139.8,79.5z"/>
			<path style="&st5;" d="M144.3,81.4c-0.5-0.2-1.1-0.5-1.6-0.7V83h-0.3V79l0.5,0c0,0,0,0.1-0.1,0.1v1.3l0.1-0.1
				c0.5,0.2,1.2,0.5,1.7,0.8L144.3,81.4z"/>
			<path style="&st5;" d="M149.4,80.8h-1.5l0.1,0c0,0,0,0-0.1,0.1c-0.1,0.8-0.4,1.6-1.4,2.1c-0.1-0.1-0.2-0.2-0.2-0.2
				c0.9-0.5,1.2-1.1,1.3-1.9h-1.8v-0.3h3.6V80.8z M148.9,79.5h-2.8v-0.3h2.8V79.5z"/>
			<path style="&st5;" d="M152.2,81.5l0.2,1.4l-0.3,0l-0.2-1.4l-1.7,0.2l0-0.3l1.7-0.2l-0.1-1l-1.4,0.2l0-0.3l1.4-0.2l-0.1-0.9
				l0.4,0c0,0,0,0.1-0.1,0.1l0.1,0.8l1.4-0.2l0,0.3l-1.4,0.2l0.1,1l1.7-0.2l0,0.3L152.2,81.5z"/>
			<path style="&st5;" d="M157.8,79.5C157.8,79.5,157.8,79.5,157.8,79.5c-0.3,0.6-0.6,1.1-1,1.6c0.5,0.4,1.2,1.1,1.6,1.5l-0.3,0.2
				c-0.4-0.5-1.1-1.1-1.6-1.5c-0.4,0.5-1.1,1.1-1.7,1.5c0-0.1-0.2-0.2-0.2-0.2c1.2-0.7,2.2-2,2.6-2.9h-2.2v-0.3h2.4l0.1,0
				L157.8,79.5z"/>
			<path style="&st5;" d="M162.3,81.4c-0.5-0.2-1.1-0.5-1.6-0.7V83h-0.3V79l0.5,0c0,0,0,0.1-0.1,0.1v1.3l0.1-0.1
				c0.5,0.2,1.2,0.5,1.7,0.8L162.3,81.4z"/>
			<path style="&st5;" d="M167.4,80.8h-1.5l0.1,0c0,0,0,0-0.1,0.1c-0.1,0.8-0.4,1.6-1.4,2.1c-0.1-0.1-0.2-0.2-0.2-0.2
				c0.9-0.5,1.2-1.1,1.3-1.9h-1.8v-0.3h3.6V80.8z M166.9,79.5h-2.8v-0.3h2.8V79.5z"/>
			<path style="&st5;" d="M170.2,81.5l0.2,1.4l-0.3,0l-0.2-1.4l-1.7,0.2l0-0.3l1.7-0.2l-0.1-1l-1.4,0.2l0-0.3l1.4-0.2l-0.1-0.9
				l0.4,0c0,0,0,0.1-0.1,0.1l0.1,0.8l1.4-0.2l0,0.3l-1.4,0.2l0.1,1l1.7-0.2l0,0.3L170.2,81.5z"/>
			<path style="&st5;" d="M175.8,79.5C175.8,79.5,175.8,79.5,175.8,79.5c-0.3,0.6-0.6,1.1-1,1.6c0.5,0.4,1.2,1.1,1.6,1.5l-0.3,0.2
				c-0.4-0.5-1.1-1.1-1.6-1.5c-0.4,0.5-1.1,1.1-1.7,1.5c0-0.1-0.2-0.2-0.2-0.2c1.2-0.7,2.2-2,2.6-2.9h-2.2v-0.3h2.4l0.1,0
				L175.8,79.5z"/>
			<path style="&st5;" d="M180.3,81.4c-0.5-0.2-1.1-0.5-1.6-0.7V83h-0.3V79l0.5,0c0,0,0,0.1-0.1,0.1v1.3l0.1-0.1
				c0.5,0.2,1.2,0.5,1.7,0.8L180.3,81.4z"/>
			<path style="&st5;" d="M185.4,80.8h-1.5l0.1,0c0,0,0,0-0.1,0.1c-0.1,0.8-0.4,1.6-1.4,2.1c-0.1-0.1-0.2-0.2-0.2-0.2
				c0.9-0.5,1.2-1.1,1.3-1.9h-1.8v-0.3h3.6V80.8z M184.9,79.5h-2.8v-0.3h2.8V79.5z"/>
			<path style="&st5;" d="M188.2,81.5l0.2,1.4l-0.3,0l-0.2-1.4l-1.7,0.2l0-0.3l1.7-0.2l-0.1-1l-1.4,0.2l0-0.3l1.4-0.2l-0.1-0.9
				l0.4,0c0,0,0,0.1-0.1,0.1l0.1,0.8l1.4-0.2l0,0.3l-1.4,0.2l0.1,1l1.7-0.2l0,0.3L188.2,81.5z"/>
			<path style="&st5;" d="M193.8,79.5C193.8,79.5,193.8,79.5,193.8,79.5c-0.3,0.6-0.6,1.1-1,1.6c0.5,0.4,1.2,1.1,1.6,1.5l-0.3,0.2
				c-0.4-0.5-1.1-1.1-1.6-1.5c-0.4,0.5-1.1,1.1-1.7,1.5c0-0.1-0.2-0.2-0.2-0.2c1.2-0.7,2.2-2,2.6-2.9h-2.2v-0.3h2.4l0.1,0
				L193.8,79.5z"/>
			<path style="&st5;" d="M198.3,81.4c-0.5-0.2-1.1-0.5-1.6-0.7V83h-0.3V79l0.5,0c0,0,0,0.1-0.1,0.1v1.3l0.1-0.1
				c0.5,0.2,1.2,0.5,1.7,0.8L198.3,81.4z"/>
			<path style="&st5;" d="M203.4,80.8h-1.5l0.1,0c0,0,0,0-0.1,0.1c-0.1,0.8-0.4,1.6-1.4,2.1c-0.1-0.1-0.2-0.2-0.2-0.2
				c0.9-0.5,1.2-1.1,1.3-1.9h-1.8v-0.3h3.6V80.8z M202.9,79.5h-2.8v-0.3h2.8V79.5z"/>
			<path style="&st5;" d="M206.2,81.5l0.2,1.4l-0.3,0l-0.2-1.4l-1.7,0.2l0-0.3l1.7-0.2l-0.1-1l-1.4,0.2l0-0.3l1.4-0.2l-0.1-0.9
				l0.4,0c0,0,0,0.1-0.1,0.1l0.1,0.8l1.4-0.2l0,0.3l-1.4,0.2l0.1,1l1.7-0.2l0,0.3L206.2,81.5z"/>
			<path style="&st5;" d="M211.8,79.5C211.8,79.5,211.8,79.5,211.8,79.5c-0.3,0.6-0.6,1.1-1,1.6c0.5,0.4,1.2,1.1,1.6,1.5l-0.3,0.2
				c-0.4-0.5-1.1-1.1-1.6-1.5c-0.4,0.5-1.1,1.1-1.7,1.5c0-0.1-0.2-0.2-0.2-0.2c1.2-0.7,2.2-2,2.6-2.9h-2.2v-0.3h2.4l0.1,0
				L211.8,79.5z"/>
			<path style="&st5;" d="M216.4,81.4c-0.5-0.2-1.1-0.5-1.6-0.7V83h-0.3V79l0.5,0c0,0,0,0.1-0.1,0.1v1.3l0.1-0.1
				c0.5,0.2,1.2,0.5,1.7,0.8L216.4,81.4z"/>
		</g>
	</g>
	<rect id="_x3C_スライス_x3E__2_" y="-0.1" style="&st5;" width="230" height="90"/>
</g>
<g>
</g>
<g>
</g>
<g>
</g>
<g>
</g>
<g>
</g>
<g>
</g>
<g>
</g>
<g>
</g>
<g>
</g>
<g>
</g>
<g>
</g>
<g>
</g>
<g>
</g>
<g>
</g>
<g>
</g>
</svg>
