<svg xmlns="http://www.w3.org/2000/svg" xmlns:xlink="http://www.w3.org/1999/xlink" viewBox="0 0 480 107" enable-background="new 0 0 480 107"><g>
	<image overflow="visible" width="480" height="320" xlink:href="installationStore/01.jpg" transform="matrix(.208 0 0 .208 9.992 4.239)"/>
	<image overflow="visible" width="480" height="320" xlink:href="installationStore/02.jpg" transform="matrix(.208 0 0 .208 130 4.239)"/>
	<image overflow="visible" width="480" height="320" xlink:href="installationStore/03.jpg" transform="matrix(.208 0 0 .208 250 4.239)"/>
	<image overflow="visible" width="480" height="320" xlink:href="installationStore/04.jpg" transform="matrix(.208 0 0 .208 370 4.239)"/>
	</g><g><path d="M184.6 84.3h-6.9v-1.8h6.9v1.8zm-.4 10.8h-3.9v.7h-2.2v-5.9h6.1v5.2zm-.1-13.3h-5.8v-1.6h5.8v1.6zm0 4.8h-5.7v-1.5h5.7v1.5zm0 2.4h-5.7v-1.5h5.7v1.5zm-2.1 4.5v-2.1h-1.7v2.1h1.7zm12.4-10.5v1.9c0 .3-.1.6-.3.8s-.4.4-.7.5-.7.1-1.3.1c-.4 0-.9 0-1.3-.1s-.7-.2-1-.4-.3-.5-.3-.9v-3.1h-1.7v.5c0 .8-.2 1.7-.6 2.5s-.9 1.5-1.5 2l-1.4-1.2c.4-.4.7-.9 1-1.4s.4-1.3.4-2.2v-1.8h6.1v4.1c0 .2.1.3.2.3h.3c.1 0 .2 0 .2-.1l.1-.1v-1.7000000000000002l1.8.3zm-.5 4c0 2.2-.8 4.1-2.2 5.6.6.3 1.6.6 2.9 1l-1.2 2.1c-1.4-.4-2.7-.9-3.7-1.6-1.4.9-2.9 1.4-4.4 1.7l-.8-1.9c1.4-.3 2.6-.7 3.5-1.2-1.1-1.1-1.9-2.4-2.2-3.8h-.9v-1.9h9zm-4.2 4.4c.7-.8 1.2-1.6 1.5-2.5h-3.2c.3.9.9 1.8 1.7 2.5zM203.8 93.2v-6.5h2.7v-.8h-7.2v-1.4h7.2v-.8h-6.7v-3.2h15.6v3.2h-6.4v.8h6.8v1.4h-6.8v.8h5.7v6.5h-10.9zm-1.3 2.6h-2.5v-8.6h2.5v6.8h13.3v1.4h-13.3v.4zm2.1-13.2v-1h-2.5v1h2.5zm7.7 6v-.7h-6.1v.7h6.1zm-6.1 1.7h6.1v-.8h-6.1v.8zm0 1.8h6.1v-.9h-6.1v.9zm.4-10.5v1h2.3v-1h-2.3zm6.6 1v-1h-2.3v1h2.3zM234.2 95.1h-6.8v.7h-2.4v-6.8h4.2v-5.1h-4.7v2.1c0 2.2-.2 4.2-.6 5.9s-1 3.1-1.7 4l-1.8-1.2c.5-.7.8-1.9 1.2-3.4s.5-3.2.5-5v-4.5h6.6v-1.8h2.5v1.8h6.6v2h-6v1.6h5.7v1.9h-5.7v1.6h5v6.8h-2.4v-.6zm-6.9-1.9h6.8v-2.5h-6.8v2.5zM256.6 91.9h-1.3v3.6h-2.1v-3.6h-1.2v3.7h-2v-11.1h3.3v-1h-3.5v-.5l-.9 1.3c-.9-.5-1.7-1.4-2.4-2.6-.5 1-1.3 2-2.3 2.9h1.1v-1.1h2.1v1.1h1.6v1.6h-1.6v1.2h2.3v1.7h-6.9v-1.7h2.5v-1.2h-1.7v-1.1l-.5.4-1-1.5c.5-.4 1.1-1 1.8-1.8s1.1-1.6 1.4-2.3h2.2c.5.9 1.3 1.8 2.3 2.7v-1h3.5v-1.8h2.2v1.8h1l-.6-1.2 1.7-.7c.3.5.7 1.1 1.1 1.9h.8v1.8h-4v1h3.4v9.6c0 .5-.2.8-.5 1.1s-.7.4-1.3.4h-1.2l-.3-1.9h.7c.3 0 .4-.1.4-.4v-1.3zm-7.4 3.6h-2.1v-.5h-2.1v.6h-2.1v-5.7h6.3v5.6zm-2.1-2v-1.9h-2v1.9h2zm6.1-7.3h-1.2v1.2h1.2v-1.2zm-1.3 4.1h1.2v-1.4h-1.2v1.4zm4.7-2.9v-1.2h-1.3v1.2h1.3zm-1.3 2.9h1.3v-1.4h-1.3v1.4zM280.3 87.9h-15.9v-2.3h15.9v2.3zM292.8 92.9c-.4.9-1.1 1.6-2.1 2.1s-2.7.8-5 .9l-.4-1.7c2.6-.1 4.2-.5 4.8-1.2h-3v-6.4h13.8v6.4h-3.9v.6c0 .3.1.4.4.5s.7.1 1.3.1h1.1s.8-.1.9-.1l.3-.3s.1-.6.1-1.3l1.9.2v1.7c0 .5-.1.9-.4 1.1s-.8.4-1.6.4h-4.199999999999999s-1.3-.2-1.6-.4-.4-.6-.4-1v-1.3h-2zm-1-8.7v.8h2.8v.9h-8.3v-5.7h8.2v.9h-2.7v.7h2.5v2.4h-2.5zm-1.8-3.1h-1.8v.7h1.8v-.7zm-1.8 1.5v.8h4.2v-.8h-4.2zm1.8 2.3v-.8h-1.8v.8h1.8zm8.3 3.4v-.8h-8.7v.8h8.7zm-8.7 1.7h8.7v-.8h-8.7v.8zm8.7 1h-8.7v.9h8.7v-.9zm.4-10.9c-.1.2-.2.5-.4.8h4.1v1.7h-5.2c-.5.6-.9 1-1.3 1.3l-1.6-1c.4-.4.9-.9 1.3-1.5s.8-1.1.9-1.6l2.2.3zm3.1 5.6h-6v-1.7h6v1.7z"/><path fill="#F15A24" d="M132.8 87l-7.9 12.1h-8.1l7.9-12.1-7.9-11h8.1l7.9 11z"/><path d="M150.4 87l-7.9 12.1h-8.1l7.9-12.1-7.9-11h8.1l7.9 11zM168 87l-7.9 12.1h-8.1l8-12.1-7.9-11h8.1l7.8 11z"/><path fill="#F15A24" d="M348.1 88.1l7.9-12.1h8.1l-7.9 12.1 7.9 11h-8.1l-7.9-11z"/><path d="M330.5 88.1l7.9-12.1h8.1l-7.9 12.1 7.9 11h-8.1l-7.9-11zM312.8 88.1l7.9-12.1h8.1l-7.9 12.1 7.9 11h-8.1l-7.9-11z"/></g></svg>
