<?xml version="1.0" encoding="utf-8"?>
<!-- Generator: Adobe Illustrator 18.1.1, SVG Export Plug-In . SVG Version: 6.00 Build 0)  -->
<!DOCTYPE svg PUBLIC "-//W3C//DTD SVG 1.1//EN" "http://www.w3.org/Graphics/SVG/1.1/DTD/svg11.dtd" [
	<!ENTITY st0 "fill:#F15A24;stroke:#F15A24;stroke-width:2.0211;stroke-miterlimit:10;">
	<!ENTITY st1 "fill:none;">
]>
<svg version="1.1" id="レイヤー_1" xmlns="http://www.w3.org/2000/svg" xmlns:xlink="http://www.w3.org/1999/xlink" x="0px"
	 y="0px" viewBox="160 0 160 60" style="enable-background:new 160 0 160 60;" xml:space="preserve">
<g>
	<path d="M196.3,27.6c0,1.5-0.3,2.8-1,3.8c-0.6,1-1.5,1.7-2.5,2.2c1.7,0.6,2.8,1.6,3.4,2.8c0.6,1.2,0.9,2.6,0.8,4.1
		c0,3.1-1.1,5.6-3.2,7.5c-2.2,1.9-5.4,2.9-9.6,3c-2.8-0.1-5-0.5-6.5-1.2c-1.6-0.7-2.7-1.4-3.3-2.2c-0.6-0.5-1.3-1.4-1.9-2.7
		s-1-3.1-1-5.6h8.4c0,1.3,0.3,2.4,1,3.2c0.7,0.8,1.8,1.3,3.4,1.3c1.5,0,2.5-0.4,3.1-1.1c0.6-0.7,0.8-1.5,0.8-2.5
		c0-1.3-0.4-2.2-1.3-2.7c-0.9-0.5-2.4-0.7-4.5-0.7v-5.2c2.3,0,3.8-0.3,4.6-0.9c0.7-0.6,1.1-1.4,1-2.4c0-0.8-0.3-1.5-0.8-2
		c-0.6-0.5-1.5-0.7-2.8-0.7c-1.3,0-2.3,0.4-2.9,1s-0.9,1.4-0.9,2.3h-8.3c0.1-3.1,1.2-5.6,3.5-7.4c2.3-1.9,5.4-2.8,9.2-2.8
		c3.7,0.1,6.6,1,8.5,2.7C195.3,23,196.3,25.1,196.3,27.6z"/>
	<path d="M215.1,29h10l-7.8,10.5l8.1,11.7h-10.2l-3.5-6.1l-3.2,6.1h-10.1l8.2-11.7L199,29h10l3,5.3L215.1,29z"/>
	<path d="M251.3,27.6c0,1.5-0.3,2.8-1,3.8c-0.6,1-1.5,1.7-2.5,2.2c1.7,0.6,2.8,1.6,3.4,2.8c0.6,1.2,0.9,2.6,0.8,4.1
		c0,3.1-1.1,5.6-3.2,7.5c-2.2,1.9-5.4,2.9-9.6,3c-2.8-0.1-5-0.5-6.5-1.2c-1.6-0.7-2.7-1.4-3.3-2.2c-0.6-0.5-1.3-1.4-1.9-2.7
		c-0.6-1.3-1-3.1-1-5.6h8.4c0,1.3,0.3,2.4,1,3.2s1.8,1.3,3.4,1.3c1.5,0,2.5-0.4,3.1-1.1c0.6-0.7,0.8-1.5,0.8-2.5
		c0-1.3-0.4-2.2-1.3-2.7s-2.4-0.7-4.5-0.7v-5.2c2.3,0,3.8-0.3,4.6-0.9c0.7-0.6,1.1-1.4,1-2.4c0-0.8-0.3-1.5-0.8-2
		c-0.6-0.5-1.5-0.7-2.8-0.7c-1.3,0-2.3,0.4-2.9,1s-0.9,1.4-0.9,2.3h-8.3c0.1-3.1,1.2-5.6,3.5-7.4c2.3-1.9,5.4-2.8,9.2-2.8
		c3.7,0.1,6.6,1,8.5,2.7C250.3,23,251.3,25.1,251.3,27.6z"/>
	<g>
		<path style="&st0;" d="M259.9,49.9V11.4h14.3l9.5,29.6l9.4-29.6h14.3V50h-9V18.3L288.6,50h-9.8l-9.9-31.7V50h-9V49.9z"/>
	</g>
</g>
<rect id="_x3C_スライス_x3E_" x="160" style="&st1;" width="160" height="60"/>
</svg>
