<?xml version="1.0" encoding="utf-8"?>
<!-- Generator: Adobe Illustrator 18.1.1, SVG Export Plug-In . SVG Version: 6.00 Build 0)  -->
<!DOCTYPE svg PUBLIC "-//W3C//DTD SVG 1.1//EN" "http://www.w3.org/Graphics/SVG/1.1/DTD/svg11.dtd" [
	<!ENTITY st0 "fill:#F15A24;">
]>
<svg version="1.1" id="レイヤー_1" xmlns="http://www.w3.org/2000/svg" xmlns:xlink="http://www.w3.org/1999/xlink" x="0px"
	 y="0px" viewBox="0 0 480 36" style="enable-background:new 0 0 480 36;" xml:space="preserve">
<g>
	<path d="M183.6,14.8h-6.9V13h6.9V14.8z M183.2,25.5h-3.9v0.7h-2.2v-5.9h6.1V25.5z M183.1,12.3h-5.8v-1.6h5.8V12.3z M183.1,17.1
		h-5.7v-1.5h5.7V17.1z M183.1,19.5h-5.7v-1.5h5.7V19.5z M181,24v-2.1h-1.7V24H181z M193.4,13.4v1.9c0,0.3-0.1,0.6-0.3,0.8
		s-0.4,0.4-0.7,0.5s-0.7,0.1-1.3,0.1c-0.4,0-0.9,0-1.3-0.1s-0.7-0.2-1-0.4s-0.3-0.5-0.3-0.9v-3.1h-1.7v0.1v0.1v0.2
		c0,0.8-0.2,1.7-0.6,2.5s-0.9,1.5-1.5,2l-1.4-1.2c0.4-0.4,0.7-0.9,1-1.4s0.4-1.3,0.4-2.2v-1.8h6.1v4.1c0,0.2,0.1,0.3,0.2,0.3h0.3
		c0.1,0,0.2,0,0.2-0.1s0.1-0.1,0.1-0.1s0-0.3,0-0.6s0-0.7,0-1.1L193.4,13.4z M192.9,17.5c0,2.2-0.8,4.1-2.2,5.6
		c0.6,0.3,1.6,0.6,2.9,1l-1.2,2.1c-1.4-0.4-2.7-0.9-3.7-1.6c-1.4,0.9-2.9,1.4-4.4,1.7l-0.8-1.9c1.4-0.3,2.6-0.7,3.5-1.2
		c-1.1-1.1-1.9-2.4-2.2-3.8h-0.9v-1.9H192.9z M188.7,21.9c0.7-0.8,1.2-1.6,1.5-2.5H187C187.3,20.3,187.9,21.2,188.7,21.9z"/>
	<path d="M202.8,23.7v-6.5h2.7v-0.8h-7.2v-1.4h7.2v-0.8h-6.7v-3.2h15.6v3.2H208v0.8h6.8v1.4H208v0.8h5.7v6.5H202.8z M201.5,26.2H199
		v-8.6h2.5v6.8h13.3v1.4h-13.3V26.2z M203.6,13.1v-1h-2.5v1H203.6z M211.3,19.1v-0.7h-6.1v0.7H211.3z M205.2,20.8h6.1V20h-6.1V20.8z
		 M205.2,22.5h6.1v-0.9h-6.1V22.5z M205.6,12v1h2.3v-1H205.6z M212.2,13.1v-1h-2.3v1H212.2z"/>
	<path d="M233.2,25.5h-6.8v0.7h-2.4v-6.8h4.2v-5.1h-4.7v2.1c0,2.2-0.2,4.2-0.6,5.9c-0.4,1.7-1,3.1-1.7,4l-1.8-1.2
		c0.5-0.7,0.8-1.9,1.2-3.4s0.5-3.2,0.5-5v-4.5h6.6v-1.8h2.5v1.8h6.6v2h-6v1.6h5.7v1.9h-5.7v1.6h5v6.8h-2.4V25.5z M226.3,23.7h6.8
		v-2.5h-6.8V23.7z"/>
	<path d="M255.6,22.4h-1.3V26h-2.1v-3.6h-1.2v3.7h-2V15h3.3v-1h-3.5v-0.4l-0.9,1.3c-0.9-0.5-1.7-1.4-2.4-2.6c-0.5,1-1.3,2-2.3,2.9
		h1.1V14h2.1v1.1h1.6v1.6h-1.6v1.2h2.3v1.7h-6.9v-1.7h2.5v-1.2h-1.7v-1.1l-0.5,0.4l-1-1.5c0.5-0.4,1.1-1,1.8-1.8s1.1-1.6,1.4-2.3
		c0.8,0,1.3,0,1.7,0c0.4,0,0.5,0,0.5,0c0.5,0.9,1.3,1.8,2.3,2.7v-1h3.5v-1.8h2.2v1.8h1l-0.6-1.2l1.7-0.7c0.3,0.5,0.7,1.1,1.1,1.9
		h0.8v1.8h-4v1h3.4v9.6c0,0.5-0.2,0.8-0.5,1.1S256.5,26,256,26h-1.2l-0.3-1.9h0.7c0.3,0,0.4-0.1,0.4-0.4V22.4z M248.2,26h-2.1v-0.5
		H244v0.6h-2.1v-5.7h6.3V26z M246.1,23.9V22h-2v1.9H246.1z M252.2,16.6h-1.2v1.2h1.2V16.6z M250.9,20.8h1.2v-1.4h-1.2V20.8z
		 M255.6,17.9v-1.2h-1.3v1.2H255.6z M254.3,20.8h1.3v-1.4h-1.3V20.8z"/>
	<path d="M279.3,18.4h-15.9v-2.3h15.9V18.4z"/>
	<path d="M291.8,23.4c-0.4,0.9-1.1,1.6-2.1,2.1s-2.7,0.8-5,0.9l-0.4-1.7c2.6-0.1,4.2-0.5,4.8-1.2h-3V17h13.8v6.4h-3.9V24
		c0,0.3,0.1,0.4,0.4,0.5s0.7,0.1,1.3,0.1c0.2,0,0.6,0,1.1,0c0.5,0,0.8-0.1,0.9-0.1s0.2-0.2,0.3-0.3c0.1-0.2,0.1-0.6,0.1-1.3l1.9,0.2
		v1.7c0,0.5-0.1,0.9-0.4,1.1c-0.3,0.2-0.8,0.4-1.6,0.4c-0.8,0-1.6,0-2.3,0c-0.5,0-1.1,0-1.9,0s-1.3-0.2-1.6-0.4
		c-0.3-0.3-0.4-0.6-0.4-1v-1.3H291.8z M290.8,14.6v0.8h2.8v0.9h-8.3v-5.7h8.2v0.9h-2.7v0.7h2.5v2.4H290.8z M289,11.5h-1.8v0.7h1.8
		V11.5z M287.2,13v0.8h4.2V13H287.2z M289,15.4v-0.8h-1.8v0.8H289z M297.3,18.8V18h-8.7v0.8H297.3z M288.6,20.5h8.7v-0.8h-8.7V20.5z
		 M297.3,21.4h-8.7v0.9h8.7V21.4z M297.7,10.5c-0.1,0.2-0.2,0.5-0.4,0.8h4.1V13h-5.2c-0.5,0.6-0.9,1-1.3,1.3l-1.6-1
		c0.4-0.4,0.9-0.9,1.3-1.5s0.8-1.1,0.9-1.6L297.7,10.5z M300.8,16.1h-6v-1.7h6V16.1z"/>
</g>
<g>
	<g>
		<path style="&st0;" d="M131.8,17.5l-7.9,12.1h-8.1l7.9-12.1l-7.9-11h8.1L131.8,17.5z"/>
	</g>
	<g>
		<path d="M149.4,17.5l-7.9,12.1h-8.1l7.9-12.1l-7.9-11h8.1L149.4,17.5z"/>
	</g>
	<g>
		<path d="M167,17.5l-7.9,12.1h-8.1l7.9-12.1l-7.9-11h8.1L167,17.5z"/>
	</g>
</g>
<g>
	<g>
		<path style="&st0;" d="M347.1,18.5l7.9-12.1h8.1l-7.9,12.1l7.9,11h-8.1L347.1,18.5z"/>
	</g>
	<g>
		<path d="M329.5,18.5l7.9-12.1h8.1l-7.9,12.1l7.9,11h-8.1L329.5,18.5z"/>
	</g>
	<g>
		<path d="M311.8,18.5l7.9-12.1h8.1l-7.9,12.1l7.9,11h-8.1L311.8,18.5z"/>
	</g>
</g>
<g>
</g>
<g>
</g>
<g>
</g>
<g>
</g>
<g>
</g>
<g>
</g>
<g>
</g>
<g>
</g>
<g>
</g>
<g>
</g>
<g>
</g>
<g>
</g>
<g>
</g>
<g>
</g>
<g>
</g>
</svg>
