<?xml version="1.0" encoding="utf-8"?>
<!-- Generator: Adobe Illustrator 18.1.1, SVG Export Plug-In . SVG Version: 6.00 Build 0)  -->
<!DOCTYPE svg PUBLIC "-//W3C//DTD SVG 1.1//EN" "http://www.w3.org/Graphics/SVG/1.1/DTD/svg11.dtd" [
	<!ENTITY st0 "fill:#F15A24;stroke:#F15A24;stroke-width:3;stroke-miterlimit:10;">
	<!ENTITY st1 "fill:#FFFFFF;stroke:#FFFFFF;stroke-width:3;stroke-miterlimit:10;">
	<!ENTITY st2 "fill:#FFFFFF;">
	<!ENTITY st3 "fill:#F15A24;">
	<!ENTITY st4 "fill:#F15A24;stroke:#F15A24;stroke-miterlimit:10;">
	<!ENTITY st5 "fill:#FFFFFF;stroke:#FFFFFF;stroke-miterlimit:10;">
]>
<svg version="1.1" id="レイヤー_1" xmlns="http://www.w3.org/2000/svg" xmlns:xlink="http://www.w3.org/1999/xlink" x="0px"
	 y="0px" viewBox="0 0 480 60" style="enable-background:new 0 0 480 60;" xml:space="preserve">
<g>
	<g>
		<g>
			<path style="&st0;" d="M207.4,35.7v13h-7.8V12.3h17.6c4,0.1,7,1.2,8.8,3.4c1.8,2.2,2.7,4.9,2.7,8.2c0.1,3.1-0.8,5.8-2.5,8.1
				s-4.7,3.5-8.8,3.6H207.4z M215.8,29.2c1.8,0,3.1-0.5,3.9-1.5c0.8-0.9,1.2-2.2,1.2-3.7c0-1.5-0.4-2.7-1.2-3.8
				c-0.8-1-2.1-1.6-4-1.6h-8.3v10.6H215.8z"/>
			<path style="&st1;" d="M266.2,48.7h-8.1c0,0,0-7.8,0-9.2s-0.4-2.6-1.1-3.5s-2.1-1.3-4.1-1.3h-8.9v14.1h-7.8V12.3h19.6
				c4.2,0.1,7.1,1.1,8.8,3.1c1.7,2,2.5,4.4,2.4,7.2c0,2-0.4,3.8-1.4,5.3c-0.9,1.5-2.4,2.7-4.4,3.3c2.1,0.7,3.4,1.8,4,3.4
				c0.6,1.5,0.9,3.2,0.8,5V48.7z M254,18.6h-9.8v9.7h9.8c2,0,3.4-0.5,4.2-1.4s1.2-2,1.2-3.3c0-1.4-0.4-2.6-1.2-3.5
				C257.3,19.1,255.9,18.6,254,18.6z"/>
			<path style="&st1;" d="M301,32.6h-18.3v9.5h21v6.5H275V12.3h27.7v6.2h-20v7.8H301V32.6z"/>
			<path style="&st1;" d="M327.1,49.6c-5.3-0.1-9.3-1.3-11.9-3.6c-2.6-2.3-3.9-5.2-3.9-8.6h7.7c0,1.9,0.8,3.3,2.4,4.4
				c1.6,1.1,3.7,1.6,6.4,1.6c2.3,0,4-0.4,5.2-1.2s1.8-1.9,1.8-3.3c-0.1-2.2-1.3-3.6-3.6-4.3s-4.9-1.3-7.9-1.8
				c-3-0.5-5.6-1.5-7.9-2.9c-2.3-1.4-3.5-4-3.6-7.6c0-3.5,1.3-6.3,3.8-8.1s6.2-2.8,11.1-2.9c5,0.1,8.7,1.2,11,3.4
				c2.3,2.2,3.4,4.9,3.4,8h-7.5c0-1.8-0.7-3.1-2.1-4.1c-1.3-0.9-3.2-1.4-5.4-1.4c-2.2,0-3.9,0.4-5,1.2c-1.2,0.8-1.7,1.9-1.7,3.4
				c0.1,1.7,1.3,2.8,3.6,3.5c2.3,0.6,4.9,1.2,7.9,1.8c3,0.6,5.7,1.6,7.9,3.1c2.3,1.5,3.5,4,3.6,7.5c0,3.6-1.2,6.4-3.7,8.6
				C336.2,48.4,332.4,49.5,327.1,49.6z"/>
			<path style="&st1;" d="M376.2,32.6h-18.3v9.5h21v6.5h-28.7V12.3h27.7v6.2h-20v7.8h18.3V32.6z"/>
			<path style="&st1;" d="M410.2,37.6V12.3h7.7v36.3h-8.2l-15.6-25.1v25.1h-7.7V12.3h8.2L410.2,37.6z"/>
			<path style="&st1;" d="M443.7,48.7h-7.8V18.8h-11.4v-6.4H455v6.4h-11.3V48.7z"/>
		</g>
		<g>
			<g>
				<path style="&st2;" d="M38.6,15.8c0,0.8-0.2,1.5-0.5,2.1s-0.8,0.9-1.4,1.2c0.9,0.3,1.5,0.9,1.9,1.5S39,22,39,22.9
					c0,1.7-0.6,3-1.8,4.1s-2.9,1.6-5.3,1.6c-1.5,0-2.7-0.3-3.6-0.6s-1.5-0.8-1.8-1.2c-0.4-0.3-0.7-0.8-1-1.4s-0.5-1.7-0.5-3h4.6
					c0,0.7,0.2,1.3,0.5,1.7s1,0.7,1.9,0.7c0.8,0,1.4-0.2,1.7-0.6s0.5-0.8,0.4-1.4c0-0.7-0.2-1.2-0.7-1.5s-1.3-0.4-2.5-0.4V18
					c1.3,0,2.1-0.2,2.5-0.5s0.6-0.8,0.5-1.3c0-0.5-0.1-0.8-0.5-1.1s-0.8-0.4-1.5-0.4c-0.7,0-1.2,0.2-1.6,0.6s-0.5,0.8-0.5,1.3h-4.5
					c0-1.7,0.7-3,1.9-4.1s2.9-1.5,5-1.6c2,0,3.6,0.5,4.6,1.5S38.6,14.5,38.6,15.8z"/>
				<path style="&st2;" d="M48.8,15.5h5.4l-4.3,6l4.4,6.7h-5.6l-1.9-3.5l-1.8,3.5h-5.5l4.5-6.6l-4.1-6h5.5l1.6,3L48.8,15.5z"/>
				<path style="&st2;" d="M68.6,15.8c0,0.8-0.2,1.5-0.5,2.1s-0.8,0.9-1.4,1.2c0.9,0.3,1.5,0.9,1.9,1.5S69,22,69,22.9
					c0,1.7-0.6,3-1.8,4.1s-2.9,1.6-5.3,1.6c-1.5,0-2.7-0.3-3.6-0.6s-1.5-0.8-1.8-1.2c-0.4-0.3-0.7-0.8-1-1.4s-0.5-1.7-0.5-3h4.6
					c0,0.7,0.2,1.3,0.5,1.7s1,0.7,1.9,0.7c0.8,0,1.4-0.2,1.7-0.6s0.5-0.8,0.4-1.4c0-0.7-0.2-1.2-0.7-1.5s-1.3-0.4-2.5-0.4V18
					c1.3,0,2.1-0.2,2.5-0.5s0.6-0.8,0.5-1.3c0-0.5-0.1-0.8-0.5-1.1s-0.8-0.4-1.5-0.4c-0.7,0-1.2,0.2-1.6,0.6s-0.5,0.8-0.5,1.3h-4.5
					c0-1.7,0.7-3,1.9-4.1s2.9-1.5,5-1.6c2,0,3.6,0.5,4.6,1.5S68.6,14.5,68.6,15.8z"/>
				<path style="&st3;" d="M83.3,11l1.9,11.2L87.4,11h4.5L94,22.1L95.9,11h5.2L97,28.1h-5.4l-2-10.3l-1.9,10.3h-5.5L78,11H83.3z"/>
				<path style="&st2;" d="M102.9,11h13.7v4.1h-8.2v2.3h7v3.9h-7V24h8.6v4.1h-14.1V11z"/>
				<path style="&st2;" d="M128.1,11c2.2,0,3.8,0.4,4.8,1.2s1.5,1.9,1.4,3.3c0,0.8-0.2,1.5-0.6,2.1s-0.9,1-1.5,1.4
					c1,0.3,1.6,0.8,2.1,1.5s0.6,1.5,0.6,2.6c0,1.6-0.5,2.8-1.6,3.7s-2.6,1.3-4.8,1.3h-9V11H128.1z M124.9,17.8h2.8
					c0.5,0,0.9-0.1,1.1-0.4s0.4-0.6,0.4-1.2c0-0.5-0.1-0.9-0.4-1.1s-0.8-0.4-1.6-0.4h-2.4V17.8z M124.9,24.2h3
					c0.7,0,1.3-0.2,1.5-0.5s0.4-0.7,0.4-1.1c0-0.5-0.2-0.9-0.5-1.2s-0.8-0.4-1.5-0.4h-3V24.2z"/>
			</g>
			<g>
				<path style="&st4;" d="M25.4,49.7V32.6h6.5l4.3,13.1l4.3-13.1H47v17.1h-4.1v-14l-4.4,14H34l-4.5-14v14H25.4z"/>
				<path style="&st5;" d="M55.3,46.2l-1.5,3.5h-4.6l7.7-17.1h5l7.7,17.1h-4.6l-1.4-3.5H55.3z M56.4,43.3h6.1l-3.1-7.4L56.4,43.3z"
					/>
				<path style="&st5;" d="M89.9,49.7h-2.9l-0.5-2.1c-0.5,0.6-1.2,1.2-2.2,1.7s-2.4,0.8-4.1,0.8c-3.2-0.1-5.7-1-7.4-2.7
					S70,43.7,70,41.4c0-2.8,0.9-5.1,2.6-6.7s4.3-2.5,7.8-2.5c2.9,0.1,5.2,0.6,6.8,1.8s2.5,2.5,2.7,4h-4.5c-0.2-0.7-0.7-1.4-1.5-1.9
					s-1.9-0.8-3.4-0.8c-2.1,0-3.6,0.6-4.5,1.8s-1.4,2.6-1.4,4.2c0,1.6,0.5,3,1.5,4.2s2.5,1.7,4.5,1.8c1.6,0,2.8-0.4,3.7-1.1
					s1.4-1.6,1.6-2.6H81v-2.9h8.9V49.7z"/>
				<path style="&st5;" d="M99,46.2l-1.5,3.5H93l7.7-17.1h5l7.7,17.1h-4.6l-1.4-3.5H99z M100.1,43.3h6.1l-3.1-7.4L100.1,43.3z"/>
				<path style="&st5;" d="M133,35.6l-11.8,11h11.5v3h-16.7v-2.9l11.7-11.1h-11.5v-3.1H133V35.6z"/>
				<path style="&st5;" d="M141.2,32.6v17.1h-4.4V32.6H141.2z"/>
				<path style="&st5;" d="M158.2,44.5V32.6h4.3v17.1h-4.6l-8.8-11.8v11.8h-4.3V32.6h4.6L158.2,44.5z"/>
				<path style="&st5;" d="M180.6,42.1h-10.3v4.5h11.8v3.1H166V32.6h15.5v2.9h-11.2v3.7h10.3V42.1z"/>
			</g>
		</g>
	</g>
</g>
<g>
</g>
<g>
</g>
<g>
</g>
<g>
</g>
<g>
</g>
<g>
</g>
<g>
</g>
<g>
</g>
<g>
</g>
<g>
</g>
<g>
</g>
<g>
</g>
<g>
</g>
<g>
</g>
<g>
</g>
</svg>
