<?xml version="1.0" encoding="utf-8"?>
<!-- Generator: Adobe Illustrator 19.0.1, SVG Export Plug-In . SVG Version: 6.00 Build 0)  -->
<!DOCTYPE svg PUBLIC "-//W3C//DTD SVG 1.1//EN" "http://www.w3.org/Graphics/SVG/1.1/DTD/svg11.dtd" [
	<!ENTITY st0 "fill:#F15A24;">
]>
<svg version="1.1" id="レイヤー_1" xmlns="http://www.w3.org/2000/svg" xmlns:xlink="http://www.w3.org/1999/xlink" x="0px"
	 y="0px" viewBox="0 0 255 22" style="enable-background:new 0 0 255 22;" xml:space="preserve">
<g id="XMLID_1955_">
	<path id="XMLID_1960_" style="&st0;" d="M9.6,0.1c3,0,5.3,0.7,6.7,2c1.4,1.3,2.1,3.2,2.1,5.6c-0.1,2.7-0.8,4.7-2.2,5.9
		c-1.4,1.2-3.1,1.8-5,1.8H6.5v6.7H0v-22H9.6z M12.1,7.8c0-0.8-0.2-1.3-0.6-1.7c-0.4-0.4-0.9-0.6-1.6-0.6H6.5V10h3
		c0.9,0,1.5-0.2,1.9-0.6C11.9,9.1,12.1,8.5,12.1,7.8z"/>
	<path id="XMLID_1963_" d="M27.5,0.1v16.2h8.9v5.8H21v-22H27.5z"/>
	<path id="XMLID_1965_" d="M52.1,0.1l7.2,22h-6.5L52,19.2h-6.5l-0.8,2.9h-6.4l7.2-22H52.1z M46.7,14.6h4.2l-2.1-7.7L46.7,14.6z"/>
	<path id="XMLID_1968_" d="M71.2,0.1h7.1L70.9,14v8.1h-6.5V14L56.8,0.1h7.2l3.5,7.5L71.2,0.1z"/>
	<path id="XMLID_1970_" d="M79.9,0.1h16.3v5.2h-9.8v2.9h8.3v5h-8.3v3.5h10.2v5.3H79.9V0.1z"/>
	<path id="XMLID_1972_" d="M116.9,6.4c0,1.5-0.3,2.7-0.9,3.6c-0.6,0.8-1.4,1.5-2.5,1.9c0.5,0.1,1,0.3,1.4,0.5
		c0.4,0.2,0.7,0.5,0.9,0.7c0.8,1.1,1.2,2.6,1.1,4.5c0,1.9,0,3,0.2,3.5c0.1,0.1,0.1,0.1,0.2,0.2c0.1,0,0.1,0.1,0.2,0.1v0.8H111
		c-0.1-0.5-0.2-1-0.2-1.5c-0.1-0.5-0.1-1.3-0.1-2.2c0-1.1,0-1.8-0.1-2.2c-0.1-0.4-0.3-0.7-0.5-1c-0.1-0.1-0.3-0.3-0.6-0.4
		c-0.3-0.2-0.6-0.2-0.9-0.2h-3.5v7.6h-6.4v-22h11.1c2.4,0,4.3,0.5,5.5,1.6C116.3,2.8,116.9,4.4,116.9,6.4z M108.9,9.6
		c0.7,0,1.2-0.2,1.5-0.6c0.3-0.4,0.5-0.9,0.5-1.5c0-0.6-0.2-1.1-0.5-1.5c-0.3-0.4-0.9-0.6-1.8-0.6h-3.5v4.2H108.9z"/>
	<path id="XMLID_1975_" style="&st0;" d="M138.2,0.1c3,0,5.3,0.7,6.7,2c1.4,1.3,2.1,3.2,2.1,5.6c-0.1,2.7-0.8,4.7-2.2,5.9
		c-1.4,1.2-3.1,1.8-5,1.8h-4.6v6.7h-6.5v-22H138.2z M140.7,7.8c0-0.8-0.2-1.3-0.6-1.7c-0.4-0.4-0.9-0.6-1.6-0.6h-3.4V10h3
		c0.9,0,1.5-0.2,1.9-0.6C140.5,9.1,140.7,8.5,140.7,7.8z"/>
	<path id="XMLID_1978_" d="M167.8,6.4c0,1.5-0.3,2.7-0.9,3.6c-0.6,0.8-1.4,1.5-2.5,1.9c0.5,0.1,1,0.3,1.4,0.5
		c0.4,0.2,0.7,0.5,0.9,0.7c0.8,1.1,1.2,2.6,1.1,4.5c0,1.9,0,3,0.2,3.5c0.1,0.1,0.1,0.1,0.2,0.2c0.1,0,0.1,0.1,0.2,0.1v0.8H162
		c-0.1-0.5-0.2-1-0.2-1.5c-0.1-0.5-0.1-1.3-0.1-2.2c0-1.1,0-1.8-0.1-2.2c-0.1-0.4-0.3-0.7-0.5-1c-0.1-0.1-0.3-0.3-0.6-0.4
		c-0.3-0.2-0.6-0.2-0.9-0.2H156v7.6h-6.4v-22h11.1c2.4,0,4.3,0.5,5.5,1.6C167.3,2.8,167.8,4.4,167.8,6.4z M159.8,9.6
		c0.7,0,1.2-0.2,1.5-0.6c0.3-0.4,0.5-0.9,0.5-1.5c0-0.6-0.2-1.1-0.5-1.5c-0.3-0.4-0.9-0.6-1.8-0.6H156v4.2H159.8z"/>
	<path id="XMLID_1981_" d="M190.8,11c0,2.9-0.8,5.5-2.5,7.6c-1.7,2.2-4.4,3.3-8.2,3.4c-3.7-0.1-6.4-1.3-8.1-3.5
		c-1.7-2.2-2.5-4.7-2.5-7.5c0-2.9,0.8-5.4,2.5-7.6c1.7-2.2,4.4-3.3,8.1-3.4c3.8,0.1,6.5,1.3,8.2,3.4C190,5.7,190.8,8.2,190.8,11z
		 M184.2,11c0-1.8-0.3-3.2-0.9-4.2c-0.6-1-1.6-1.5-3.1-1.5c-1.3,0-2.4,0.4-3,1.4c-0.7,0.9-1,2.4-1,4.4c0,1.5,0.2,2.9,0.8,4
		c0.5,1.1,1.6,1.7,3.3,1.8c1.6,0,2.6-0.6,3.2-1.6C183.9,14.2,184.2,12.8,184.2,11z"/>
	<path id="XMLID_1984_" d="M200.1,5.4v3.5h7.1v5.3h-7.1v7.8h-6.5v-22H209v5.3H200.1z"/>
	<path id="XMLID_1986_" d="M218.3,0.1v22h-6.7v-22H218.3z"/>
	<path id="XMLID_1988_" d="M227.1,0.1v16.2h8.9v5.8h-15.5v-22H227.1z"/>
	<path id="XMLID_1990_" d="M238.3,0.1h16.3v5.2h-9.8v2.9h8.3v5h-8.3v3.5H255v5.3h-16.7V0.1z"/>
</g>
<g>
</g>
<g>
</g>
<g>
</g>
<g>
</g>
<g>
</g>
<g>
</g>
<g>
</g>
<g>
</g>
<g>
</g>
<g>
</g>
<g>
</g>
<g>
</g>
<g>
</g>
<g>
</g>
<g>
</g>
</svg>
