<?xml version="1.0" encoding="utf-8"?>
<!-- Generator: Adobe Illustrator 19.0.1, SVG Export Plug-In . SVG Version: 6.00 Build 0)  -->
<!DOCTYPE svg PUBLIC "-//W3C//DTD SVG 1.1//EN" "http://www.w3.org/Graphics/SVG/1.1/DTD/svg11.dtd" [
	<!ENTITY st0 "fill:#F15A24;">
	<!ENTITY st1 "fill:#FFFFFF;">
	<!ENTITY st2 "fill:#F15A24;stroke:#F15A24;stroke-width:1.1224;stroke-miterlimit:10;">
	<!ENTITY st3 "fill:#FFFFFF;stroke:#FFFFFF;stroke-width:1.1224;stroke-miterlimit:10;">
]>
<svg version="1.1" id="レイヤー_1" xmlns="http://www.w3.org/2000/svg" xmlns:xlink="http://www.w3.org/1999/xlink" x="0px"
	 y="0px" viewBox="0 291 480 60" style="enable-background:new 0 291 480 60;" xml:space="preserve">
<g>
	<g>
		<g>
			<path style="&st0;" d="M260.3,311.2h-19v-4.9h19V311.2z M259.2,340.8h-10.6v1.7h-6.2v-16.3h16.8V340.8z M259,304.3h-15.8v-4.4
				H259V304.3z M258.9,317.7h-15.5v-4.1h15.5V317.7z M258.9,324.1h-15.5v-4.4h15.5V324.1z M253.3,336.7v-5.9h-4.7v5.9H253.3z
				 M287.2,307.4v5.4c0,0.8-0.2,1.6-0.6,2.2c-0.5,0.6-1.1,1.1-1.7,1.4c-0.6,0.2-1.9,0.3-3.6,0.3c-1.3,0-2.4,0-3.5-0.2
				s-1.9-0.5-2.5-1.3c-0.6-0.6-0.9-1.4-0.9-2.4v-8.5h-4.9v0.3v0.3v0.5c0,2.2-0.5,4.6-1.6,7c-1.1,2.2-2.4,4.1-4.1,5.4l-4-3.3
				c1.1-1.1,1.9-2.4,2.5-3.8s1.1-3.5,1.1-5.9V300h16.8v11.1c0,0.5,0.2,0.6,0.5,0.6h0.9c0.2,0,0.3,0,0.5-0.2c0.2-0.2,0.2-0.2,0.2-0.3
				c0-0.2,0-0.6,0.2-1.6c0-0.8,0-1.9,0-3L287.2,307.4z M285.6,318.5c0,6.2-2.1,11.2-6.2,15.5c1.6,0.6,4.4,1.7,8.1,3l-3.3,5.7
				c-4-1.3-7.3-2.5-10.1-4.4c-3.8,2.4-7.9,4-12,4.7l-2.2-5.2c3.8-0.8,7.1-1.9,9.7-3.3c-3.2-3.2-5.2-6.6-6.2-10.4h-2.4v-5.2h24.7
				L285.6,318.5L285.6,318.5z M274.4,330.7c1.9-2.1,3.3-4.4,4-7h-8.7C270.4,326.4,272,328.8,274.4,330.7z"/>
			<path style="&st1;" d="M303,335.6v-17.7h7.3v-2.2h-19.6v-4h19.6v-2.2h-18.5v-8.9h42.9v8.9h-17.6v2.2h18.7v4h-18.7v2.2h15.5v17.9
				H303L303,335.6L303,335.6z M299.6,342.7h-6.8V319h6.8v18.8h36.6v4h-36.6V342.7z M304.9,306.5v-2.8h-6.8v2.8H304.9z M326.1,323.1
				v-2.1h-16.8v2.1H326.1z M309.5,327.7h16.8v-2.2h-16.8V327.7z M309.5,332.6h16.8v-2.4h-16.8V332.6z M310.5,303.5v2.8h6.3v-2.8
				H310.5z M328.8,306.5v-2.8h-6.5v2.8H328.8z"/>
			<path style="&st1;" d="M376.3,340.8h-18.8v1.9h-6.6v-19h11.6v-14.1h-12.7v5.7c0,6.2-0.5,11.6-1.7,16.3c-1.3,4.9-2.5,8.5-4.6,11.1
				l-4.9-3.2c1.3-2.1,2.2-5.2,3.3-9.3c0.9-4.1,1.4-8.7,1.4-13.8v-12.3h18v-5.1h6.8v5.1h18v5.4h-16.6v4.4h15.7v5.2h-15.7v4.6h13.6
				v18.8h-6.5v-1.7C376.6,340.8,376.3,340.8,376.3,340.8z M357.5,335.8h18.8v-7h-18.8V335.8z"/>
			<path style="&st1;" d="M427.9,332.1h-3.5v10.1h-5.9v-10.1h-3.3v10.3h-5.5v-30.7h9v-2.8h-9.8v-1.3l-2.4,3.5
				c-2.4-1.4-4.6-3.8-6.6-7.1c-1.4,2.8-3.5,5.4-6.3,8.1h3v-3h5.7v3h4.4v4.6h-4.6v3.3h6.3v4.6h-19v-4.6h6.8v-3.3h-4.6v-3l-1.3,1.1
				l-2.8-4.1c1.4-1.1,3-2.8,4.9-4.9c1.9-2.1,3.2-4.4,3.8-6.3c2.1,0,3.6,0,4.7,0c1.1,0,1.4,0,1.4,0c1.4,2.5,3.6,5.1,6.5,7.4v-2.5h9.5
				v-5.1h5.9v5.1h2.8l-1.7-3.3l4.6-1.9c0.8,1.4,1.9,3.2,3,5.2h2.2v5.1h-10.9v2.8h9.2v26.4c0,1.3-0.5,2.2-1.4,3
				c-0.8,0.6-2.1,1.1-3.5,1.1h-3.2l-0.8-5.4h1.9c0.6,0,1.1-0.3,1.1-1.1v-4h0.3V332.1z M407.7,342.1H402v-1.3h-5.7v1.7h-5.7v-15.8
				h17.3L407.7,342.1L407.7,342.1z M402,336.4v-5.2h-5.5v5.2H402z M418.4,316.3h-3.3v3.3h3.3V316.3z M414.9,327.7h3.3v-3.8h-3.3
				V327.7z M427.9,319.8v-3.3h-3.5v3.3H427.9z M424.3,327.7h3.5v-3.8h-3.5V327.7z"/>
		</g>
		<g>
			<g>
				<path style="&st1;" d="M60.1,304.5c0,0.9-0.2,1.7-0.6,2.4c-0.3,0.7-0.9,1-1.6,1.3c1,0.3,1.7,1,2.1,1.7c0.4,0.7,0.4,1.6,0.4,2.6
					c0,1.9-0.7,3.4-2,4.6c-1.3,1.2-3.3,1.8-5.9,1.8c-1.7,0-3-0.3-4-0.7c-1-0.3-1.7-0.9-2-1.3c-0.4-0.3-0.8-0.9-1.1-1.6
					c-0.3-0.7-0.6-1.9-0.6-3.4H50c0,0.8,0.2,1.5,0.6,1.9c0.3,0.4,1.1,0.8,2.1,0.8c0.9,0,1.6-0.2,1.9-0.7s0.6-0.9,0.4-1.6
					c0-0.8-0.2-1.3-0.8-1.7c-0.6-0.3-1.5-0.4-2.8-0.4v-3.3c1.5,0,2.4-0.2,2.8-0.6s0.7-0.9,0.6-1.5c0-0.6-0.1-0.9-0.6-1.2
					s-0.9-0.4-1.7-0.4c-0.8,0-1.3,0.2-1.8,0.7c-0.4,0.4-0.6,0.9-0.6,1.5h-5.1c0-1.9,0.8-3.4,2.1-4.6c1.3-1.2,3.3-1.7,5.6-1.8
					c2.2,0,4,0.6,5.2,1.7C59.2,301.8,60.1,303,60.1,304.5z"/>
				<path style="&st1;" d="M71.5,304.1h6.1l-4.8,6.7l4.9,7.5h-6.3l-2.1-3.9l-2,3.9h-6.2l5.1-7.4l-4.6-6.7h6.2l1.8,3.4L71.5,304.1z"
					/>
				<path style="&st1;" d="M93.7,304.5c0,0.9-0.2,1.7-0.6,2.4c-0.3,0.7-0.9,1-1.6,1.3c1,0.3,1.7,1,2.1,1.7c0.4,0.7,0.4,1.6,0.4,2.6
					c0,1.9-0.7,3.4-2,4.6c-1.3,1.2-3.3,1.8-5.9,1.8c-1.7,0-3-0.3-4-0.7c-1-0.3-1.7-0.9-2-1.3c-0.4-0.3-0.8-0.9-1.1-1.6
					c-0.3-0.7-0.6-1.9-0.6-3.4h5.2c0,0.8,0.2,1.5,0.6,1.9s1.1,0.8,2.1,0.8c0.9,0,1.6-0.2,1.9-0.7s0.6-0.9,0.4-1.6
					c0-0.8-0.2-1.3-0.8-1.7s-1.5-0.4-2.8-0.4v-3.3c1.5,0,2.4-0.2,2.8-0.6s0.7-0.9,0.6-1.5c0-0.6-0.1-0.9-0.6-1.2s-0.9-0.4-1.7-0.4
					c-0.8,0-1.3,0.2-1.8,0.7c-0.4,0.4-0.6,0.9-0.6,1.5h-5.1c0-1.9,0.8-3.4,2.1-4.6c1.3-1.2,3.3-1.7,5.6-1.8c2.2,0,4,0.6,5.2,1.7
					C92.8,301.8,93.7,303,93.7,304.5z"/>
			</g>
			<g>
				<path style="&st2;" d="M45.3,342.5v-19.2h7.3l4.8,14.7l4.8-14.7h7.3v19.2h-4.6v-15.7L60,342.5h-5.1l-5.1-15.7v15.7
					C49.9,342.5,45.3,342.5,45.3,342.5z"/>
				<path style="&st3;" d="M78.8,338.6l-1.7,3.9H72l8.6-19.2h5.6l8.6,19.2h-5.2l-1.6-3.9C88.1,338.6,78.8,338.6,78.8,338.6z
					 M80.1,335.3h6.8l-3.5-8.3L80.1,335.3z"/>
				<path style="&st3;" d="M117.7,342.5h-3.3l-0.6-2.4c-0.6,0.7-1.3,1.3-2.5,1.9c-1.1,0.6-2.7,0.9-4.6,0.9c-3.6-0.1-6.4-1.1-8.3-3
					c-1.9-1.9-3.1-4.2-3.1-6.7c0-3.1,1-5.7,2.9-7.5c1.9-1.8,4.8-2.8,8.8-2.8c3.3,0.1,5.8,0.7,7.6,2c1.8,1.3,2.8,2.8,3,4.5h-5.1
					c-0.2-0.8-0.8-1.6-1.7-2.1s-2.1-0.9-3.8-0.9c-2.4,0-4,0.7-5.1,2c-1,1.3-1.6,2.9-1.6,4.7s0.6,3.4,1.7,4.7c1.1,1.3,2.8,1.9,5.1,2
					c1.8,0,3.1-0.4,4.2-1.2c1-0.8,1.6-1.8,1.8-2.9h-5.5v-3.3h10V342.5z"/>
				<path style="&st3;" d="M127.9,338.6l-1.7,3.9h-5.1l8.6-19.2h5.6l8.6,19.2h-5.2l-1.6-3.9C137.3,338.6,127.9,338.6,127.9,338.6z
					 M129.1,335.3h6.8l-3.5-8.3L129.1,335.3z"/>
				<path style="&st3;" d="M166,326.7L152.8,339h12.9v3.4H147v-3.3l13.1-12.5h-12.9v-3.5H166V326.7z"/>
				<path style="&st3;" d="M175.2,323.3v19.2h-4.9v-19.2H175.2z"/>
				<path style="&st3;" d="M194.3,336.7v-13.4h4.8v19.2H194l-9.9-13.2v13.2h-4.8v-19.2h5.2L194.3,336.7z"/>
				<path style="&st3;" d="M219.5,334h-11.6v5.1h13.2v3.5h-18.1v-19.2h17.4v3.3h-12.6v4.2h11.6V334z"/>
			</g>
		</g>
	</g>
</g>
</svg>
