<?xml version="1.0" encoding="utf-8"?>
<!-- Generator: Adobe Illustrator 19.0.1, SVG Export Plug-In . SVG Version: 6.00 Build 0)  -->
<!DOCTYPE svg PUBLIC "-//W3C//DTD SVG 1.1//EN" "http://www.w3.org/Graphics/SVG/1.1/DTD/svg11.dtd" [
	<!ENTITY st0 "fill:#F15A24;">
	<!ENTITY st1 "stroke:#000000;stroke-width:0.5;stroke-miterlimit:10;">
]>
<svg version="1.1" id="レイヤー_1" xmlns="http://www.w3.org/2000/svg" xmlns:xlink="http://www.w3.org/1999/xlink" x="0px"
	 y="0px" viewBox="-239 263 480 36" style="enable-background:new -239 263 480 36;" xml:space="preserve">
<g>
	<g>
		<path style="&st0;" d="M-107.2,280.5l-7.9,12.1h-8.1l7.9-12.1l-7.9-11h8.1L-107.2,280.5z"/>
	</g>
	<g>
		<path d="M-89.6,280.5l-7.9,12.1h-8.1l7.9-12.1l-7.9-11h8.1L-89.6,280.5z"/>
	</g>
	<g>
		<path d="M-72,280.5l-7.9,12.1H-88l7.9-12.1l-7.9-11h8.1L-72,280.5z"/>
	</g>
</g>
<g>
	<g>
		<path style="&st0;" d="M108.1,281.5l7.9-12.1h8.1l-7.9,12.1l7.9,11H116L108.1,281.5z"/>
	</g>
	<g>
		<path d="M90.5,281.5l7.9-12.1h8.1l-7.9,12.1l7.9,11h-8.1L90.5,281.5z"/>
	</g>
	<g>
		<path d="M72.8,281.5l7.9-12.1h8.1l-7.9,12.1l7.9,11h-8.1L72.8,281.5z"/>
	</g>
</g>
<g>
	<path style="&st1;" d="M-59.3,277.4v-1.8h12.1v1.8h-5.2v7.7h6.8v1.8h-15.3V285h6.7v-7.7H-59.3z"/>
	<path style="&st1;" d="M-28.6,277.3c0.1,0.2,0.3,0.5,0.6,0.7c0.1,0.2,0.4,0.4,0.8,0.6c-1.5,1.9-2.7,3.2-3.6,3.9
		c-1.1,1-2.5,2.1-4,3.1c-1.6,1-3.4,1.9-5.5,2.9l-1-2c1.6-0.5,2.8-1,3.5-1.4c1.6-0.8,2.7-1.5,3.4-2c1.1-0.8,2.1-1.6,3-2.5
		C-30.4,279.6-29.4,278.5-28.6,277.3z M-35.9,277.4l-1.3,1.5c-1-0.9-1.7-1.5-2.1-1.8c-0.1-0.1-0.3-0.2-0.5-0.4
		c-0.2-0.2-0.5-0.3-0.8-0.5c-0.3-0.2-0.5-0.4-0.7-0.5l1.1-1.4c0.5,0.3,1,0.6,1.4,0.8c0.4,0.3,0.7,0.5,0.8,0.6
		C-37,276.4-36.3,277-35.9,277.4z"/>
	<path style="&st1;" d="M-20,289v-15.6h2v5c2.1,0.8,3.5,1.3,4.1,1.5c0.5,0.2,1.7,0.8,3.6,1.8l-1.1,1.8c-1.1-0.7-2.2-1.4-3.4-2
		c-0.8-0.4-1.8-0.8-3.2-1.3v8.7H-20z"/>
	<path style="&st1;" d="M-3.8,283.4v-8.9h1.9v8.9H-3.8z M-1.5,289.1c-0.2-0.5-0.5-1.1-0.9-1.7c1.4-0.4,2.4-0.7,2.9-1
		c0.7-0.3,1.2-0.7,1.7-1.3c0.5-0.5,0.9-1.1,1.1-1.7c0.2-1,0.4-2.3,0.4-3.9v-5.8h1.8v6.3c0,2.5-0.4,4.5-1.3,5.8
		C3.2,287.1,1.3,288.2-1.5,289.1z"/>
	<path style="&st1;" d="M26,281.9H11.8v-1.8H26V281.9z"/>
	<path style="&st1;" d="M31.7,281.3h9l0.3-0.1l1.1,1c-0.8,1-1.5,1.6-1.8,2c-0.4,0.4-1,1-1.8,1.6c1.7,0.8,3.8,1.4,6.3,1.8
		c-0.3,0.5-0.6,1.1-0.8,1.6c-1.9-0.4-3.2-0.8-3.7-1c-1.1-0.4-2.2-0.9-3.2-1.5c-0.6,0.4-1.3,0.7-2.1,1c-1.3,0.4-2,0.7-2.2,0.7
		c-0.7,0.2-1.6,0.4-3,0.6c-0.1-0.5-0.4-1-0.7-1.5c1.4-0.1,2.5-0.3,3.4-0.6c1.2-0.3,2.2-0.7,3.2-1.1c-0.5-0.4-0.9-0.9-1.4-1.5
		c-0.2-0.2-0.5-0.7-1-1.5h-1.5V281.3z M42.5,276.1l-1.5,2.3h3.3v3.7h-1.8v-2.3H31v2.3h-1.5v-3.7h9.8c0.9-1.8,1.5-2.9,1.6-3.2
		L42.5,276.1z M30.3,275.3c0-0.1-0.1-0.3-0.2-0.5c-0.1-0.2-0.2-0.3-0.2-0.4c0-0.1-0.1-0.2-0.1-0.2c0-0.1-0.1-0.2-0.1-0.3h2.5
		c1.1,0,2.1,0,3-0.1l2.7-0.2c1.3,0,2.9-0.3,4.7-0.6l1,1.5c-2.3,0.3-4.6,0.5-6.9,0.6C35,275.2,32.9,275.2,30.3,275.3z M31,276.1
		l1.3-0.5c0.2,0.4,0.5,1.1,0.9,2l-1.3,0.5C31.9,278.1,31.6,277.4,31,276.1z M37,285c0.3-0.1,0.7-0.5,1.3-1c0.3-0.3,0.7-0.7,1.2-1.3
		h-4.6C35.4,283.7,36.2,284.4,37,285z M35.3,275.9l1.3-0.5c0.2,0.5,0.5,1.2,0.9,2.2l-1.3,0.5C36,277.6,35.7,276.8,35.3,275.9z"/>
	<path style="&st1;" d="M50.6,277v12.2H49v-9.4c-1,1.6-1.6,2.5-1.8,2.7c-0.2-0.5-0.5-1.1-0.8-1.8c0.8-1.1,1.5-2.2,2.2-3.4
		c0.6-1.1,1.2-2.6,2-4.5l1.6,0.6c-0.2,0.4-0.3,0.7-0.5,1c-0.1,0.3-0.3,0.6-0.4,1C51.1,275.8,50.9,276.3,50.6,277z M58.4,277.2v-3.9
		h1.7v3.9h2.8v1.5h-2.8v8.6c0,0.6-0.1,1-0.4,1.2c-0.4,0.2-1.4,0.4-2.9,0.6c0-0.6-0.3-1.2-0.6-1.8h1.9c0.1,0,0.2,0,0.2-0.1
		c0,0,0.1-0.1,0.1-0.3v-8.3h-7v-1.5H58.4z M52.4,281.2l1.3-1c0.4,0.4,0.9,1,1.5,1.6c0.6,0.7,1,1.1,1.2,1.4l-1.4,1
		c-0.4-0.6-0.8-1.2-1.2-1.7C53.5,282.2,53,281.7,52.4,281.2z"/>
</g>
</svg>
