<?xml version="1.0" encoding="utf-8"?>
<!-- Generator: Adobe Illustrator 18.1.1, SVG Export Plug-In . SVG Version: 6.00 Build 0)  -->
<!DOCTYPE svg PUBLIC "-//W3C//DTD SVG 1.1//EN" "http://www.w3.org/Graphics/SVG/1.1/DTD/svg11.dtd">
<svg version="1.1" id="レイヤー_1" xmlns="http://www.w3.org/2000/svg" xmlns:xlink="http://www.w3.org/1999/xlink" x="0px"
	 y="0px" viewBox="0 0 240 20" style="enable-background:new 0 0 240 20;" xml:space="preserve">
<g>
	<path d="M3.6,13.5c0,1,0.2,1.7,0.7,2.4c0.4,0.6,1.2,0.9,2.2,1c1,0,1.8-0.3,2.4-0.8c0.5-0.5,0.8-1.2,0.8-2.1c0-1-0.3-1.8-0.9-2.3
		c-0.6-0.5-1.7-0.8-3.3-0.8V8.2c1.4,0,2.4-0.3,2.9-0.7C8.8,7,9.1,6.3,9,5.5C9,4.6,8.8,4,8.3,3.6C7.8,3.2,7.2,3,6.5,3
		C5.7,3,5,3.3,4.6,3.9C4.1,4.4,3.9,5.2,3.9,6.1H0.4c0-1.7,0.5-3.2,1.5-4.3C2.9,0.6,4.6,0,6.8,0c1.9,0,3.3,0.5,4.4,1.5
		c1.1,0.9,1.6,2.2,1.6,3.8c0,0.9-0.2,1.7-0.6,2.4c-0.4,0.6-1,1.2-1.8,1.5c1,0.4,1.7,0.9,2.3,1.7c0.5,0.8,0.8,1.7,0.8,2.8
		c0,1.8-0.6,3.3-1.7,4.5C10.5,19.3,8.8,20,6.5,20c-2.2,0-3.9-0.7-4.9-1.8S0,15.4,0,13.5H3.6z"/>
	<path d="M23.6,13l4.8,7H24l-2.7-4.3L18.7,20h-4.3l4.8-7l-4.5-6.7h4.3l2.5,4.1L24,6.4h4.2L23.6,13z"/>
	<path d="M33.1,13.5c0,1,0.2,1.7,0.7,2.4c0.4,0.6,1.2,0.9,2.2,1c1,0,1.8-0.3,2.4-0.8c0.5-0.5,0.8-1.2,0.8-2.1c0-1-0.3-1.8-0.9-2.3
		c-0.6-0.5-1.7-0.8-3.3-0.8V8.2c1.4,0,2.4-0.3,2.9-0.7c0.5-0.5,0.7-1.2,0.7-2c0-0.8-0.3-1.4-0.7-1.8S36.7,3,36,3
		c-0.9,0-1.5,0.3-2,0.8c-0.4,0.6-0.7,1.3-0.7,2.2h-3.5c0-1.7,0.5-3.2,1.5-4.3C32.4,0.6,34,0,36.2,0c1.9,0,3.3,0.5,4.4,1.5
		c1.1,0.9,1.6,2.2,1.6,3.8c0,0.9-0.2,1.7-0.6,2.4c-0.4,0.6-1,1.2-1.8,1.5c1,0.4,1.7,0.9,2.3,1.7c0.5,0.8,0.8,1.7,0.8,2.8
		c0,1.8-0.6,3.3-1.7,4.5C40,19.3,38.3,20,36,20c-2.2,0-3.9-0.7-4.9-1.8s-1.6-2.7-1.6-4.6H33.1z"/>
	<path d="M49.2,20V0H55l3.9,15.4L62.7,0h5.8v20h-3.7V3.6l-4,16.4h-4L52.8,3.6V20H49.2z"/>
	<path d="M75,15.9L73.7,20h-4.1l6.9-20h4.5l7,20h-4.2l-1.3-4.1H75z M76,12.6h5.5l-2.8-8.7L76,12.6z"/>
	<path d="M106.1,19.5h-2.7l-0.5-2.3c-0.4,0.7-1.1,1.4-2,1.9c-0.9,0.6-2.1,0.9-3.7,0.9c-2.9-0.1-5.1-1.1-6.7-3
		c-1.5-1.9-2.3-4.1-2.4-6.8c0-3.2,0.8-5.7,2.3-7.5C92.1,1,94.4,0,97.5,0c2.7,0.1,4.7,0.7,6.1,2s2.2,2.7,2.4,4.4H102
		c-0.2-0.8-0.6-1.5-1.3-2.1S99,3.4,97.6,3.4c-1.9,0.1-3.2,0.7-4.1,2c-0.8,1.3-1.3,2.9-1.2,4.7c0,1.8,0.4,3.4,1.3,4.6
		c0.9,1.2,2.2,1.9,4,1.9c1.4,0,2.6-0.4,3.4-1.2c0.8-0.8,1.3-1.8,1.4-2.9h-4.4V9.3h8V19.5z"/>
	<path d="M112.6,15.9l-1.3,4.1h-4.1l6.9-20h4.5l7,20h-4.2l-1.3-4.1H112.6z M113.6,12.6h5.5l-2.8-8.7L113.6,12.6z"/>
	<path d="M141.9,3.6l-10.6,12.9h10.4V20h-15.1v-3.4l10.6-13h-10.3V0h15.1V3.6z"/>
	<path d="M147.9,0v20H144V0H147.9z"/>
	<path d="M162,14V0h3.9v20h-4.1l-7.9-13.8V20H150V0h4.2L162,14z"/>
	<path d="M181.1,11.2h-9.3v5.2h10.6V20H168V0h14v3.4h-10.1v4.3h9.3V11.2z"/>
	<path d="M196.6,20c-2.7-0.1-4.7-0.7-6-1.9c-1.3-1.2-2-2.7-1.9-4.5h3.9c0,1,0.4,1.7,1.2,2.3s1.9,0.8,3.2,0.9c1.1,0,2-0.2,2.6-0.6
		c0.6-0.4,0.9-1,0.9-1.7c-0.1-1.1-0.7-1.9-1.8-2.3c-1.1-0.4-2.5-0.7-4-0.9c-1.5-0.3-2.8-0.8-4-1.5c-1.1-0.8-1.7-2.1-1.8-4
		c0-1.8,0.6-3.3,1.9-4.3c1.3-1,3.1-1.5,5.6-1.5c2.5,0.1,4.4,0.7,5.5,1.8s1.7,2.5,1.7,4.2h-3.8c0-0.9-0.4-1.6-1-2.1
		c-0.7-0.5-1.6-0.7-2.7-0.7c-1.1,0-2,0.2-2.5,0.6c-0.6,0.4-0.9,1-0.9,1.8c0.1,0.9,0.7,1.5,1.8,1.8c1.1,0.3,2.5,0.6,4,0.9
		c1.5,0.3,2.9,0.8,4,1.6c1.2,0.8,1.8,2.1,1.8,3.9c0,1.9-0.6,3.4-1.9,4.5C201.2,19.4,199.2,20,196.6,20z"/>
	<path d="M218.4,14V0h3.9v20h-4.1l-7.9-13.8V20h-3.9V0h4.2L218.4,14z"/>
	<path d="M232.3,20c-2.7-0.1-4.7-0.7-6-1.9c-1.3-1.2-2-2.7-1.9-4.5h3.9c0,1,0.4,1.7,1.2,2.3s1.9,0.8,3.2,0.9c1.1,0,2-0.2,2.6-0.6
		c0.6-0.4,0.9-1,0.9-1.7c-0.1-1.1-0.7-1.9-1.8-2.3c-1.1-0.4-2.5-0.7-4-0.9c-1.5-0.3-2.8-0.8-4-1.5c-1.1-0.8-1.7-2.1-1.8-4
		c0-1.8,0.6-3.3,1.9-4.3c1.3-1,3.1-1.5,5.6-1.5c2.5,0.1,4.4,0.7,5.5,1.8c1.2,1.1,1.7,2.5,1.7,4.2h-3.8c0-0.9-0.4-1.6-1-2.1
		c-0.7-0.5-1.6-0.7-2.7-0.7c-1.1,0-2,0.2-2.5,0.6c-0.6,0.4-0.9,1-0.9,1.8c0.1,0.9,0.7,1.5,1.8,1.8c1.1,0.3,2.5,0.6,4,0.9
		c1.5,0.3,2.9,0.8,4,1.6c1.2,0.8,1.8,2.1,1.8,3.9c0,1.9-0.6,3.4-1.9,4.5C236.9,19.4,234.9,20,232.3,20z"/>
</g>
<g>
</g>
<g>
</g>
<g>
</g>
<g>
</g>
<g>
</g>
<g>
</g>
<g>
</g>
<g>
</g>
<g>
</g>
<g>
</g>
<g>
</g>
<g>
</g>
<g>
</g>
<g>
</g>
<g>
</g>
</svg>
