<?xml version="1.0" encoding="utf-8"?>
<!-- Generator: Adobe Illustrator 19.0.1, SVG Export Plug-In . SVG Version: 6.00 Build 0)  -->
<!DOCTYPE svg PUBLIC "-//W3C//DTD SVG 1.1//EN" "http://www.w3.org/Graphics/SVG/1.1/DTD/svg11.dtd">
<svg version="1.1" id="レイヤー_1" xmlns="http://www.w3.org/2000/svg" xmlns:xlink="http://www.w3.org/1999/xlink" x="0px"
	 y="0px" viewBox="-293 584.5 255 22" style="enable-background:new -293 584.5 255 22;" xml:space="preserve">
<style type="text/css">
	.st0{fill:#F15A24;}
</style>
<g>
	<path class="st0" d="M-242.6,593c0-0.8-0.3-1.6-0.8-2.2c-0.5-0.7-1.4-1-2.6-1c-1.4,0-2.4,0.5-3.1,1.5c-0.7,1-1,2.4-1,4.3
		c0,1.6,0.3,3,0.9,4.1c0.6,1.1,1.7,1.7,3.4,1.7c1,0,1.8-0.3,2.4-0.9c0.6-0.6,1-1.4,1-2.6h6.3c0.1,1.8-0.6,3.6-2.1,5.5
		c-1.5,1.9-4.1,2.9-7.9,3.1c-4.1-0.2-7-1.4-8.6-3.7c-1.6-2.3-2.4-4.7-2.3-7.3c0-3.3,0.9-6,2.8-8c1.8-2,4.5-3,8-3.1
		c3.5,0.1,6,1,7.5,2.7c1.6,1.7,2.3,3.6,2.3,5.7H-242.6z"/>
	<path d="M-211.1,595.5c0,2.9-0.8,5.5-2.5,7.6c-1.7,2.2-4.5,3.3-8.4,3.4c-3.8-0.1-6.6-1.3-8.3-3.5c-1.7-2.2-2.6-4.7-2.5-7.5
		c0-2.9,0.8-5.4,2.6-7.6c1.7-2.2,4.5-3.3,8.3-3.4c3.9,0.1,6.7,1.3,8.4,3.4C-211.9,590.2-211.1,592.7-211.1,595.5z M-217.9,595.5
		c0-1.8-0.3-3.2-0.9-4.2c-0.6-1-1.7-1.5-3.2-1.5c-1.4,0-2.4,0.4-3.1,1.4c-0.7,0.9-1,2.4-1,4.4c0,1.5,0.2,2.9,0.8,4
		c0.6,1.1,1.7,1.7,3.3,1.8c1.6,0,2.7-0.6,3.3-1.6C-218.1,598.7-217.9,597.3-217.9,595.5z"/>
	<path d="M-201.2,584.6c0.3,0.7,0.9,1.6,1.6,2.8c0.8,1.2,1.6,2.5,2.4,3.9c0.8,1.4,1.6,2.7,2.3,3.9c0.7,1.2,1.1,2.2,1.2,3
		c0-0.3,0-0.7-0.1-1.1c0-0.4-0.1-0.7-0.1-0.9v-11.5h6.7v22h-6.7c-1.1-1.8-2.1-3.4-3-4.8c-0.9-1.4-1.6-2.6-2.2-3.6s-1.1-1.9-1.5-2.7
		c-0.4-0.8-0.7-1.5-0.8-2.2c0,0.2,0,0.5,0.1,0.9c0,0.4,0.1,0.8,0.1,1v11.3h-6.7v-22H-201.2z"/>
	<path d="M-170.4,590.3v16.2h-7.1v-16.2h-6.4v-5.8h19.7v5.8H-170.4z"/>
	<path d="M-160.9,584.6h17.6v5.2h-10.6v3h8.9v5.1h-8.9v3.5h11v5.3h-18.1V584.6z"/>
	<path d="M-133.2,584.6c0.3,0.7,0.9,1.6,1.6,2.8c0.8,1.2,1.6,2.5,2.4,3.9c0.8,1.4,1.6,2.7,2.3,3.9c0.7,1.2,1.1,2.2,1.2,3
		c0-0.3,0-0.7-0.1-1.1c0-0.4-0.1-0.7-0.1-0.9v-11.5h6.7v22h-6.7c-1.1-1.8-2.1-3.4-3-4.8c-0.9-1.4-1.6-2.6-2.2-3.6s-1.1-1.9-1.5-2.7
		c-0.4-0.8-0.7-1.5-0.8-2.2c0,0.2,0,0.5,0.1,0.9c0,0.4,0.1,0.8,0.1,1v11.3h-6.7v-22H-133.2z"/>
	<path d="M-102.4,590.3v16.2h-7.1v-16.2h-6.4v-5.8h19.7v5.8H-102.4z"/>
	<path d="M-81.1,591.1c-0.1-0.6-0.3-1.1-0.8-1.4c-0.4-0.3-1.1-0.5-2-0.5c-0.8,0-1.3,0.2-1.6,0.4c-0.3,0.3-0.5,0.6-0.4,1
		c0,0.6,0.4,1,1.1,1.3c0.7,0.3,1.6,0.5,2.7,0.7s2.2,0.5,3.4,0.9c1.2,0.4,2.2,1.1,3.2,1.9c0.3,0.3,0.6,0.8,0.9,1.4
		c0.3,0.6,0.4,1.4,0.4,2.2c0,2.3-0.7,4-2.3,5.3s-3.9,1.9-7.1,2c-3.6-0.2-6.1-1-7.4-2.6c-1.3-1.6-2-3.1-1.9-4.4h6.5
		c0.2,0.6,0.4,1.1,0.8,1.5c0.4,0.4,1.2,0.6,2.3,0.6c0.9,0,1.5-0.2,1.9-0.4c0.4-0.3,0.6-0.7,0.6-1.1c0-0.1,0-0.3-0.1-0.4
		c0-0.1-0.1-0.3-0.2-0.4c-0.4-0.3-1-0.6-1.8-0.8c-0.8-0.2-1.8-0.5-2.8-0.7c-1-0.2-2-0.5-3-0.9c-1-0.4-1.7-0.8-2.4-1.4
		c-0.4-0.4-0.8-0.9-1.1-1.6c-0.3-0.7-0.5-1.6-0.5-2.7c0-1.9,0.8-3.5,2.3-4.7c1.5-1.2,3.7-1.8,6.7-1.9c3.1,0.1,5.4,0.8,6.7,2.2
		c1.4,1.4,2,2.8,2,4.4H-81.1z"/>
</g>
</svg>
