<?xml version="1.0" encoding="utf-8"?>
<!-- Generator: Adobe Illustrator 18.1.1, SVG Export Plug-In . SVG Version: 6.00 Build 0)  -->
<!DOCTYPE svg PUBLIC "-//W3C//DTD SVG 1.1//EN" "http://www.w3.org/Graphics/SVG/1.1/DTD/svg11.dtd" [
	<!ENTITY st0 "fill:#F15A24;">
]>
<svg version="1.1" id="レイヤー_1" xmlns="http://www.w3.org/2000/svg" xmlns:xlink="http://www.w3.org/1999/xlink" x="0px"
	 y="0px" viewBox="0 0 480 36" style="enable-background:new 0 0 480 36;" xml:space="preserve">
<g>
	<path d="M193.4,13.8h-8.2c1.6,0.9,2.9,1.9,3.9,2.9l-1.5,1.7c-1.3-1.2-2.7-2.3-4.3-3.3l1.1-1.3h-4.3v2.7c0,1.9-0.1,3.4-0.3,4.5
		c-0.2,1.1-0.4,2.1-0.8,3c-0.3,0.9-0.7,1.7-1.2,2.3l-1.8-1.2c0.4-0.6,0.7-1.4,1-2.3c0.3-0.9,0.5-1.8,0.5-2.7
		c0.1-0.9,0.1-1.9,0.1-3.2v-5h6.6v-1.4h2.5v1.4h6.6V13.8z M183,19.3c0,0.9-0.2,2.1-0.5,3.3c-0.3,1.3-0.6,2.3-0.9,3l-2.1-0.7
		c0.7-1.5,1.2-3.4,1.5-5.7L183,19.3z M190.6,24.3c0,0.5-0.2,0.9-0.5,1.2s-0.7,0.5-1.3,0.6c-0.5,0.1-1.2,0.1-2,0.1
		c-1.4,0-2.3-0.1-2.7-0.4s-0.6-0.8-0.6-1.5V17h2.4v6.8c0,0.2,0.1,0.4,0.4,0.4l0.2,0c0.4,0,0.6,0,0.7,0c0.2,0,0.5,0,0.7,0
		c0.3,0,0.4-0.1,0.5-0.2c0.1-0.1,0.2-0.3,0.2-0.6c0.1-0.3,0.1-0.9,0.1-1.8l2,0.2V24.3z M193.9,23.3l-2.3,0.8
		c-0.7-2.4-1.4-4.2-2.2-5.6l2.2-0.8c0.4,0.7,0.8,1.6,1.3,2.8S193.7,22.5,193.9,23.3z"/>
	<path d="M215.5,22l-1.2,1.9c-0.9-0.3-1.7-0.7-2.4-1.1c0,0.7-0.1,1.2-0.1,1.6c-0.1,0.4-0.2,0.7-0.4,0.9s-0.4,0.4-0.6,0.6
		c-0.3,0.1-0.5,0.2-0.8,0.3c-0.3,0-0.8,0.1-1.5,0.1l-1.6,0l-0.2-1.7h2c0.3,0,0.6-0.1,0.7-0.3c0.1-0.2,0.2-0.6,0.2-1.1h-3.2
		c-0.9,1.8-3.1,2.9-6.5,3.2l-0.6-1.7c0.8-0.1,1.6-0.3,2.4-0.5c0.8-0.2,1.5-0.5,2-1h-2.2v-0.6c-0.9,0.5-1.9,1-2.9,1.2l-1-1.7
		c1.4-0.4,2.5-1,3.5-1.7h-2.8v-1.6h4.5c0.2-0.3,0.4-0.6,0.6-0.8h-3.9v-4.6h2.7v-0.7h-3.9v-1.5h3.9v-0.8h2.3v0.8h4.1v-0.8h2.3v0.8
		h3.8v1.5H211v0.7h2.7v4.6H206c-0.1,0.3-0.3,0.5-0.5,0.8h9.3v1.6H212C213.1,21.1,214.3,21.7,215.5,22z M211.3,15.2v-0.8h-9.4v0.8
		H211.3z M211.3,16.9v-0.8h-9.4v0.8H211.3z M210.1,21.5c-0.4-0.3-0.8-0.7-1.2-1.1h-4.7c-0.3,0.4-0.8,0.7-1.2,1.1h1.5
		c0-0.2,0-0.5,0.1-0.8h2.3l-0.1,0.8H210.1z M204.6,13.3h4.1v-0.7h-4.1V13.3z"/>
	<path d="M224.1,11.3c-0.7,2.6-1.1,4.9-1.1,6.8c0,2.5,0.3,5,1,7.4l-2.5,0.5c-0.6-2.5-1-4.9-1-7.3c0-2.4,0.3-5,1-7.7L224.1,11.3z
		 M237.1,23.4l-1.4,2c-0.9-0.8-1.7-1.5-2.5-2c-0.1,0.9-0.4,1.5-0.9,2s-1.6,0.7-3.1,0.7c-1.1,0-2-0.3-2.8-0.8
		c-0.8-0.5-1.1-1.2-1.1-2.2s0.4-1.6,1.1-2.2c0.8-0.6,1.6-0.9,2.7-0.9c0.5,0,1,0,1.6,0.1v-3.9H225V14h5.7v-3.2h2.5V14h3.3v2.2h-3.3
		v4.7C234.4,21.4,235.8,22.3,237.1,23.4z M230.7,22.9v-0.6c-0.5-0.2-1-0.3-1.6-0.3c-0.4,0-0.7,0.1-1,0.3c-0.3,0.2-0.5,0.4-0.5,0.7
		s0.2,0.5,0.5,0.7c0.3,0.2,0.7,0.3,1.1,0.3C230.1,24,230.7,23.6,230.7,22.9z"/>
	<path d="M257.1,25.5c-2.3,0.3-4.4,0.4-6.3,0.4c-3.1,0-5.3-0.3-6.4-0.9s-1.8-1.5-1.8-2.8c0-1.5,0.8-2.9,2.4-4.1l1.7,1.3
		c-1.1,1.1-1.7,1.9-1.7,2.6c0,0.2,0,0.4,0.1,0.5c0.1,0.2,0.2,0.3,0.5,0.5s0.8,0.3,1.5,0.4s1.6,0.2,2.7,0.2h0.6c1.9,0,4-0.2,6.1-0.5
		L257.1,25.5z M256.4,14.3c-0.4,0.1-0.8,0.2-1.3,0.3s-0.8,0.3-1.1,0.4s-1.4,0.7-3.3,1.6l-1.1-1.5c0.2-0.1,0.9-0.4,2-0.9
		c-1.7,0-4.3,0.1-7.8,0.2l-0.1-2.2c1.7-0.1,4.8-0.1,9.5-0.1c1.1,0,1.9,0,2.3,0L256.4,14.3z"/>
	<path d="M279.3,15.4h-9.5c-0.2,0.7-0.5,1.5-0.9,2.5c1.4-0.5,2.8-0.7,4.1-0.7c1.6,0,3,0.4,4,1.1s1.6,1.8,1.6,3.1
		c0,1.6-0.7,2.9-2.2,3.7c-1.4,0.8-3.4,1.3-5.8,1.3h-0.8c-0.8,0-1.8-0.1-2.8-0.2l-0.2-2.2c1.5,0.1,2.9,0.2,4.2,0.2
		c1.4,0,2.5-0.2,3.5-0.7c0.9-0.4,1.4-1.1,1.4-1.9c0-0.7-0.3-1.3-0.8-1.7c-0.5-0.4-1.3-0.6-2.2-0.6c-1.2,0-2.4,0.2-3.6,0.7
		c-1.2,0.5-2.2,1.1-3,1.9l-1.5-1.5c1.1-1.4,1.9-3,2.4-4.9h-4v-2.1h4.4c0.1-0.6,0.1-1.5,0.1-2.5l2.6,0c0,0.6-0.1,1.4-0.1,2.5h9.1
		V15.4z"/>
	<path d="M288.8,26.3l-0.4-2.2c3.1,0,5.4-0.2,7-0.7c1.6-0.5,2.4-1.2,2.4-2.3c0-0.8-0.3-1.4-0.9-1.8c-0.6-0.4-1.4-0.6-2.3-0.6
		c-1.3,0-2.6,0.3-3.9,0.9s-2.4,1.4-3.2,2.4l-1.9-1.1c0.9-2.1,1.4-4.5,1.5-7.5l2.6,0.1c-0.1,1.9-0.4,3.4-0.8,4.6
		c0.7-0.5,1.6-0.8,2.7-1.1s2.1-0.4,3-0.4c1.8,0,3.3,0.4,4.3,1.2s1.6,1.9,1.6,3.4c0,1.1-0.3,2-1,2.8s-1.7,1.3-3.1,1.7
		S292.4,26.2,288.8,26.3z M299.2,12.6l-1.2,2.2c-1.2-0.5-2.8-1-4.6-1.3s-3.5-0.6-4.7-0.7l0.7-2.1C293,11,296.3,11.7,299.2,12.6z"/>
</g>
<g>
	<g>
		<path style="&st0;" d="M131.8,17.5l-7.9,12.1h-8.1l7.9-12.1l-7.9-11h8.1L131.8,17.5z"/>
	</g>
	<g>
		<path d="M149.4,17.5l-7.9,12.1h-8.1l7.9-12.1l-7.9-11h8.1L149.4,17.5z"/>
	</g>
	<g>
		<path d="M167,17.5l-7.9,12.1h-8.1l7.9-12.1l-7.9-11h8.1L167,17.5z"/>
	</g>
</g>
<g>
	<g>
		<path style="&st0;" d="M347.1,18.5l7.9-12.1h8.1l-7.9,12.1l7.9,11h-8.1L347.1,18.5z"/>
	</g>
	<g>
		<path d="M329.5,18.5l7.9-12.1h8.1l-7.9,12.1l7.9,11h-8.1L329.5,18.5z"/>
	</g>
	<g>
		<path d="M311.8,18.5l7.9-12.1h8.1l-7.9,12.1l7.9,11h-8.1L311.8,18.5z"/>
	</g>
</g>
<g>
</g>
<g>
</g>
<g>
</g>
<g>
</g>
<g>
</g>
<g>
</g>
<g>
</g>
<g>
</g>
<g>
</g>
<g>
</g>
<g>
</g>
<g>
</g>
<g>
</g>
<g>
</g>
<g>
</g>
</svg>
