<?xml version="1.0" encoding="utf-8"?>
<!-- Generator: Adobe Illustrator 18.1.1, SVG Export Plug-In . SVG Version: 6.00 Build 0)  -->
<!DOCTYPE svg PUBLIC "-//W3C//DTD SVG 1.1//EN" "http://www.w3.org/Graphics/SVG/1.1/DTD/svg11.dtd" [
	<!ENTITY st0 "fill:#F15A24;">
]>
<svg version="1.1" id="レイヤー_1" xmlns="http://www.w3.org/2000/svg" xmlns:xlink="http://www.w3.org/1999/xlink" x="0px"
	 y="0px" viewBox="0 0 200 24" style="enable-background:new 0 0 200 24;" xml:space="preserve">
<g>
	<path style="&st0;" d="M12.8,7.2C12.7,6.5,12.5,6,12,5.7c-0.5-0.4-1.2-0.5-2.2-0.5C8.9,5.1,8.4,5.3,8,5.6C7.7,5.9,7.5,6.3,7.5,6.7
		c0,0.6,0.4,1.1,1.2,1.4c0.8,0.3,1.8,0.6,3,0.8c1.2,0.2,2.4,0.6,3.7,1c1.3,0.5,2.4,1.2,3.5,2.1c0.3,0.3,0.7,0.8,1,1.5
		c0.3,0.7,0.5,1.5,0.5,2.4c0,2.5-0.8,4.4-2.5,5.8c-1.7,1.4-4.2,2.1-7.7,2.2c-3.9-0.2-6.6-1.1-8.1-2.9c-1.5-1.7-2.2-3.3-2.1-4.8h7.1
		C7.3,17,7.6,17.5,8,18c0.4,0.4,1.3,0.7,2.6,0.7c0.9,0,1.6-0.2,2.1-0.5c0.4-0.3,0.7-0.7,0.7-1.2c0-0.2,0-0.3-0.1-0.5
		c0-0.2-0.1-0.3-0.2-0.4c-0.4-0.4-1.1-0.7-2-0.9c-0.9-0.3-1.9-0.5-3-0.8c-1.1-0.3-2.2-0.6-3.2-1c-1-0.4-1.9-0.9-2.6-1.6
		c-0.4-0.4-0.8-1-1.2-1.7C0.6,9.3,0.4,8.3,0.4,7.1c0-2.1,0.8-3.8,2.5-5.1C4.5,0.7,7,0,10.2,0c3.4,0.1,5.8,0.9,7.3,2.4
		c1.5,1.5,2.2,3.1,2.2,4.8H12.8z"/>
	<path d="M37.9,0h7.3v24h-7.3v-9.3H31V24h-7.3V0H31v8.2h6.9V0z"/>
	<path d="M72.2,12c0,3.2-0.9,5.9-2.7,8.3c-1.9,2.4-4.9,3.6-9.1,3.7c-4.2-0.1-7.2-1.4-9-3.8c-1.9-2.4-2.8-5.1-2.8-8.2
		c0-3.2,0.9-5.9,2.8-8.3c1.9-2.4,4.9-3.6,9.1-3.7c4.2,0.1,7.3,1.4,9.1,3.8S72.2,8.9,72.2,12z M64.8,12c0-2-0.3-3.5-1-4.6
		c-0.7-1.1-1.8-1.6-3.5-1.6c-1.5,0-2.6,0.5-3.4,1.5c-0.7,1-1.1,2.6-1.1,4.8c0,1.7,0.2,3.1,0.8,4.4c0.6,1.2,1.8,1.9,3.7,1.9
		c1.7,0,2.9-0.6,3.5-1.8C64.6,15.4,64.9,13.9,64.8,12z"/>
	<path d="M86.3,0c3.4,0,5.9,0.8,7.4,2.2c1.6,1.5,2.3,3.5,2.3,6.1c-0.1,3-0.9,5.1-2.5,6.4c-1.6,1.3-3.4,2-5.6,1.9h-5.1V24h-7.3V0
		H86.3z M89.1,8.3c0-0.8-0.2-1.5-0.6-1.9c-0.4-0.4-1-0.6-1.8-0.6h-3.8v5h3.4c1,0,1.7-0.2,2.2-0.6C88.9,9.8,89.1,9.2,89.1,8.3z"/>
	<path style="&st0;" d="M120.1,0c3.9,0.1,6.7,1.2,8.4,3.3c1.7,2.2,2.5,5,2.5,8.6c0,4.1-1,7.2-3,9.1c-2,2-4.9,2.9-8.8,2.9h-9.7V0
		H120.1z M123.6,12c0-2.1-0.4-3.6-1.1-4.5s-1.7-1.4-3-1.4h-2.8V18h2.8c1.6,0,2.6-0.5,3.2-1.6C123.4,15.4,123.6,13.9,123.6,12z"/>
	<path d="M147.5,0l8,24h-7.2l-0.9-3.2h-7.3l-0.9,3.2h-7.1l8-24H147.5z M141.5,15.8h4.7l-2.3-8.4L141.5,15.8z"/>
	<path d="M169.8,6.3V24h-7.3V6.3h-6.6V0h20.4v6.3H169.8z"/>
	<path d="M192,0l8,24h-7.2l-0.9-3.2h-7.3l-0.9,3.2h-7.1l8-24H192z M185.9,15.8h4.7l-2.3-8.4L185.9,15.8z"/>
</g>
<g>
</g>
<g>
</g>
<g>
</g>
<g>
</g>
<g>
</g>
<g>
</g>
<g>
</g>
<g>
</g>
<g>
</g>
<g>
</g>
<g>
</g>
<g>
</g>
<g>
</g>
<g>
</g>
<g>
</g>
</svg>
