<?xml version="1.0" encoding="utf-8"?>
<!-- Generator: Adobe Illustrator 18.1.1, SVG Export Plug-In . SVG Version: 6.00 Build 0)  -->
<!DOCTYPE svg PUBLIC "-//W3C//DTD SVG 1.1//EN" "http://www.w3.org/Graphics/SVG/1.1/DTD/svg11.dtd" [
	<!ENTITY st0 "fill:#F15A24;">
]>
<svg version="1.1" id="レイヤー_1" xmlns="http://www.w3.org/2000/svg" xmlns:xlink="http://www.w3.org/1999/xlink" x="0px"
	 y="0px" viewBox="0 0 240 24" style="enable-background:new 0 0 240 24;" xml:space="preserve">
<g>
	<g>
		<path d="M63.6,8.7h-7V6.9h7V8.7z M63.1,19.8h-3.9v0.7H57v-6.1h6.2V19.8z M63.1,6.1h-5.9V4.5h5.9V6.1z M63,11.1h-5.8V9.5H63V11.1z
			 M63,13.5h-5.8v-1.6H63V13.5z M60.9,18.2V16h-1.7v2.2H60.9z M73.5,7.2v2c0,0.3-0.1,0.6-0.3,0.8c-0.2,0.2-0.4,0.4-0.7,0.5
			s-0.7,0.1-1.4,0.1c-0.5,0-0.9,0-1.3-0.1c-0.4,0-0.7-0.2-1-0.4c-0.2-0.2-0.4-0.5-0.4-0.9V6.2h-1.8v0.1v0.1v0.2
			c0,0.9-0.2,1.7-0.6,2.6c-0.4,0.9-0.9,1.5-1.5,2L63.2,10c0.4-0.4,0.7-0.9,1-1.5c0.3-0.5,0.4-1.3,0.4-2.2V4.5h6.2v4.2
			C70.8,8.9,70.9,9,71,9h0.3c0.1,0,0.2,0,0.2-0.1c0.1,0,0.1-0.1,0.1-0.2c0-0.1,0-0.3,0-0.6c0-0.3,0-0.7,0-1.1L73.5,7.2z M72.9,11.4
			c0,2.3-0.8,4.2-2.2,5.8c0.6,0.3,1.6,0.7,3,1.1l-1.3,2.1c-1.5-0.4-2.7-1-3.8-1.7c-1.4,0.9-2.9,1.5-4.4,1.7l-0.8-1.9
			c1.4-0.3,2.6-0.7,3.6-1.2c-1.2-1.2-1.9-2.5-2.3-4h-0.9v-2H72.9z M68.7,16c0.7-0.8,1.2-1.7,1.5-2.6H67C67.3,14.4,67.9,15.3,68.7,16
			z"/>
		<path d="M83,17.9v-6.7h2.7v-0.8h-7.3V8.8h7.3V8h-6.8V4.6h15.8V8h-6.5v0.8h6.9v1.5h-6.9v0.8h5.7v6.7H83z M81.7,20.5h-2.5v-8.9h2.5
			v7h13.5v1.5H81.7V20.5z M83.7,6.9V5.8h-2.5v1.1H83.7z M91.5,13.1v-0.8h-6.2v0.8H91.5z M85.4,14.9h6.2v-0.8h-6.2V14.9z M85.4,16.7
			h6.2v-0.9h-6.2V16.7z M85.8,5.8v1.1h2.3V5.8H85.8z M92.5,6.9V5.8h-2.4v1.1H92.5z"/>
		<path d="M113.7,19.8h-6.9v0.7h-2.5v-7.1h4.2V8.1h-4.7v2.1c0,2.3-0.2,4.3-0.6,6.1c-0.4,1.8-1,3.2-1.7,4.2l-1.8-1.2
			c0.5-0.8,0.9-1.9,1.2-3.5c0.3-1.6,0.5-3.3,0.5-5.1V6.1h6.7V4.2h2.5v1.9h6.7v2h-6.1v1.6h5.8v2h-5.8v1.7h5v7h-2.5V19.8z M106.8,17.9
			h6.9v-2.6h-6.9V17.9z"/>
		<path d="M136.4,16.5h-1.3v3.8h-2.2v-3.8h-1.3v3.9h-2.1V8.8h3.3V7.8h-3.6V7.3l-0.9,1.3c-0.9-0.6-1.7-1.5-2.5-2.7
			c-0.5,1-1.3,2-2.3,3h1.1V7.8h2.1V9h1.6v1.7h-1.6v1.3h2.3v1.7h-7v-1.7h2.5v-1.3H123V9.5l-0.5,0.4l-1.1-1.6c0.5-0.4,1.1-1,1.8-1.9
			s1.1-1.6,1.4-2.3c0.8,0,1.4,0,1.7,0c0.4,0,0.5,0,0.5,0c0.5,1,1.3,1.9,2.4,2.8v-1h3.6V4h2.2v1.9h1.1l-0.6-1.2l1.7-0.7
			c0.3,0.5,0.7,1.2,1.1,1.9h0.8v1.9h-4v1.1h3.4v9.9c0,0.5-0.2,0.9-0.5,1.1s-0.7,0.4-1.3,0.4h-1.2l-0.3-2h0.7c0.3,0,0.4-0.1,0.4-0.4
			V16.5z M128.9,20.3h-2.1v-0.5h-2.1v0.7h-2.2v-5.9h6.4V20.3z M126.8,18.1v-2h-2.1v2H126.8z M132.9,10.6h-1.3v1.3h1.3V10.6z
			 M131.6,14.9h1.3v-1.4h-1.3V14.9z M136.4,11.9v-1.3h-1.3v1.3H136.4z M135.1,14.9h1.3v-1.4h-1.3V14.9z"/>
		<path d="M160.4,12.4h-16.1V10h16.1V12.4z"/>
		<path d="M173,17.6c-0.4,1-1.1,1.7-2.2,2.2c-1,0.5-2.7,0.8-5.1,0.9l-0.4-1.8c2.6-0.1,4.2-0.6,4.8-1.3h-3.1v-6.7h13.9v6.7h-4v0.6
			c0,0.3,0.1,0.4,0.4,0.5c0.3,0.1,0.7,0.1,1.3,0.1c0.2,0,0.6,0,1.1,0s0.8-0.1,0.9-0.1s0.2-0.2,0.3-0.3c0.1-0.2,0.1-0.6,0.1-1.4
			l1.9,0.2v1.7c0,0.5-0.1,0.9-0.4,1.2s-0.8,0.4-1.6,0.4c-0.8,0-1.6,0.1-2.3,0.1c-0.5,0-1.2,0-1.9,0s-1.3-0.2-1.6-0.5
			c-0.3-0.3-0.5-0.6-0.5-1.1v-1.3H173z M171.9,8.5v0.8h2.8v1h-8.4V4.4h8.3v0.9h-2.7v0.7h2.5v2.4H171.9z M170.2,5.3h-1.8v0.7h1.8V5.3
			z M168.4,6.9v0.8h4.3V6.9H168.4z M170.2,9.3V8.5h-1.8v0.8H170.2z M178.5,12.8V12h-8.8v0.8H178.5z M169.8,14.6h8.8v-0.8h-8.8V14.6z
			 M178.5,15.5h-8.8v0.9h8.8V15.5z M179,4.3c-0.1,0.2-0.2,0.5-0.4,0.8h4.1v1.8h-5.3c-0.5,0.6-0.9,1-1.3,1.3l-1.6-1
			c0.4-0.4,0.9-1,1.3-1.6s0.8-1.2,1-1.6L179,4.3z M182.1,10.1H176V8.3h6.1V10.1z"/>
	</g>
	<g>
		<g>
			<path style="&st0;" d="M16.1,11.4L8.1,24H0l8-12.6L0,0h8.1L16.1,11.4z"/>
		</g>
		<g>
			<path d="M32.9,11.4L25,24h-8.1l8-12.6L16.8,0H25L32.9,11.4z"/>
		</g>
		<g>
			<path d="M49.8,11.4l-8,12.6h-8.1l8-12.6L33.6,0h8.1L49.8,11.4z"/>
		</g>
	</g>
	<g>
		<g>
			<path style="&st0;" d="M223.9,12.6l8-12.6l8.1,0l-8,12.6l8,11.4h-8.1L223.9,12.6z"/>
		</g>
		<g>
			<path d="M207.1,12.6L215,0l8.1,0l-8,12.6l8,11.4H215L207.1,12.6z"/>
		</g>
		<g>
			<path d="M190.2,12.6l8-12.6l8.1,0l-8,12.6l8,11.4h-8.1L190.2,12.6z"/>
		</g>
	</g>
</g>
<g>
</g>
<g>
</g>
<g>
</g>
<g>
</g>
<g>
</g>
<g>
</g>
<g>
</g>
<g>
</g>
<g>
</g>
<g>
</g>
<g>
</g>
<g>
</g>
<g>
</g>
<g>
</g>
<g>
</g>
</svg>
