<?xml version="1.0" encoding="utf-8"?>
<!-- Generator: Adobe Illustrator 19.0.1, SVG Export Plug-In . SVG Version: 6.00 Build 0)  -->
<!DOCTYPE svg PUBLIC "-//W3C//DTD SVG 1.1//EN" "http://www.w3.org/Graphics/SVG/1.1/DTD/svg11.dtd" [
	<!ENTITY st0 "fill:#E55927;">
	<!ENTITY st1 "fill:#040000;">
]>
<svg version="1.1" id="レイヤー_1" xmlns="http://www.w3.org/2000/svg" xmlns:xlink="http://www.w3.org/1999/xlink" x="0px"
	 y="0px" viewBox="0 0 155 24" style="enable-background:new 0 0 155 24;" xml:space="preserve">
<g id="XMLID_1757_">
	<path id="XMLID_1859_" style="&st0;" d="M26.1,1.7c2.8,0,4.8,0.7,6.1,2c1.3,1.3,1.9,3.1,1.9,5.3c-0.1,2.6-0.7,4.5-2,5.6
		s-2.8,1.7-4.6,1.7h-4.2v6.4h-6v-21H26.1z M28.4,9c0-0.7-0.2-1.3-0.5-1.6C27.5,7,27,6.8,26.4,6.8h-3.1v4.4H26c0.8,0,1.4-0.2,1.8-0.5
		C28.2,10.3,28.4,9.7,28.4,9z"/>
	<path id="XMLID_1863_" style="&st1;" d="M53.9,7.7c0,1.5-0.3,2.6-0.8,3.4c-0.5,0.8-1.3,1.4-2.3,1.9c0.5,0.1,0.9,0.3,1.3,0.5
		c0.4,0.2,0.6,0.4,0.9,0.7c0.7,1.1,1.1,2.5,1,4.3c0,1.8,0,2.9,0.2,3.3c0.1,0.1,0.1,0.1,0.2,0.2c0.1,0,0.1,0,0.2,0v0.7h-6.1
		c-0.1-0.4-0.1-0.9-0.2-1.4c-0.1-0.5-0.1-1.2-0.1-2.1c0-1,0-1.8-0.1-2.1c-0.1-0.4-0.2-0.7-0.5-0.9c-0.1-0.1-0.3-0.3-0.5-0.4
		c-0.3-0.1-0.5-0.2-0.9-0.2H43v7.2h-5.9v-21h10.1c2.2,0,3.9,0.5,5,1.5S53.9,5.7,53.9,7.7z M46.5,10.8c0.6,0,1.1-0.2,1.4-0.6
		c0.3-0.4,0.4-0.9,0.4-1.5c0-0.6-0.1-1.1-0.5-1.4c-0.3-0.4-0.8-0.5-1.6-0.5H43v4H46.5z"/>
	<path id="XMLID_1870_" style="&st1;" d="M76,12.2c0,2.8-0.7,5.2-2.2,7.3s-4,3.2-7.5,3.3c-3.4-0.1-5.9-1.2-7.4-3.3
		c-1.5-2.1-2.3-4.5-2.3-7.2c0-2.8,0.7-5.2,2.3-7.3s4-3.2,7.4-3.3c3.5,0.1,6,1.2,7.5,3.3C75.3,7.1,76,9.5,76,12.2z M70,12.2
		c0-1.8-0.3-3.1-0.8-4c-0.6-0.9-1.5-1.4-2.8-1.4c-1.2,0-2.2,0.4-2.8,1.3s-0.9,2.3-0.9,4.2c0,1.5,0.2,2.7,0.7,3.8
		c0.5,1.1,1.5,1.6,3,1.7c1.4,0,2.4-0.5,2.9-1.5C69.7,15.2,70,13.8,70,12.2z"/>
	<path id="XMLID_1877_" style="&st1;" d="M85.2,6.8v3.3h6.5v5.1h-6.5v7.5h-6v-21h14.1v5.1H85.2z"/>
	<path id="XMLID_1879_" style="&st1;" d="M102.4,1.7v21h-6.1v-21H102.4z"/>
	<path id="XMLID_1881_" style="&st1;" d="M111.4,1.7v15.5h8.2v5.5h-14.1v-21H111.4z"/>
	<path id="XMLID_1883_" style="&st1;" d="M122.4,1.7h15v5h-9v2.8h7.6v4.8h-7.6v3.3h9.3v5h-15.3V1.7z"/>
</g>
<g>
</g>
<g>
</g>
<g>
</g>
<g>
</g>
<g>
</g>
<g>
</g>
<g>
</g>
<g>
</g>
<g>
</g>
<g>
</g>
<g>
</g>
<g>
</g>
<g>
</g>
<g>
</g>
<g>
</g>
</svg>
