<?xml version="1.0" encoding="utf-8"?>
<!-- Generator: Adobe Illustrator 18.1.1, SVG Export Plug-In . SVG Version: 6.00 Build 0)  -->
<!DOCTYPE svg PUBLIC "-//W3C//DTD SVG 1.1//EN" "http://www.w3.org/Graphics/SVG/1.1/DTD/svg11.dtd" [
	<!ENTITY st0 "fill:#DD2F3C;stroke:#DD2F3C;stroke-width:0.5;stroke-miterlimit:10;">
]>
<svg version="1.1" id="レイヤー_1" xmlns="http://www.w3.org/2000/svg" xmlns:xlink="http://www.w3.org/1999/xlink" x="0px"
	 y="0px" viewBox="0 0 480 36" style="enable-background:new 0 0 480 36;" xml:space="preserve">
<g>
	<path style="&st0;" d="M31.3,28.1v-3.9h0.4c2.1,1.2,4,1.8,5.9,1.8c1.4,0,2.6-0.3,3.4-0.9c0.8-0.6,1.2-1.5,1.2-2.6
		c0-0.9-0.3-1.6-1-2.1c-0.6-0.5-1.9-0.7-3.9-0.7h-1.2v-3.1h1.1c3.1,0,4.6-0.9,4.6-2.8c0-0.8-0.3-1.4-1-1.8c-0.7-0.4-1.6-0.6-2.8-0.6
		c-1.6,0-3.5,0.6-5.7,1.8h-0.4V9.3C34.2,8.4,36.5,8,38.6,8c2.5,0,4.5,0.5,5.7,1.4s1.9,2.2,1.9,3.7c0,1.1-0.4,2.2-1.1,3
		c-0.7,0.9-1.7,1.4-2.9,1.7V18c1.4,0.2,2.5,0.8,3.3,1.6c0.8,0.8,1.2,1.9,1.2,3.2c0,2-0.8,3.6-2.3,4.8s-3.6,1.8-6.2,1.8
		C35.8,29.4,33.4,29,31.3,28.1z"/>
	<path style="&st0;" d="M66.1,29h-5l-3.7-5.2L53.7,29h-4.7l6.1-7.9l-6-7.9h5l3.7,5.1l3.7-5.1h4.7l-6,7.8L66.1,29z"/>
	<path style="&st0;" d="M68.2,28.1v-3.9h0.4c2.1,1.2,4,1.8,5.9,1.8c1.4,0,2.6-0.3,3.4-0.9c0.8-0.6,1.2-1.5,1.2-2.6
		c0-0.9-0.3-1.6-1-2.1c-0.6-0.5-1.9-0.7-3.9-0.7H73v-3.1h1.1c3.1,0,4.6-0.9,4.6-2.8c0-0.8-0.3-1.4-1-1.8c-0.7-0.4-1.6-0.6-2.8-0.6
		c-1.6,0-3.5,0.6-5.7,1.8h-0.4V9.3C71.1,8.4,73.4,8,75.5,8C78,8,80,8.5,81.3,9.4s1.9,2.2,1.9,3.7c0,1.1-0.4,2.2-1.1,3
		c-0.7,0.9-1.7,1.4-2.9,1.7V18c1.4,0.2,2.5,0.8,3.3,1.6c0.8,0.8,1.2,1.9,1.2,3.2c0,2-0.8,3.6-2.3,4.8s-3.6,1.8-6.2,1.8
		C72.7,29.4,70.3,29,68.2,28.1z"/>
	<path style="&st0;" d="M117.7,29h-4.5V14.5l-4.4,9.6h-3l-4.4-9.6V29h-4.2V8.4h5.1l5.2,11l5.2-11h5.1V29z"/>
	<path style="&st0;" d="M140.8,29H136l-1.6-4.5h-8.1l-1.6,4.5h-4.6L128,8.4h5L140.8,29z M133.4,21.3l-2.9-8.3l-2.9,8.3H133.4z"/>
	<path style="&st0;" d="M160.7,27.7c-2.8,1.1-5.4,1.7-7.8,1.7c-3.4,0-6.1-0.9-8-2.8c-1.9-1.9-2.9-4.5-2.9-7.9c0-3.3,1-5.9,2.9-7.8
		c2-1.9,4.6-2.9,8-2.9c2.6,0,5.1,0.6,7.7,1.8V14h-0.5c-1.6-1.2-2.9-2-4-2.3c-1-0.3-2-0.5-3-0.5c-2,0-3.6,0.7-4.8,2
		c-1.2,1.3-1.8,3.1-1.8,5.4c0,2.5,0.6,4.4,1.8,5.7c1.2,1.3,3,2,5.3,2c0.9,0,1.7-0.1,2.5-0.3v-4.7h-4.6V18h9V27.7z"/>
	<path style="&st0;" d="M183.2,29h-4.8l-1.6-4.5h-8.1l-1.6,4.5h-4.6l7.8-20.6h5L183.2,29z M175.8,21.3l-2.9-8.3l-2.9,8.3H175.8z"/>
	<path style="&st0;" d="M201.3,29h-16.9v-3.4l11.1-13.7h-10.6V8.4h16v3.5l-11.1,13.7h11.5V29z"/>
	<path style="&st0;" d="M214.9,29h-11.2v-3.1h3.4V11.5h-3.4V8.4h11.2v3.1h-3.4v14.5h3.4V29z"/>
	<path style="&st0;" d="M236.6,29h-4.3L223,13.9V29h-4.2V8.4h5.5l8.1,13.3V8.4h4.2V29z"/>
	<path style="&st0;" d="M255.9,29h-14.4V8.4h14.4v3.4H246v4.4h9.2v3.4H246v6h9.9V29z"/>
	<path style="&st0;" d="M284.1,12.1L274.7,29h-4.9l9.8-17.3h-11.1V8.4h15.6V12.1z"/>
	<path style="&st0;" d="M316.4,27.2c0,0.9-0.4,1.6-1.1,2.2s-1.6,0.8-2.5,0.8h-4.5l-0.4-3.7h3.6c0.2,0,0.4-0.1,0.6-0.3
		s0.3-0.3,0.3-0.5v-3.9h-11.6c-0.4,1.8-1,3.4-2,5s-2,2.8-3.3,3.8l-2.6-2.3c1.3-1.2,2.3-2.5,2.9-3.9s1-2.6,1.2-3.8s0.3-2.7,0.3-4.4
		V6.6h19.2V27.2z M312.4,18.6v-3.1h-11.2c0,1.1,0,2.1-0.1,3.1H312.4z M312.4,12.5V9.7h-11.2v2.8H312.4z"/>
	<path style="&st0;" d="M344.7,20.8c0,2.1-0.1,3.8-0.3,5.1s-0.5,2.2-0.8,2.7s-0.8,0.9-1.3,1.2c-0.5,0.3-1.1,0.5-1.6,0.6
		c-0.5,0.1-1.8,0.1-3.8,0.1h-1.9l-0.5-3.4h4c0.7,0,1.2-0.2,1.5-0.6s0.5-1.4,0.6-3h-12.4l-0.3,1.3h-3.8l1.4-5.9h-3.9v-2.8h25.8v2.8
		h-18l-0.4,1.9H344.7z M344.6,14.4h-20.1V6.8h20.1V14.4z M340.8,11.8V9.4h-12.6v2.4H340.8z"/>
	<path style="&st0;" d="M360.8,22.9c-0.8,4-3.9,6.5-9.4,7.6l-1.2-3.1c3.8-0.8,6-2.3,6.8-4.5h-6.5v-3h6.9v-2.7h-2v-1.5
		c-1.6,1-3.2,1.8-5,2.5l-1.7-2.8c1.4-0.5,2.7-1.2,4-2l-2.7-2.1l2.1-2.2H351V6.2h13.4c0.3,0.6,0.9,1.4,1.7,2.2c1.6-1.1,2.8-2,3.6-2.8
		l2.5,2.1c-0.8,0.7-2,1.6-3.8,2.8c0.5,0.4,0.9,0.7,1.2,1c1.6-1.1,2.9-2.1,3.8-3l2.4,2.2c-1.1,0.8-2.2,1.7-3.4,2.5
		c1.2,0.7,2.6,1.2,4.1,1.8l-2.2,3c-1.3-0.5-2.8-1.3-4.4-2.2v1.4h-2.3v2.7h7.2v3h-7.2v3.4c0,0.3,0.1,0.5,0.3,0.6
		c0.2,0.1,0.7,0.2,1.5,0.2c1,0,1.6-0.1,1.8-0.3s0.3-1.2,0.3-3.2l3.2,0.4v3.3c0,0.7-0.2,1.3-0.5,1.7s-0.9,0.8-1.6,0.9
		s-1.9,0.3-3.6,0.3c-2.3,0-3.7-0.3-4.2-0.8s-0.8-1.3-0.8-2.3v-4.1H360.8z M352.6,9.1l3.1,2.3c1-0.7,1.8-1.5,2.6-2.3H352.6z
		 M357.7,14.2h9.9c-2-1.5-3.7-3-5-4.6C361.4,11.1,359.8,12.6,357.7,14.2z M361,17.2v2.7h2.8v-2.7H361z"/>
	<path style="&st0;" d="M384.9,30.6H381v-8.5c-0.7,0.8-1.4,1.4-2,1.9l-2-2.5c1.4-1.3,2.9-3,4.3-5.2c1.4-2.2,2.3-3.7,2.5-4.4l3.3,1.3
		c-0.4,1.2-1.3,2.9-2.7,4.9h0.5V30.6z M386,6.5c-1.3,3-3.5,5.8-6.6,8.3l-2.3-2.4c2.2-2,4-4.3,5.4-7.1L386,6.5z M399.4,27.6
		c0,0.8-0.3,1.5-1,2s-1.4,0.8-2.1,0.8h-4.7l-0.4-3.5h3.4c0.2,0,0.4-0.1,0.6-0.3s0.2-0.3,0.2-0.5v-8.4h-8.6v-3.4h16.9v3.4h-4.4V27.6z
		 M402.7,10h-14.6V6.8h14.6V10z"/>
	<path style="&st0;" d="M426.3,22.4h-5.9v8.1h-4v-8.1h-5.8v1.2h-3.8V9.4h9.6V5.8h4v3.6h9.8v14.2h-3.9V22.4z M410.7,19.4h5.8v-6.9
		h-5.8V19.4z M420.4,19.4h5.9v-6.9h-5.9V19.4z"/>
	<path style="&st0;" d="M447.5,8.4L446.9,23h-3.8l-0.6-14.6H447.5z M447.4,29h-4.7v-3.6h4.7V29z"/>
</g>
<g>
</g>
<g>
</g>
<g>
</g>
<g>
</g>
<g>
</g>
<g>
</g>
<g>
</g>
<g>
</g>
<g>
</g>
<g>
</g>
<g>
</g>
<g>
</g>
<g>
</g>
<g>
</g>
<g>
</g>
</svg>
